M48
;DRILL file {KiCad 4.0.7} date 09/12/18 20:21:38
;FORMAT={3:3/ absolute / metric / suppress trailing zeros}
FMAT,2
METRIC,LZ
T1C0.400
T2C0.800
T3C1.000
T4C2.300
%
G90
G05
M71
T1
X106825Y-09022
X106825Y-09276
X106825Y-0953
X106825Y-09784
X106825Y-10038
X106825Y-10292
X106825Y-10546
X106825Y-108
X106825Y-11054
X106825Y-11308
X106825Y-11562
X106825Y-11816
X106825Y-1207
X106825Y-12324
X106825Y-12578
X113175Y-09022
X113175Y-09276
X113175Y-0953
X113175Y-09784
X113175Y-10038
X113175Y-10292
X113175Y-10546
X113175Y-108
X113175Y-11054
X113175Y-11308
X113175Y-11562
X113175Y-11816
X113175Y-1207
X113175Y-12324
X113175Y-12578
X116Y-099073
X1167Y-088423
X1167Y-094011
X1175Y-108
X117505Y-102901
X1182Y-1108
X1182Y-1128
X119875Y-094
X119875Y-100361
X1205Y-1104
X123939Y-088423
X123939Y-094011
X123939Y-100361
X1242Y-1091
X1242Y-1128
X1264Y-1092
X129908Y-094011
X129908Y-100361
X130035Y-088423
X1318Y-108
X135369Y-088423
X135369Y-094011
X1354Y-0988
X1354Y-1045
X136004Y-117633
X1364Y-1091
X137528Y-117633
X138163Y-097313
X1388Y-117332
X139433Y-098837
X141719Y-13046
X141846Y-121062
X150355Y-120935
T2
X15Y-092
X15Y-094
X15Y-096
T3
X10873Y-09022
X10873Y-09276
X10873Y-0953
X10873Y-09784
X10873Y-10038
X10873Y-10292
X10873Y-10546
X10873Y-108
X10873Y-11054
X10873Y-11308
X10873Y-11562
X10873Y-11816
X10873Y-1207
X10873Y-12324
X10873Y-12578
X11127Y-09022
X11127Y-09276
X11127Y-0953
X11127Y-09784
X11127Y-10038
X11127Y-10292
X11127Y-10546
X11127Y-108
X11127Y-11054
X11127Y-11308
X11127Y-11562
X11127Y-11816
X11127Y-1207
X11127Y-12324
X11127Y-12578
X11924Y-12792
X11924Y-13046
X1411Y-104452
X1411Y-106992
X1411Y-109022
X1411Y-111562
T4
X14377Y-101402
X14377Y-115122
T2
X14965Y-0895G85X15035Y-0895
G05
X14965Y-0985G85X15035Y-0985
G05
T0
M30
