G04 #@! TF.FileFunction,Copper,L2,Bot,Signal*
%FSLAX46Y46*%
G04 Gerber Fmt 4.6, Leading zero omitted, Abs format (unit mm)*
G04 Created by KiCad (PCBNEW 4.0.7) date 09/12/18 20:21:31*
%MOMM*%
%LPD*%
G01*
G04 APERTURE LIST*
%ADD10C,0.100000*%
%ADD11R,1.700000X1.700000*%
%ADD12O,1.700000X1.700000*%
%ADD13C,1.500000*%
%ADD14C,3.000000*%
%ADD15R,3.500000X2.800000*%
%ADD16R,1.350000X1.350000*%
%ADD17O,1.350000X1.350000*%
%ADD18R,3.150000X1.000000*%
%ADD19C,0.800000*%
%ADD20C,1.700000*%
%ADD21C,0.600000*%
%ADD22C,0.500000*%
%ADD23C,0.250000*%
%ADD24C,1.000000*%
%ADD25C,0.254000*%
G04 APERTURE END LIST*
D10*
D11*
X119240000Y-127920000D03*
D12*
X119240000Y-130460000D03*
D13*
X141100000Y-104452400D03*
X141100000Y-106992400D03*
X141100000Y-109022400D03*
X141100000Y-111562400D03*
D14*
X143770000Y-101402400D03*
X143770000Y-115122400D03*
D15*
X150000000Y-98500000D03*
D16*
X150000000Y-92000000D03*
D17*
X150000000Y-94000000D03*
X150000000Y-96000000D03*
D15*
X150000000Y-89500000D03*
D18*
X107475000Y-90220000D03*
D19*
X106825000Y-90220000D03*
D18*
X112555000Y-90220000D03*
X107475000Y-92760000D03*
X112555000Y-92760000D03*
X107475000Y-95300000D03*
X112555000Y-95300000D03*
X107475000Y-97840000D03*
X112555000Y-97840000D03*
X107475000Y-100380000D03*
X112555000Y-100380000D03*
X107475000Y-102920000D03*
X112555000Y-102920000D03*
X107475000Y-105460000D03*
X112555000Y-105460000D03*
X107475000Y-108000000D03*
X112555000Y-108000000D03*
X107475000Y-110540000D03*
X112555000Y-110540000D03*
X107475000Y-113080000D03*
X112555000Y-113080000D03*
X107475000Y-115620000D03*
X112555000Y-115620000D03*
X107475000Y-118160000D03*
X112555000Y-118160000D03*
X107475000Y-120700000D03*
X112555000Y-120700000D03*
X107475000Y-123240000D03*
X112555000Y-123240000D03*
X107475000Y-125780000D03*
X112555000Y-125780000D03*
D19*
X106825000Y-92760000D03*
X106825000Y-95300000D03*
X106825000Y-97840000D03*
X106825000Y-100380000D03*
X106825000Y-102920000D03*
X106825000Y-105460000D03*
X106825000Y-108000000D03*
X106825000Y-110540000D03*
X106825000Y-113080000D03*
X106825000Y-115620000D03*
X106825000Y-118160000D03*
X106825000Y-120700000D03*
X106825000Y-123240000D03*
X106825000Y-125780000D03*
X113175000Y-90220000D03*
X113175000Y-92760000D03*
X113175000Y-95300000D03*
X113175000Y-97840000D03*
X113175000Y-100380000D03*
X113175000Y-102920000D03*
X113175000Y-105460000D03*
X113175000Y-108000000D03*
X113175000Y-110540000D03*
X113175000Y-113080000D03*
X113175000Y-115620000D03*
X113175000Y-118160000D03*
X113175000Y-120700000D03*
X113175000Y-123240000D03*
X113175000Y-125780000D03*
D20*
X108730000Y-90220000D03*
X111270000Y-90220000D03*
X108730000Y-92760000D03*
X111270000Y-92760000D03*
X108730000Y-95300000D03*
X111270000Y-95300000D03*
X108730000Y-97840000D03*
X111270000Y-97840000D03*
X108730000Y-100380000D03*
X111270000Y-100380000D03*
X108730000Y-102920000D03*
X111270000Y-102920000D03*
X108730000Y-105460000D03*
X111270000Y-105460000D03*
X108730000Y-108000000D03*
X111270000Y-108000000D03*
X108730000Y-110540000D03*
X111270000Y-110540000D03*
X108730000Y-113080000D03*
X111270000Y-113080000D03*
X108730000Y-115620000D03*
X111270000Y-115620000D03*
X108730000Y-118160000D03*
X111270000Y-118160000D03*
X108730000Y-120700000D03*
X111270000Y-120700000D03*
X108730000Y-123240000D03*
X111270000Y-123240000D03*
X108730000Y-125780000D03*
X111270000Y-125780000D03*
D21*
X150355000Y-120935000D03*
X141846000Y-121062000D03*
X141719000Y-130460000D03*
X119875000Y-100361000D03*
X123939000Y-100361000D03*
X119875000Y-94000000D03*
X129908000Y-100361000D03*
X135369000Y-88423000D03*
X135369000Y-94011000D03*
X129908000Y-94011000D03*
X123939000Y-94011000D03*
X130035000Y-88423000D03*
X123939000Y-88423000D03*
X116700000Y-88423000D03*
X116700000Y-94011000D03*
X136400000Y-109100000D03*
X135400000Y-98800000D03*
X135400000Y-104500000D03*
X131800000Y-108000000D03*
X138800000Y-117332000D03*
X126400000Y-109200000D03*
X117505002Y-102901000D03*
X116000000Y-99073000D03*
X120500000Y-110400000D03*
X124200000Y-109100000D03*
X124200000Y-112800000D03*
X117500000Y-108000000D03*
X118200000Y-110800000D03*
X118200000Y-112800000D03*
X138163000Y-97313000D03*
X136004000Y-117633000D03*
X139433000Y-98837000D03*
X137528000Y-117633000D03*
D22*
X119240000Y-130460000D02*
X141719000Y-130460000D01*
X141973000Y-120935000D02*
X150355000Y-120935000D01*
X141846000Y-121062000D02*
X141973000Y-120935000D01*
X123939000Y-100361000D02*
X119875000Y-100361000D01*
X129908000Y-94011000D02*
X135369000Y-94011000D01*
X119875000Y-94000000D02*
X123928000Y-94000000D01*
X123928000Y-94000000D02*
X123939000Y-94011000D01*
X119864000Y-94011000D02*
X119748000Y-94011000D01*
X119875000Y-94000000D02*
X119864000Y-94011000D01*
X116700000Y-94011000D02*
X119748000Y-94011000D01*
X116700000Y-88423000D02*
X123939000Y-88423000D01*
X116700000Y-88423000D02*
X116700000Y-94011000D01*
D23*
X107475000Y-95300000D02*
X109353000Y-95300000D01*
X116700000Y-95535000D02*
X116700000Y-94011000D01*
X115684000Y-96551000D02*
X116700000Y-95535000D01*
X110604000Y-96551000D02*
X115684000Y-96551000D01*
X109353000Y-95300000D02*
X110604000Y-96551000D01*
D24*
X107475000Y-92760000D02*
X107475000Y-95300000D01*
X107475000Y-90220000D02*
X107475000Y-92760000D01*
X117486002Y-102920000D02*
X112555000Y-102920000D01*
X117505002Y-102901000D02*
X117486002Y-102920000D01*
D23*
X116000000Y-99073000D02*
X110200000Y-99073000D01*
X109020000Y-100380000D02*
X110200000Y-99073000D01*
X109020000Y-100380000D02*
X107475000Y-100380000D01*
X109320000Y-102920000D02*
X107475000Y-102920000D01*
X109952400Y-103527000D02*
X109320000Y-102920000D01*
X109952400Y-108627000D02*
X109952400Y-103527000D01*
X110550800Y-109250800D02*
X109952400Y-108627000D01*
X119350800Y-109250800D02*
X110550800Y-109250800D01*
X120500000Y-110400000D02*
X119350800Y-109250800D01*
X124200000Y-109100000D02*
X124200000Y-112800000D01*
X117500000Y-108000000D02*
X112555000Y-108000000D01*
X118200000Y-110800000D02*
X118200000Y-112800000D01*
D24*
X138163000Y-114458000D02*
X138163000Y-97313000D01*
X136131000Y-116490000D02*
X138163000Y-114458000D01*
X136131000Y-117506000D02*
X136131000Y-116490000D01*
X136004000Y-117633000D02*
X136131000Y-117506000D01*
X137528000Y-116998000D02*
X139433000Y-115093000D01*
X139433000Y-115093000D02*
X139433000Y-98837000D01*
X137528000Y-117633000D02*
X137528000Y-116998000D01*
D25*
G36*
X143497954Y-83802046D02*
X143728295Y-83955954D01*
X144000000Y-84010000D01*
X149963500Y-84010000D01*
X149735628Y-84104155D01*
X149106364Y-84732321D01*
X148765389Y-85553481D01*
X148764613Y-86442619D01*
X149104155Y-87264372D01*
X149292015Y-87452560D01*
X148250000Y-87452560D01*
X148014683Y-87496838D01*
X147798559Y-87635910D01*
X147653569Y-87848110D01*
X147602560Y-88100000D01*
X147602560Y-90900000D01*
X147646838Y-91135317D01*
X147785910Y-91351441D01*
X147998110Y-91496431D01*
X148250000Y-91547440D01*
X148677560Y-91547440D01*
X148677560Y-92675000D01*
X148721838Y-92910317D01*
X148860910Y-93126441D01*
X148965177Y-93197683D01*
X148764054Y-93498685D01*
X148664336Y-94000000D01*
X148764054Y-94501315D01*
X149048026Y-94926310D01*
X149158311Y-95000000D01*
X149048026Y-95073690D01*
X148764054Y-95498685D01*
X148664336Y-96000000D01*
X148754356Y-96452560D01*
X148250000Y-96452560D01*
X148014683Y-96496838D01*
X147798559Y-96635910D01*
X147653569Y-96848110D01*
X147602560Y-97100000D01*
X147602560Y-99900000D01*
X147646838Y-100135317D01*
X147785910Y-100351441D01*
X147998110Y-100496431D01*
X148250000Y-100547440D01*
X151750000Y-100547440D01*
X151985317Y-100503162D01*
X152201441Y-100364090D01*
X152346431Y-100151890D01*
X152397440Y-99900000D01*
X152397440Y-97100000D01*
X152353162Y-96864683D01*
X152214090Y-96648559D01*
X152001890Y-96503569D01*
X151750000Y-96452560D01*
X151245644Y-96452560D01*
X151335664Y-96000000D01*
X151235946Y-95498685D01*
X150951974Y-95073690D01*
X150841689Y-95000000D01*
X150951974Y-94926310D01*
X151235946Y-94501315D01*
X151335664Y-94000000D01*
X151235946Y-93498685D01*
X151034992Y-93197936D01*
X151126441Y-93139090D01*
X151271431Y-92926890D01*
X151322440Y-92675000D01*
X151322440Y-91547440D01*
X151750000Y-91547440D01*
X151985317Y-91503162D01*
X152201441Y-91364090D01*
X152346431Y-91151890D01*
X152397440Y-90900000D01*
X152397440Y-88100000D01*
X152353162Y-87864683D01*
X152330644Y-87829689D01*
X152893636Y-87267679D01*
X152990000Y-87035608D01*
X152990000Y-90000000D01*
X153044046Y-90271705D01*
X153197954Y-90502046D01*
X153290000Y-90594092D01*
X153290000Y-99205908D01*
X152497954Y-99997954D01*
X152344046Y-100228295D01*
X152290000Y-100500000D01*
X152290000Y-115500000D01*
X152344046Y-115771705D01*
X152497954Y-116002046D01*
X153290000Y-116794092D01*
X153290000Y-125405908D01*
X153197954Y-125497954D01*
X153044046Y-125728295D01*
X152990000Y-126000000D01*
X152990000Y-128963500D01*
X152895845Y-128735628D01*
X152267679Y-128106364D01*
X151446519Y-127765389D01*
X150557381Y-127764613D01*
X149735628Y-128104155D01*
X149106364Y-128732321D01*
X148765389Y-129553481D01*
X148764613Y-130442619D01*
X149104155Y-131264372D01*
X149732321Y-131893636D01*
X149964392Y-131990000D01*
X144000000Y-131990000D01*
X143728295Y-132044046D01*
X143497954Y-132197954D01*
X143405908Y-132290000D01*
X114594092Y-132290000D01*
X114502046Y-132197954D01*
X114271705Y-132044046D01*
X114000000Y-131990000D01*
X108036500Y-131990000D01*
X108264372Y-131895845D01*
X108893636Y-131267679D01*
X109234611Y-130446519D01*
X109234700Y-130343599D01*
X109264699Y-130343599D01*
X109528281Y-130981515D01*
X110015918Y-131470004D01*
X110653373Y-131734699D01*
X111343599Y-131735301D01*
X111981515Y-131471719D01*
X112470004Y-130984082D01*
X112539428Y-130816890D01*
X117798524Y-130816890D01*
X117968355Y-131226924D01*
X118358642Y-131655183D01*
X118883108Y-131901486D01*
X119113000Y-131780819D01*
X119113000Y-130587000D01*
X119367000Y-130587000D01*
X119367000Y-131780819D01*
X119596892Y-131901486D01*
X120121358Y-131655183D01*
X120511645Y-131226924D01*
X120681476Y-130816890D01*
X120560155Y-130587000D01*
X119367000Y-130587000D01*
X119113000Y-130587000D01*
X117919845Y-130587000D01*
X117798524Y-130816890D01*
X112539428Y-130816890D01*
X112734699Y-130346627D01*
X112734701Y-130343599D01*
X145264699Y-130343599D01*
X145528281Y-130981515D01*
X146015918Y-131470004D01*
X146653373Y-131734699D01*
X147343599Y-131735301D01*
X147981515Y-131471719D01*
X148470004Y-130984082D01*
X148734699Y-130346627D01*
X148735301Y-129656401D01*
X148471719Y-129018485D01*
X147984082Y-128529996D01*
X147346627Y-128265301D01*
X146656401Y-128264699D01*
X146018485Y-128528281D01*
X145529996Y-129015918D01*
X145265301Y-129653373D01*
X145264699Y-130343599D01*
X112734701Y-130343599D01*
X112735301Y-129656401D01*
X112471719Y-129018485D01*
X111984082Y-128529996D01*
X111346627Y-128265301D01*
X110656401Y-128264699D01*
X110018485Y-128528281D01*
X109529996Y-129015918D01*
X109265301Y-129653373D01*
X109264699Y-130343599D01*
X109234700Y-130343599D01*
X109235387Y-129557381D01*
X108895845Y-128735628D01*
X108267679Y-128106364D01*
X107446519Y-127765389D01*
X106557381Y-127764613D01*
X105735628Y-128104155D01*
X105106364Y-128732321D01*
X105010000Y-128964392D01*
X105010000Y-126000000D01*
X104955954Y-125728295D01*
X104802046Y-125497954D01*
X104710000Y-125405908D01*
X104710000Y-97340000D01*
X105252560Y-97340000D01*
X105252560Y-98340000D01*
X105296838Y-98575317D01*
X105435910Y-98791441D01*
X105648110Y-98936431D01*
X105900000Y-98987440D01*
X107777162Y-98987440D01*
X107887717Y-99098188D01*
X107915557Y-99109748D01*
X107889914Y-99120344D01*
X107777502Y-99232560D01*
X105900000Y-99232560D01*
X105664683Y-99276838D01*
X105448559Y-99415910D01*
X105303569Y-99628110D01*
X105252560Y-99880000D01*
X105252560Y-100880000D01*
X105296838Y-101115317D01*
X105435910Y-101331441D01*
X105648110Y-101476431D01*
X105900000Y-101527440D01*
X107777162Y-101527440D01*
X107887717Y-101638188D01*
X107915557Y-101649748D01*
X107889914Y-101660344D01*
X107777502Y-101772560D01*
X105900000Y-101772560D01*
X105664683Y-101816838D01*
X105448559Y-101955910D01*
X105303569Y-102168110D01*
X105252560Y-102420000D01*
X105252560Y-103420000D01*
X105296838Y-103655317D01*
X105435910Y-103871441D01*
X105648110Y-104016431D01*
X105900000Y-104067440D01*
X107777162Y-104067440D01*
X107887717Y-104178188D01*
X107915557Y-104189748D01*
X107889914Y-104200344D01*
X107777502Y-104312560D01*
X105900000Y-104312560D01*
X105664683Y-104356838D01*
X105448559Y-104495910D01*
X105303569Y-104708110D01*
X105252560Y-104960000D01*
X105252560Y-105960000D01*
X105296838Y-106195317D01*
X105435910Y-106411441D01*
X105648110Y-106556431D01*
X105900000Y-106607440D01*
X107777162Y-106607440D01*
X107887717Y-106718188D01*
X107915557Y-106729748D01*
X107889914Y-106740344D01*
X107777502Y-106852560D01*
X105900000Y-106852560D01*
X105664683Y-106896838D01*
X105448559Y-107035910D01*
X105303569Y-107248110D01*
X105252560Y-107500000D01*
X105252560Y-108500000D01*
X105296838Y-108735317D01*
X105435910Y-108951441D01*
X105648110Y-109096431D01*
X105900000Y-109147440D01*
X107777162Y-109147440D01*
X107887717Y-109258188D01*
X107915557Y-109269748D01*
X107889914Y-109280344D01*
X107777502Y-109392560D01*
X105900000Y-109392560D01*
X105664683Y-109436838D01*
X105448559Y-109575910D01*
X105303569Y-109788110D01*
X105252560Y-110040000D01*
X105252560Y-111040000D01*
X105296838Y-111275317D01*
X105435910Y-111491441D01*
X105648110Y-111636431D01*
X105900000Y-111687440D01*
X107777162Y-111687440D01*
X107887717Y-111798188D01*
X107915557Y-111809748D01*
X107889914Y-111820344D01*
X107777502Y-111932560D01*
X105900000Y-111932560D01*
X105664683Y-111976838D01*
X105448559Y-112115910D01*
X105303569Y-112328110D01*
X105252560Y-112580000D01*
X105252560Y-113580000D01*
X105296838Y-113815317D01*
X105435910Y-114031441D01*
X105648110Y-114176431D01*
X105900000Y-114227440D01*
X107777162Y-114227440D01*
X107887717Y-114338188D01*
X107915557Y-114349748D01*
X107889914Y-114360344D01*
X107777502Y-114472560D01*
X105900000Y-114472560D01*
X105664683Y-114516838D01*
X105448559Y-114655910D01*
X105303569Y-114868110D01*
X105252560Y-115120000D01*
X105252560Y-116120000D01*
X105296838Y-116355317D01*
X105435910Y-116571441D01*
X105648110Y-116716431D01*
X105900000Y-116767440D01*
X107777162Y-116767440D01*
X107887717Y-116878188D01*
X107915557Y-116889748D01*
X107889914Y-116900344D01*
X107777502Y-117012560D01*
X105900000Y-117012560D01*
X105664683Y-117056838D01*
X105448559Y-117195910D01*
X105303569Y-117408110D01*
X105252560Y-117660000D01*
X105252560Y-118660000D01*
X105296838Y-118895317D01*
X105435910Y-119111441D01*
X105648110Y-119256431D01*
X105900000Y-119307440D01*
X107777162Y-119307440D01*
X107887717Y-119418188D01*
X107915557Y-119429748D01*
X107889914Y-119440344D01*
X107777502Y-119552560D01*
X105900000Y-119552560D01*
X105664683Y-119596838D01*
X105448559Y-119735910D01*
X105303569Y-119948110D01*
X105252560Y-120200000D01*
X105252560Y-121200000D01*
X105296838Y-121435317D01*
X105435910Y-121651441D01*
X105648110Y-121796431D01*
X105900000Y-121847440D01*
X107777162Y-121847440D01*
X107887717Y-121958188D01*
X107915557Y-121969748D01*
X107889914Y-121980344D01*
X107777502Y-122092560D01*
X105900000Y-122092560D01*
X105664683Y-122136838D01*
X105448559Y-122275910D01*
X105303569Y-122488110D01*
X105252560Y-122740000D01*
X105252560Y-123740000D01*
X105296838Y-123975317D01*
X105435910Y-124191441D01*
X105648110Y-124336431D01*
X105900000Y-124387440D01*
X107777162Y-124387440D01*
X107887717Y-124498188D01*
X107915557Y-124509748D01*
X107889914Y-124520344D01*
X107777502Y-124632560D01*
X105900000Y-124632560D01*
X105664683Y-124676838D01*
X105448559Y-124815910D01*
X105303569Y-125028110D01*
X105252560Y-125280000D01*
X105252560Y-126280000D01*
X105296838Y-126515317D01*
X105435910Y-126731441D01*
X105648110Y-126876431D01*
X105900000Y-126927440D01*
X107777162Y-126927440D01*
X107887717Y-127038188D01*
X108433319Y-127264742D01*
X109024089Y-127265257D01*
X109570086Y-127039656D01*
X109988188Y-126622283D01*
X109999748Y-126594443D01*
X110010344Y-126620086D01*
X110427717Y-127038188D01*
X110973319Y-127264742D01*
X111564089Y-127265257D01*
X112036647Y-127070000D01*
X117742560Y-127070000D01*
X117742560Y-128770000D01*
X117786838Y-129005317D01*
X117925910Y-129221441D01*
X118138110Y-129366431D01*
X118246107Y-129388301D01*
X117968355Y-129693076D01*
X117798524Y-130103110D01*
X117919845Y-130333000D01*
X119113000Y-130333000D01*
X119113000Y-130313000D01*
X119367000Y-130313000D01*
X119367000Y-130333000D01*
X120560155Y-130333000D01*
X120681476Y-130103110D01*
X120511645Y-129693076D01*
X120235499Y-129390063D01*
X120325317Y-129373162D01*
X120541441Y-129234090D01*
X120686431Y-129021890D01*
X120737440Y-128770000D01*
X120737440Y-127070000D01*
X120693162Y-126834683D01*
X120554090Y-126618559D01*
X120341890Y-126473569D01*
X120090000Y-126422560D01*
X118390000Y-126422560D01*
X118154683Y-126466838D01*
X117938559Y-126605910D01*
X117793569Y-126818110D01*
X117742560Y-127070000D01*
X112036647Y-127070000D01*
X112110086Y-127039656D01*
X112222498Y-126927440D01*
X114130000Y-126927440D01*
X114365317Y-126883162D01*
X114581441Y-126744090D01*
X114726431Y-126531890D01*
X114777440Y-126280000D01*
X114777440Y-125280000D01*
X114733162Y-125044683D01*
X114594090Y-124828559D01*
X114381890Y-124683569D01*
X114130000Y-124632560D01*
X112222838Y-124632560D01*
X112112283Y-124521812D01*
X112084443Y-124510252D01*
X112110086Y-124499656D01*
X112222498Y-124387440D01*
X114130000Y-124387440D01*
X114365317Y-124343162D01*
X114581441Y-124204090D01*
X114726431Y-123991890D01*
X114777440Y-123740000D01*
X114777440Y-122740000D01*
X114733162Y-122504683D01*
X114594090Y-122288559D01*
X114381890Y-122143569D01*
X114130000Y-122092560D01*
X112222838Y-122092560D01*
X112112283Y-121981812D01*
X112084443Y-121970252D01*
X112110086Y-121959656D01*
X112222498Y-121847440D01*
X114130000Y-121847440D01*
X114365317Y-121803162D01*
X114581441Y-121664090D01*
X114726431Y-121451890D01*
X114777440Y-121200000D01*
X114777440Y-120200000D01*
X114733162Y-119964683D01*
X114594090Y-119748559D01*
X114381890Y-119603569D01*
X114130000Y-119552560D01*
X112222838Y-119552560D01*
X112112283Y-119441812D01*
X112084443Y-119430252D01*
X112110086Y-119419656D01*
X112222498Y-119307440D01*
X114130000Y-119307440D01*
X114365317Y-119263162D01*
X114581441Y-119124090D01*
X114726431Y-118911890D01*
X114777440Y-118660000D01*
X114777440Y-117660000D01*
X114772360Y-117633000D01*
X134869000Y-117633000D01*
X134955397Y-118067345D01*
X135201434Y-118435566D01*
X135569655Y-118681603D01*
X136004000Y-118768000D01*
X136438345Y-118681603D01*
X136766000Y-118462671D01*
X137093654Y-118681603D01*
X137528000Y-118768000D01*
X137962346Y-118681603D01*
X138330566Y-118435566D01*
X138576603Y-118067346D01*
X138663000Y-117633000D01*
X138663000Y-117468132D01*
X139494762Y-116636370D01*
X142435635Y-116636370D01*
X142595418Y-116955139D01*
X143386187Y-117265123D01*
X144235387Y-117248897D01*
X144944582Y-116955139D01*
X145104365Y-116636370D01*
X143770000Y-115302005D01*
X142435635Y-116636370D01*
X139494762Y-116636370D01*
X140235566Y-115895566D01*
X140318327Y-115771705D01*
X140481603Y-115527346D01*
X140568000Y-115093000D01*
X140568000Y-114738587D01*
X141627277Y-114738587D01*
X141643503Y-115587787D01*
X141937261Y-116296982D01*
X142256030Y-116456765D01*
X143590395Y-115122400D01*
X143949605Y-115122400D01*
X145283970Y-116456765D01*
X145602739Y-116296982D01*
X145912723Y-115506213D01*
X145896497Y-114657013D01*
X145602739Y-113947818D01*
X145283970Y-113788035D01*
X143949605Y-115122400D01*
X143590395Y-115122400D01*
X142256030Y-113788035D01*
X141937261Y-113947818D01*
X141627277Y-114738587D01*
X140568000Y-114738587D01*
X140568000Y-113608430D01*
X142435635Y-113608430D01*
X143770000Y-114942795D01*
X145104365Y-113608430D01*
X144944582Y-113289661D01*
X144153813Y-112979677D01*
X143304613Y-112995903D01*
X142595418Y-113289661D01*
X142435635Y-113608430D01*
X140568000Y-113608430D01*
X140568000Y-112841150D01*
X140823298Y-112947159D01*
X141374285Y-112947640D01*
X141883515Y-112737231D01*
X142273461Y-112347964D01*
X142484759Y-111839102D01*
X142485240Y-111288115D01*
X142274831Y-110778885D01*
X141885564Y-110388939D01*
X141653130Y-110292424D01*
X141883515Y-110197231D01*
X142273461Y-109807964D01*
X142484759Y-109299102D01*
X142485240Y-108748115D01*
X142274831Y-108238885D01*
X142043687Y-108007338D01*
X142273461Y-107777964D01*
X142484759Y-107269102D01*
X142485240Y-106718115D01*
X142274831Y-106208885D01*
X141885564Y-105818939D01*
X141669021Y-105729023D01*
X141823923Y-105664860D01*
X141891912Y-105423917D01*
X141100000Y-104632005D01*
X141085858Y-104646148D01*
X140906253Y-104466543D01*
X140920395Y-104452400D01*
X141279605Y-104452400D01*
X142071517Y-105244312D01*
X142312460Y-105176323D01*
X142497201Y-104657229D01*
X142469230Y-104106952D01*
X142312460Y-103728477D01*
X142071517Y-103660488D01*
X141279605Y-104452400D01*
X140920395Y-104452400D01*
X140906253Y-104438258D01*
X141085858Y-104258653D01*
X141100000Y-104272795D01*
X141891912Y-103480883D01*
X141823923Y-103239940D01*
X141304829Y-103055199D01*
X140754552Y-103083170D01*
X140568000Y-103160443D01*
X140568000Y-102916370D01*
X142435635Y-102916370D01*
X142595418Y-103235139D01*
X143386187Y-103545123D01*
X144235387Y-103528897D01*
X144944582Y-103235139D01*
X145104365Y-102916370D01*
X143770000Y-101582005D01*
X142435635Y-102916370D01*
X140568000Y-102916370D01*
X140568000Y-101018587D01*
X141627277Y-101018587D01*
X141643503Y-101867787D01*
X141937261Y-102576982D01*
X142256030Y-102736765D01*
X143590395Y-101402400D01*
X143949605Y-101402400D01*
X145283970Y-102736765D01*
X145602739Y-102576982D01*
X145912723Y-101786213D01*
X145896497Y-100937013D01*
X145602739Y-100227818D01*
X145283970Y-100068035D01*
X143949605Y-101402400D01*
X143590395Y-101402400D01*
X142256030Y-100068035D01*
X141937261Y-100227818D01*
X141627277Y-101018587D01*
X140568000Y-101018587D01*
X140568000Y-99888430D01*
X142435635Y-99888430D01*
X143770000Y-101222795D01*
X145104365Y-99888430D01*
X144944582Y-99569661D01*
X144153813Y-99259677D01*
X143304613Y-99275903D01*
X142595418Y-99569661D01*
X142435635Y-99888430D01*
X140568000Y-99888430D01*
X140568000Y-98837000D01*
X140481603Y-98402654D01*
X140235566Y-98034434D01*
X139867346Y-97788397D01*
X139433000Y-97702000D01*
X139298000Y-97728853D01*
X139298000Y-97313000D01*
X139211603Y-96878654D01*
X138965566Y-96510434D01*
X138597346Y-96264397D01*
X138163000Y-96178000D01*
X137728654Y-96264397D01*
X137360434Y-96510434D01*
X137114397Y-96878654D01*
X137028000Y-97313000D01*
X137028000Y-113987868D01*
X135328434Y-115687434D01*
X135082397Y-116055654D01*
X134996000Y-116490000D01*
X134996000Y-117137888D01*
X134955397Y-117198655D01*
X134869000Y-117633000D01*
X114772360Y-117633000D01*
X114733162Y-117424683D01*
X114594090Y-117208559D01*
X114381890Y-117063569D01*
X114130000Y-117012560D01*
X112222838Y-117012560D01*
X112112283Y-116901812D01*
X112084443Y-116890252D01*
X112110086Y-116879656D01*
X112222498Y-116767440D01*
X114130000Y-116767440D01*
X114365317Y-116723162D01*
X114581441Y-116584090D01*
X114726431Y-116371890D01*
X114777440Y-116120000D01*
X114777440Y-115120000D01*
X114733162Y-114884683D01*
X114594090Y-114668559D01*
X114381890Y-114523569D01*
X114130000Y-114472560D01*
X112222838Y-114472560D01*
X112112283Y-114361812D01*
X112084443Y-114350252D01*
X112110086Y-114339656D01*
X112222498Y-114227440D01*
X114130000Y-114227440D01*
X114365317Y-114183162D01*
X114581441Y-114044090D01*
X114726431Y-113831890D01*
X114777440Y-113580000D01*
X114777440Y-112580000D01*
X114733162Y-112344683D01*
X114594090Y-112128559D01*
X114381890Y-111983569D01*
X114130000Y-111932560D01*
X112222838Y-111932560D01*
X112112283Y-111821812D01*
X112084443Y-111810252D01*
X112110086Y-111799656D01*
X112222498Y-111687440D01*
X114130000Y-111687440D01*
X114365317Y-111643162D01*
X114581441Y-111504090D01*
X114726431Y-111291890D01*
X114777440Y-111040000D01*
X114777440Y-110040000D01*
X114771946Y-110010800D01*
X117667133Y-110010800D01*
X117407808Y-110269673D01*
X117265162Y-110613201D01*
X117264838Y-110985167D01*
X117406883Y-111328943D01*
X117440000Y-111362118D01*
X117440000Y-112237537D01*
X117407808Y-112269673D01*
X117265162Y-112613201D01*
X117264838Y-112985167D01*
X117406883Y-113328943D01*
X117669673Y-113592192D01*
X118013201Y-113734838D01*
X118385167Y-113735162D01*
X118728943Y-113593117D01*
X118992192Y-113330327D01*
X119134838Y-112986799D01*
X119135162Y-112614833D01*
X118993117Y-112271057D01*
X118960000Y-112237882D01*
X118960000Y-111362463D01*
X118992192Y-111330327D01*
X119134838Y-110986799D01*
X119135162Y-110614833D01*
X118993117Y-110271057D01*
X118733314Y-110010800D01*
X119035998Y-110010800D01*
X119564878Y-110539680D01*
X119564838Y-110585167D01*
X119706883Y-110928943D01*
X119969673Y-111192192D01*
X120313201Y-111334838D01*
X120685167Y-111335162D01*
X121028943Y-111193117D01*
X121292192Y-110930327D01*
X121434838Y-110586799D01*
X121435162Y-110214833D01*
X121293117Y-109871057D01*
X121030327Y-109607808D01*
X120686799Y-109465162D01*
X120639923Y-109465121D01*
X120459969Y-109285167D01*
X123264838Y-109285167D01*
X123406883Y-109628943D01*
X123440000Y-109662118D01*
X123440000Y-112237537D01*
X123407808Y-112269673D01*
X123265162Y-112613201D01*
X123264838Y-112985167D01*
X123406883Y-113328943D01*
X123669673Y-113592192D01*
X124013201Y-113734838D01*
X124385167Y-113735162D01*
X124728943Y-113593117D01*
X124992192Y-113330327D01*
X125134838Y-112986799D01*
X125135162Y-112614833D01*
X124993117Y-112271057D01*
X124960000Y-112237882D01*
X124960000Y-109662463D01*
X124992192Y-109630327D01*
X125134838Y-109286799D01*
X125135162Y-108914833D01*
X124993117Y-108571057D01*
X124730327Y-108307808D01*
X124386799Y-108165162D01*
X124014833Y-108164838D01*
X123671057Y-108306883D01*
X123407808Y-108569673D01*
X123265162Y-108913201D01*
X123264838Y-109285167D01*
X120459969Y-109285167D01*
X119888201Y-108713399D01*
X119641639Y-108548652D01*
X119350800Y-108490800D01*
X118308605Y-108490800D01*
X118434838Y-108186799D01*
X118435162Y-107814833D01*
X118293117Y-107471057D01*
X118030327Y-107207808D01*
X117686799Y-107065162D01*
X117314833Y-107064838D01*
X116971057Y-107206883D01*
X116937882Y-107240000D01*
X114717279Y-107240000D01*
X114594090Y-107048559D01*
X114381890Y-106903569D01*
X114130000Y-106852560D01*
X112222838Y-106852560D01*
X112112283Y-106741812D01*
X112084443Y-106730252D01*
X112110086Y-106719656D01*
X112222498Y-106607440D01*
X114130000Y-106607440D01*
X114365317Y-106563162D01*
X114581441Y-106424090D01*
X114726431Y-106211890D01*
X114777440Y-105960000D01*
X114777440Y-104960000D01*
X114733162Y-104724683D01*
X114594090Y-104508559D01*
X114381890Y-104363569D01*
X114130000Y-104312560D01*
X112222838Y-104312560D01*
X112112283Y-104201812D01*
X112084443Y-104190252D01*
X112110086Y-104179656D01*
X112222498Y-104067440D01*
X114130000Y-104067440D01*
X114196113Y-104055000D01*
X117486002Y-104055000D01*
X117920348Y-103968603D01*
X118288568Y-103722566D01*
X118307568Y-103703566D01*
X118553605Y-103335345D01*
X118640002Y-102901000D01*
X118553605Y-102466655D01*
X118307568Y-102098434D01*
X117939347Y-101852397D01*
X117505002Y-101766000D01*
X117409483Y-101785000D01*
X114191431Y-101785000D01*
X114130000Y-101772560D01*
X112222838Y-101772560D01*
X112112283Y-101661812D01*
X112084443Y-101650252D01*
X112110086Y-101639656D01*
X112222498Y-101527440D01*
X114130000Y-101527440D01*
X114365317Y-101483162D01*
X114581441Y-101344090D01*
X114726431Y-101131890D01*
X114777440Y-100880000D01*
X114777440Y-99880000D01*
X114768596Y-99833000D01*
X115437537Y-99833000D01*
X115469673Y-99865192D01*
X115813201Y-100007838D01*
X116185167Y-100008162D01*
X116528943Y-99866117D01*
X116792192Y-99603327D01*
X116934838Y-99259799D01*
X116935162Y-98887833D01*
X116793117Y-98544057D01*
X116530327Y-98280808D01*
X116186799Y-98138162D01*
X115814833Y-98137838D01*
X115471057Y-98279883D01*
X115437882Y-98313000D01*
X114777440Y-98313000D01*
X114777440Y-97340000D01*
X114733162Y-97104683D01*
X114594090Y-96888559D01*
X114381890Y-96743569D01*
X114130000Y-96692560D01*
X112222838Y-96692560D01*
X112112283Y-96581812D01*
X112084443Y-96570252D01*
X112110086Y-96559656D01*
X112222498Y-96447440D01*
X114130000Y-96447440D01*
X114365317Y-96403162D01*
X114581441Y-96264090D01*
X114726431Y-96051890D01*
X114777440Y-95800000D01*
X114777440Y-94800000D01*
X114733162Y-94564683D01*
X114594090Y-94348559D01*
X114381890Y-94203569D01*
X114130000Y-94152560D01*
X112222838Y-94152560D01*
X112112283Y-94041812D01*
X112084443Y-94030252D01*
X112110086Y-94019656D01*
X112222498Y-93907440D01*
X114130000Y-93907440D01*
X114365317Y-93863162D01*
X114581441Y-93724090D01*
X114726431Y-93511890D01*
X114777440Y-93260000D01*
X114777440Y-92260000D01*
X114733162Y-92024683D01*
X114594090Y-91808559D01*
X114381890Y-91663569D01*
X114130000Y-91612560D01*
X112222838Y-91612560D01*
X112112283Y-91501812D01*
X112084443Y-91490252D01*
X112110086Y-91479656D01*
X112222498Y-91367440D01*
X114130000Y-91367440D01*
X114365317Y-91323162D01*
X114581441Y-91184090D01*
X114726431Y-90971890D01*
X114777440Y-90720000D01*
X114777440Y-89720000D01*
X114733162Y-89484683D01*
X114594090Y-89268559D01*
X114381890Y-89123569D01*
X114130000Y-89072560D01*
X112222838Y-89072560D01*
X112112283Y-88961812D01*
X111566681Y-88735258D01*
X110975911Y-88734743D01*
X110429914Y-88960344D01*
X110011812Y-89377717D01*
X109992049Y-89425312D01*
X109773958Y-89355647D01*
X109641334Y-89488271D01*
X109588327Y-89360301D01*
X109499210Y-89271185D01*
X109594353Y-89176042D01*
X109514080Y-88924741D01*
X108958721Y-88723282D01*
X108368542Y-88749685D01*
X107945920Y-88924741D01*
X107894729Y-89085000D01*
X107760750Y-89085000D01*
X107602000Y-89243750D01*
X107602000Y-89382493D01*
X107506778Y-89412910D01*
X107479630Y-89385762D01*
X107362745Y-89502647D01*
X107348000Y-89380483D01*
X107348000Y-89243750D01*
X107189250Y-89085000D01*
X105773691Y-89085000D01*
X105540302Y-89181673D01*
X105361673Y-89360301D01*
X105265000Y-89593690D01*
X105265000Y-89934250D01*
X105423750Y-90093000D01*
X105778600Y-90093000D01*
X105776691Y-90098931D01*
X105796921Y-90347000D01*
X105423750Y-90347000D01*
X105265000Y-90505750D01*
X105265000Y-90846310D01*
X105361673Y-91079699D01*
X105540302Y-91258327D01*
X105773691Y-91355000D01*
X107189250Y-91355000D01*
X107348000Y-91196250D01*
X107348000Y-91059517D01*
X107362745Y-90937353D01*
X107479630Y-91054238D01*
X107506778Y-91027090D01*
X107602000Y-91057507D01*
X107602000Y-91196250D01*
X107760750Y-91355000D01*
X107894729Y-91355000D01*
X107937852Y-91490000D01*
X107894729Y-91625000D01*
X107760750Y-91625000D01*
X107602000Y-91783750D01*
X107602000Y-91922493D01*
X107506778Y-91952910D01*
X107479630Y-91925762D01*
X107362745Y-92042647D01*
X107348000Y-91920483D01*
X107348000Y-91783750D01*
X107189250Y-91625000D01*
X105773691Y-91625000D01*
X105540302Y-91721673D01*
X105361673Y-91900301D01*
X105265000Y-92133690D01*
X105265000Y-92474250D01*
X105423750Y-92633000D01*
X105778600Y-92633000D01*
X105776691Y-92638931D01*
X105796921Y-92887000D01*
X105423750Y-92887000D01*
X105265000Y-93045750D01*
X105265000Y-93386310D01*
X105361673Y-93619699D01*
X105540302Y-93798327D01*
X105773691Y-93895000D01*
X107189250Y-93895000D01*
X107348000Y-93736250D01*
X107348000Y-93599517D01*
X107362745Y-93477353D01*
X107479630Y-93594238D01*
X107506778Y-93567090D01*
X107602000Y-93597507D01*
X107602000Y-93736250D01*
X107760750Y-93895000D01*
X107894729Y-93895000D01*
X107937852Y-94030000D01*
X107894729Y-94165000D01*
X107760750Y-94165000D01*
X107602000Y-94323750D01*
X107602000Y-94462493D01*
X107506778Y-94492910D01*
X107479630Y-94465762D01*
X107362745Y-94582647D01*
X107348000Y-94460483D01*
X107348000Y-94323750D01*
X107189250Y-94165000D01*
X105773691Y-94165000D01*
X105540302Y-94261673D01*
X105361673Y-94440301D01*
X105265000Y-94673690D01*
X105265000Y-95014250D01*
X105423750Y-95173000D01*
X105778600Y-95173000D01*
X105776691Y-95178931D01*
X105796921Y-95427000D01*
X105423750Y-95427000D01*
X105265000Y-95585750D01*
X105265000Y-95926310D01*
X105361673Y-96159699D01*
X105540302Y-96338327D01*
X105773691Y-96435000D01*
X107189250Y-96435000D01*
X107348000Y-96276250D01*
X107348000Y-96139517D01*
X107362745Y-96017353D01*
X107479630Y-96134238D01*
X107506778Y-96107090D01*
X107602000Y-96137507D01*
X107602000Y-96276250D01*
X107760750Y-96435000D01*
X107894729Y-96435000D01*
X107935181Y-96561640D01*
X107889914Y-96580344D01*
X107777502Y-96692560D01*
X105900000Y-96692560D01*
X105664683Y-96736838D01*
X105448559Y-96875910D01*
X105303569Y-97088110D01*
X105252560Y-97340000D01*
X104710000Y-97340000D01*
X104710000Y-90594092D01*
X104802046Y-90502046D01*
X104955954Y-90271705D01*
X105010000Y-90000000D01*
X105010000Y-87036500D01*
X105104155Y-87264372D01*
X105732321Y-87893636D01*
X106553481Y-88234611D01*
X107442619Y-88235387D01*
X108264372Y-87895845D01*
X108893636Y-87267679D01*
X109234611Y-86446519D01*
X109235387Y-85557381D01*
X108895845Y-84735628D01*
X108267679Y-84106364D01*
X108035608Y-84010000D01*
X111790000Y-84010000D01*
X111790000Y-84449406D01*
X111346627Y-84265301D01*
X110656401Y-84264699D01*
X110018485Y-84528281D01*
X109529996Y-85015918D01*
X109265301Y-85653373D01*
X109264699Y-86343599D01*
X109528281Y-86981515D01*
X110015918Y-87470004D01*
X110653373Y-87734699D01*
X111343599Y-87735301D01*
X111981515Y-87471719D01*
X112470004Y-86984082D01*
X112734699Y-86346627D01*
X112734701Y-86343599D01*
X145264699Y-86343599D01*
X145528281Y-86981515D01*
X146015918Y-87470004D01*
X146653373Y-87734699D01*
X147343599Y-87735301D01*
X147981515Y-87471719D01*
X148470004Y-86984082D01*
X148734699Y-86346627D01*
X148735301Y-85656401D01*
X148471719Y-85018485D01*
X147984082Y-84529996D01*
X147346627Y-84265301D01*
X146656401Y-84264699D01*
X146018485Y-84528281D01*
X145529996Y-85015918D01*
X145265301Y-85653373D01*
X145264699Y-86343599D01*
X112734701Y-86343599D01*
X112734864Y-86157261D01*
X113000000Y-86210000D01*
X116000000Y-86210000D01*
X116271705Y-86155954D01*
X116502046Y-86002046D01*
X117002046Y-85502046D01*
X117155954Y-85271705D01*
X117210000Y-85000000D01*
X117210000Y-83794092D01*
X117294092Y-83710000D01*
X143405908Y-83710000D01*
X143497954Y-83802046D01*
X143497954Y-83802046D01*
G37*
X143497954Y-83802046D02*
X143728295Y-83955954D01*
X144000000Y-84010000D01*
X149963500Y-84010000D01*
X149735628Y-84104155D01*
X149106364Y-84732321D01*
X148765389Y-85553481D01*
X148764613Y-86442619D01*
X149104155Y-87264372D01*
X149292015Y-87452560D01*
X148250000Y-87452560D01*
X148014683Y-87496838D01*
X147798559Y-87635910D01*
X147653569Y-87848110D01*
X147602560Y-88100000D01*
X147602560Y-90900000D01*
X147646838Y-91135317D01*
X147785910Y-91351441D01*
X147998110Y-91496431D01*
X148250000Y-91547440D01*
X148677560Y-91547440D01*
X148677560Y-92675000D01*
X148721838Y-92910317D01*
X148860910Y-93126441D01*
X148965177Y-93197683D01*
X148764054Y-93498685D01*
X148664336Y-94000000D01*
X148764054Y-94501315D01*
X149048026Y-94926310D01*
X149158311Y-95000000D01*
X149048026Y-95073690D01*
X148764054Y-95498685D01*
X148664336Y-96000000D01*
X148754356Y-96452560D01*
X148250000Y-96452560D01*
X148014683Y-96496838D01*
X147798559Y-96635910D01*
X147653569Y-96848110D01*
X147602560Y-97100000D01*
X147602560Y-99900000D01*
X147646838Y-100135317D01*
X147785910Y-100351441D01*
X147998110Y-100496431D01*
X148250000Y-100547440D01*
X151750000Y-100547440D01*
X151985317Y-100503162D01*
X152201441Y-100364090D01*
X152346431Y-100151890D01*
X152397440Y-99900000D01*
X152397440Y-97100000D01*
X152353162Y-96864683D01*
X152214090Y-96648559D01*
X152001890Y-96503569D01*
X151750000Y-96452560D01*
X151245644Y-96452560D01*
X151335664Y-96000000D01*
X151235946Y-95498685D01*
X150951974Y-95073690D01*
X150841689Y-95000000D01*
X150951974Y-94926310D01*
X151235946Y-94501315D01*
X151335664Y-94000000D01*
X151235946Y-93498685D01*
X151034992Y-93197936D01*
X151126441Y-93139090D01*
X151271431Y-92926890D01*
X151322440Y-92675000D01*
X151322440Y-91547440D01*
X151750000Y-91547440D01*
X151985317Y-91503162D01*
X152201441Y-91364090D01*
X152346431Y-91151890D01*
X152397440Y-90900000D01*
X152397440Y-88100000D01*
X152353162Y-87864683D01*
X152330644Y-87829689D01*
X152893636Y-87267679D01*
X152990000Y-87035608D01*
X152990000Y-90000000D01*
X153044046Y-90271705D01*
X153197954Y-90502046D01*
X153290000Y-90594092D01*
X153290000Y-99205908D01*
X152497954Y-99997954D01*
X152344046Y-100228295D01*
X152290000Y-100500000D01*
X152290000Y-115500000D01*
X152344046Y-115771705D01*
X152497954Y-116002046D01*
X153290000Y-116794092D01*
X153290000Y-125405908D01*
X153197954Y-125497954D01*
X153044046Y-125728295D01*
X152990000Y-126000000D01*
X152990000Y-128963500D01*
X152895845Y-128735628D01*
X152267679Y-128106364D01*
X151446519Y-127765389D01*
X150557381Y-127764613D01*
X149735628Y-128104155D01*
X149106364Y-128732321D01*
X148765389Y-129553481D01*
X148764613Y-130442619D01*
X149104155Y-131264372D01*
X149732321Y-131893636D01*
X149964392Y-131990000D01*
X144000000Y-131990000D01*
X143728295Y-132044046D01*
X143497954Y-132197954D01*
X143405908Y-132290000D01*
X114594092Y-132290000D01*
X114502046Y-132197954D01*
X114271705Y-132044046D01*
X114000000Y-131990000D01*
X108036500Y-131990000D01*
X108264372Y-131895845D01*
X108893636Y-131267679D01*
X109234611Y-130446519D01*
X109234700Y-130343599D01*
X109264699Y-130343599D01*
X109528281Y-130981515D01*
X110015918Y-131470004D01*
X110653373Y-131734699D01*
X111343599Y-131735301D01*
X111981515Y-131471719D01*
X112470004Y-130984082D01*
X112539428Y-130816890D01*
X117798524Y-130816890D01*
X117968355Y-131226924D01*
X118358642Y-131655183D01*
X118883108Y-131901486D01*
X119113000Y-131780819D01*
X119113000Y-130587000D01*
X119367000Y-130587000D01*
X119367000Y-131780819D01*
X119596892Y-131901486D01*
X120121358Y-131655183D01*
X120511645Y-131226924D01*
X120681476Y-130816890D01*
X120560155Y-130587000D01*
X119367000Y-130587000D01*
X119113000Y-130587000D01*
X117919845Y-130587000D01*
X117798524Y-130816890D01*
X112539428Y-130816890D01*
X112734699Y-130346627D01*
X112734701Y-130343599D01*
X145264699Y-130343599D01*
X145528281Y-130981515D01*
X146015918Y-131470004D01*
X146653373Y-131734699D01*
X147343599Y-131735301D01*
X147981515Y-131471719D01*
X148470004Y-130984082D01*
X148734699Y-130346627D01*
X148735301Y-129656401D01*
X148471719Y-129018485D01*
X147984082Y-128529996D01*
X147346627Y-128265301D01*
X146656401Y-128264699D01*
X146018485Y-128528281D01*
X145529996Y-129015918D01*
X145265301Y-129653373D01*
X145264699Y-130343599D01*
X112734701Y-130343599D01*
X112735301Y-129656401D01*
X112471719Y-129018485D01*
X111984082Y-128529996D01*
X111346627Y-128265301D01*
X110656401Y-128264699D01*
X110018485Y-128528281D01*
X109529996Y-129015918D01*
X109265301Y-129653373D01*
X109264699Y-130343599D01*
X109234700Y-130343599D01*
X109235387Y-129557381D01*
X108895845Y-128735628D01*
X108267679Y-128106364D01*
X107446519Y-127765389D01*
X106557381Y-127764613D01*
X105735628Y-128104155D01*
X105106364Y-128732321D01*
X105010000Y-128964392D01*
X105010000Y-126000000D01*
X104955954Y-125728295D01*
X104802046Y-125497954D01*
X104710000Y-125405908D01*
X104710000Y-97340000D01*
X105252560Y-97340000D01*
X105252560Y-98340000D01*
X105296838Y-98575317D01*
X105435910Y-98791441D01*
X105648110Y-98936431D01*
X105900000Y-98987440D01*
X107777162Y-98987440D01*
X107887717Y-99098188D01*
X107915557Y-99109748D01*
X107889914Y-99120344D01*
X107777502Y-99232560D01*
X105900000Y-99232560D01*
X105664683Y-99276838D01*
X105448559Y-99415910D01*
X105303569Y-99628110D01*
X105252560Y-99880000D01*
X105252560Y-100880000D01*
X105296838Y-101115317D01*
X105435910Y-101331441D01*
X105648110Y-101476431D01*
X105900000Y-101527440D01*
X107777162Y-101527440D01*
X107887717Y-101638188D01*
X107915557Y-101649748D01*
X107889914Y-101660344D01*
X107777502Y-101772560D01*
X105900000Y-101772560D01*
X105664683Y-101816838D01*
X105448559Y-101955910D01*
X105303569Y-102168110D01*
X105252560Y-102420000D01*
X105252560Y-103420000D01*
X105296838Y-103655317D01*
X105435910Y-103871441D01*
X105648110Y-104016431D01*
X105900000Y-104067440D01*
X107777162Y-104067440D01*
X107887717Y-104178188D01*
X107915557Y-104189748D01*
X107889914Y-104200344D01*
X107777502Y-104312560D01*
X105900000Y-104312560D01*
X105664683Y-104356838D01*
X105448559Y-104495910D01*
X105303569Y-104708110D01*
X105252560Y-104960000D01*
X105252560Y-105960000D01*
X105296838Y-106195317D01*
X105435910Y-106411441D01*
X105648110Y-106556431D01*
X105900000Y-106607440D01*
X107777162Y-106607440D01*
X107887717Y-106718188D01*
X107915557Y-106729748D01*
X107889914Y-106740344D01*
X107777502Y-106852560D01*
X105900000Y-106852560D01*
X105664683Y-106896838D01*
X105448559Y-107035910D01*
X105303569Y-107248110D01*
X105252560Y-107500000D01*
X105252560Y-108500000D01*
X105296838Y-108735317D01*
X105435910Y-108951441D01*
X105648110Y-109096431D01*
X105900000Y-109147440D01*
X107777162Y-109147440D01*
X107887717Y-109258188D01*
X107915557Y-109269748D01*
X107889914Y-109280344D01*
X107777502Y-109392560D01*
X105900000Y-109392560D01*
X105664683Y-109436838D01*
X105448559Y-109575910D01*
X105303569Y-109788110D01*
X105252560Y-110040000D01*
X105252560Y-111040000D01*
X105296838Y-111275317D01*
X105435910Y-111491441D01*
X105648110Y-111636431D01*
X105900000Y-111687440D01*
X107777162Y-111687440D01*
X107887717Y-111798188D01*
X107915557Y-111809748D01*
X107889914Y-111820344D01*
X107777502Y-111932560D01*
X105900000Y-111932560D01*
X105664683Y-111976838D01*
X105448559Y-112115910D01*
X105303569Y-112328110D01*
X105252560Y-112580000D01*
X105252560Y-113580000D01*
X105296838Y-113815317D01*
X105435910Y-114031441D01*
X105648110Y-114176431D01*
X105900000Y-114227440D01*
X107777162Y-114227440D01*
X107887717Y-114338188D01*
X107915557Y-114349748D01*
X107889914Y-114360344D01*
X107777502Y-114472560D01*
X105900000Y-114472560D01*
X105664683Y-114516838D01*
X105448559Y-114655910D01*
X105303569Y-114868110D01*
X105252560Y-115120000D01*
X105252560Y-116120000D01*
X105296838Y-116355317D01*
X105435910Y-116571441D01*
X105648110Y-116716431D01*
X105900000Y-116767440D01*
X107777162Y-116767440D01*
X107887717Y-116878188D01*
X107915557Y-116889748D01*
X107889914Y-116900344D01*
X107777502Y-117012560D01*
X105900000Y-117012560D01*
X105664683Y-117056838D01*
X105448559Y-117195910D01*
X105303569Y-117408110D01*
X105252560Y-117660000D01*
X105252560Y-118660000D01*
X105296838Y-118895317D01*
X105435910Y-119111441D01*
X105648110Y-119256431D01*
X105900000Y-119307440D01*
X107777162Y-119307440D01*
X107887717Y-119418188D01*
X107915557Y-119429748D01*
X107889914Y-119440344D01*
X107777502Y-119552560D01*
X105900000Y-119552560D01*
X105664683Y-119596838D01*
X105448559Y-119735910D01*
X105303569Y-119948110D01*
X105252560Y-120200000D01*
X105252560Y-121200000D01*
X105296838Y-121435317D01*
X105435910Y-121651441D01*
X105648110Y-121796431D01*
X105900000Y-121847440D01*
X107777162Y-121847440D01*
X107887717Y-121958188D01*
X107915557Y-121969748D01*
X107889914Y-121980344D01*
X107777502Y-122092560D01*
X105900000Y-122092560D01*
X105664683Y-122136838D01*
X105448559Y-122275910D01*
X105303569Y-122488110D01*
X105252560Y-122740000D01*
X105252560Y-123740000D01*
X105296838Y-123975317D01*
X105435910Y-124191441D01*
X105648110Y-124336431D01*
X105900000Y-124387440D01*
X107777162Y-124387440D01*
X107887717Y-124498188D01*
X107915557Y-124509748D01*
X107889914Y-124520344D01*
X107777502Y-124632560D01*
X105900000Y-124632560D01*
X105664683Y-124676838D01*
X105448559Y-124815910D01*
X105303569Y-125028110D01*
X105252560Y-125280000D01*
X105252560Y-126280000D01*
X105296838Y-126515317D01*
X105435910Y-126731441D01*
X105648110Y-126876431D01*
X105900000Y-126927440D01*
X107777162Y-126927440D01*
X107887717Y-127038188D01*
X108433319Y-127264742D01*
X109024089Y-127265257D01*
X109570086Y-127039656D01*
X109988188Y-126622283D01*
X109999748Y-126594443D01*
X110010344Y-126620086D01*
X110427717Y-127038188D01*
X110973319Y-127264742D01*
X111564089Y-127265257D01*
X112036647Y-127070000D01*
X117742560Y-127070000D01*
X117742560Y-128770000D01*
X117786838Y-129005317D01*
X117925910Y-129221441D01*
X118138110Y-129366431D01*
X118246107Y-129388301D01*
X117968355Y-129693076D01*
X117798524Y-130103110D01*
X117919845Y-130333000D01*
X119113000Y-130333000D01*
X119113000Y-130313000D01*
X119367000Y-130313000D01*
X119367000Y-130333000D01*
X120560155Y-130333000D01*
X120681476Y-130103110D01*
X120511645Y-129693076D01*
X120235499Y-129390063D01*
X120325317Y-129373162D01*
X120541441Y-129234090D01*
X120686431Y-129021890D01*
X120737440Y-128770000D01*
X120737440Y-127070000D01*
X120693162Y-126834683D01*
X120554090Y-126618559D01*
X120341890Y-126473569D01*
X120090000Y-126422560D01*
X118390000Y-126422560D01*
X118154683Y-126466838D01*
X117938559Y-126605910D01*
X117793569Y-126818110D01*
X117742560Y-127070000D01*
X112036647Y-127070000D01*
X112110086Y-127039656D01*
X112222498Y-126927440D01*
X114130000Y-126927440D01*
X114365317Y-126883162D01*
X114581441Y-126744090D01*
X114726431Y-126531890D01*
X114777440Y-126280000D01*
X114777440Y-125280000D01*
X114733162Y-125044683D01*
X114594090Y-124828559D01*
X114381890Y-124683569D01*
X114130000Y-124632560D01*
X112222838Y-124632560D01*
X112112283Y-124521812D01*
X112084443Y-124510252D01*
X112110086Y-124499656D01*
X112222498Y-124387440D01*
X114130000Y-124387440D01*
X114365317Y-124343162D01*
X114581441Y-124204090D01*
X114726431Y-123991890D01*
X114777440Y-123740000D01*
X114777440Y-122740000D01*
X114733162Y-122504683D01*
X114594090Y-122288559D01*
X114381890Y-122143569D01*
X114130000Y-122092560D01*
X112222838Y-122092560D01*
X112112283Y-121981812D01*
X112084443Y-121970252D01*
X112110086Y-121959656D01*
X112222498Y-121847440D01*
X114130000Y-121847440D01*
X114365317Y-121803162D01*
X114581441Y-121664090D01*
X114726431Y-121451890D01*
X114777440Y-121200000D01*
X114777440Y-120200000D01*
X114733162Y-119964683D01*
X114594090Y-119748559D01*
X114381890Y-119603569D01*
X114130000Y-119552560D01*
X112222838Y-119552560D01*
X112112283Y-119441812D01*
X112084443Y-119430252D01*
X112110086Y-119419656D01*
X112222498Y-119307440D01*
X114130000Y-119307440D01*
X114365317Y-119263162D01*
X114581441Y-119124090D01*
X114726431Y-118911890D01*
X114777440Y-118660000D01*
X114777440Y-117660000D01*
X114772360Y-117633000D01*
X134869000Y-117633000D01*
X134955397Y-118067345D01*
X135201434Y-118435566D01*
X135569655Y-118681603D01*
X136004000Y-118768000D01*
X136438345Y-118681603D01*
X136766000Y-118462671D01*
X137093654Y-118681603D01*
X137528000Y-118768000D01*
X137962346Y-118681603D01*
X138330566Y-118435566D01*
X138576603Y-118067346D01*
X138663000Y-117633000D01*
X138663000Y-117468132D01*
X139494762Y-116636370D01*
X142435635Y-116636370D01*
X142595418Y-116955139D01*
X143386187Y-117265123D01*
X144235387Y-117248897D01*
X144944582Y-116955139D01*
X145104365Y-116636370D01*
X143770000Y-115302005D01*
X142435635Y-116636370D01*
X139494762Y-116636370D01*
X140235566Y-115895566D01*
X140318327Y-115771705D01*
X140481603Y-115527346D01*
X140568000Y-115093000D01*
X140568000Y-114738587D01*
X141627277Y-114738587D01*
X141643503Y-115587787D01*
X141937261Y-116296982D01*
X142256030Y-116456765D01*
X143590395Y-115122400D01*
X143949605Y-115122400D01*
X145283970Y-116456765D01*
X145602739Y-116296982D01*
X145912723Y-115506213D01*
X145896497Y-114657013D01*
X145602739Y-113947818D01*
X145283970Y-113788035D01*
X143949605Y-115122400D01*
X143590395Y-115122400D01*
X142256030Y-113788035D01*
X141937261Y-113947818D01*
X141627277Y-114738587D01*
X140568000Y-114738587D01*
X140568000Y-113608430D01*
X142435635Y-113608430D01*
X143770000Y-114942795D01*
X145104365Y-113608430D01*
X144944582Y-113289661D01*
X144153813Y-112979677D01*
X143304613Y-112995903D01*
X142595418Y-113289661D01*
X142435635Y-113608430D01*
X140568000Y-113608430D01*
X140568000Y-112841150D01*
X140823298Y-112947159D01*
X141374285Y-112947640D01*
X141883515Y-112737231D01*
X142273461Y-112347964D01*
X142484759Y-111839102D01*
X142485240Y-111288115D01*
X142274831Y-110778885D01*
X141885564Y-110388939D01*
X141653130Y-110292424D01*
X141883515Y-110197231D01*
X142273461Y-109807964D01*
X142484759Y-109299102D01*
X142485240Y-108748115D01*
X142274831Y-108238885D01*
X142043687Y-108007338D01*
X142273461Y-107777964D01*
X142484759Y-107269102D01*
X142485240Y-106718115D01*
X142274831Y-106208885D01*
X141885564Y-105818939D01*
X141669021Y-105729023D01*
X141823923Y-105664860D01*
X141891912Y-105423917D01*
X141100000Y-104632005D01*
X141085858Y-104646148D01*
X140906253Y-104466543D01*
X140920395Y-104452400D01*
X141279605Y-104452400D01*
X142071517Y-105244312D01*
X142312460Y-105176323D01*
X142497201Y-104657229D01*
X142469230Y-104106952D01*
X142312460Y-103728477D01*
X142071517Y-103660488D01*
X141279605Y-104452400D01*
X140920395Y-104452400D01*
X140906253Y-104438258D01*
X141085858Y-104258653D01*
X141100000Y-104272795D01*
X141891912Y-103480883D01*
X141823923Y-103239940D01*
X141304829Y-103055199D01*
X140754552Y-103083170D01*
X140568000Y-103160443D01*
X140568000Y-102916370D01*
X142435635Y-102916370D01*
X142595418Y-103235139D01*
X143386187Y-103545123D01*
X144235387Y-103528897D01*
X144944582Y-103235139D01*
X145104365Y-102916370D01*
X143770000Y-101582005D01*
X142435635Y-102916370D01*
X140568000Y-102916370D01*
X140568000Y-101018587D01*
X141627277Y-101018587D01*
X141643503Y-101867787D01*
X141937261Y-102576982D01*
X142256030Y-102736765D01*
X143590395Y-101402400D01*
X143949605Y-101402400D01*
X145283970Y-102736765D01*
X145602739Y-102576982D01*
X145912723Y-101786213D01*
X145896497Y-100937013D01*
X145602739Y-100227818D01*
X145283970Y-100068035D01*
X143949605Y-101402400D01*
X143590395Y-101402400D01*
X142256030Y-100068035D01*
X141937261Y-100227818D01*
X141627277Y-101018587D01*
X140568000Y-101018587D01*
X140568000Y-99888430D01*
X142435635Y-99888430D01*
X143770000Y-101222795D01*
X145104365Y-99888430D01*
X144944582Y-99569661D01*
X144153813Y-99259677D01*
X143304613Y-99275903D01*
X142595418Y-99569661D01*
X142435635Y-99888430D01*
X140568000Y-99888430D01*
X140568000Y-98837000D01*
X140481603Y-98402654D01*
X140235566Y-98034434D01*
X139867346Y-97788397D01*
X139433000Y-97702000D01*
X139298000Y-97728853D01*
X139298000Y-97313000D01*
X139211603Y-96878654D01*
X138965566Y-96510434D01*
X138597346Y-96264397D01*
X138163000Y-96178000D01*
X137728654Y-96264397D01*
X137360434Y-96510434D01*
X137114397Y-96878654D01*
X137028000Y-97313000D01*
X137028000Y-113987868D01*
X135328434Y-115687434D01*
X135082397Y-116055654D01*
X134996000Y-116490000D01*
X134996000Y-117137888D01*
X134955397Y-117198655D01*
X134869000Y-117633000D01*
X114772360Y-117633000D01*
X114733162Y-117424683D01*
X114594090Y-117208559D01*
X114381890Y-117063569D01*
X114130000Y-117012560D01*
X112222838Y-117012560D01*
X112112283Y-116901812D01*
X112084443Y-116890252D01*
X112110086Y-116879656D01*
X112222498Y-116767440D01*
X114130000Y-116767440D01*
X114365317Y-116723162D01*
X114581441Y-116584090D01*
X114726431Y-116371890D01*
X114777440Y-116120000D01*
X114777440Y-115120000D01*
X114733162Y-114884683D01*
X114594090Y-114668559D01*
X114381890Y-114523569D01*
X114130000Y-114472560D01*
X112222838Y-114472560D01*
X112112283Y-114361812D01*
X112084443Y-114350252D01*
X112110086Y-114339656D01*
X112222498Y-114227440D01*
X114130000Y-114227440D01*
X114365317Y-114183162D01*
X114581441Y-114044090D01*
X114726431Y-113831890D01*
X114777440Y-113580000D01*
X114777440Y-112580000D01*
X114733162Y-112344683D01*
X114594090Y-112128559D01*
X114381890Y-111983569D01*
X114130000Y-111932560D01*
X112222838Y-111932560D01*
X112112283Y-111821812D01*
X112084443Y-111810252D01*
X112110086Y-111799656D01*
X112222498Y-111687440D01*
X114130000Y-111687440D01*
X114365317Y-111643162D01*
X114581441Y-111504090D01*
X114726431Y-111291890D01*
X114777440Y-111040000D01*
X114777440Y-110040000D01*
X114771946Y-110010800D01*
X117667133Y-110010800D01*
X117407808Y-110269673D01*
X117265162Y-110613201D01*
X117264838Y-110985167D01*
X117406883Y-111328943D01*
X117440000Y-111362118D01*
X117440000Y-112237537D01*
X117407808Y-112269673D01*
X117265162Y-112613201D01*
X117264838Y-112985167D01*
X117406883Y-113328943D01*
X117669673Y-113592192D01*
X118013201Y-113734838D01*
X118385167Y-113735162D01*
X118728943Y-113593117D01*
X118992192Y-113330327D01*
X119134838Y-112986799D01*
X119135162Y-112614833D01*
X118993117Y-112271057D01*
X118960000Y-112237882D01*
X118960000Y-111362463D01*
X118992192Y-111330327D01*
X119134838Y-110986799D01*
X119135162Y-110614833D01*
X118993117Y-110271057D01*
X118733314Y-110010800D01*
X119035998Y-110010800D01*
X119564878Y-110539680D01*
X119564838Y-110585167D01*
X119706883Y-110928943D01*
X119969673Y-111192192D01*
X120313201Y-111334838D01*
X120685167Y-111335162D01*
X121028943Y-111193117D01*
X121292192Y-110930327D01*
X121434838Y-110586799D01*
X121435162Y-110214833D01*
X121293117Y-109871057D01*
X121030327Y-109607808D01*
X120686799Y-109465162D01*
X120639923Y-109465121D01*
X120459969Y-109285167D01*
X123264838Y-109285167D01*
X123406883Y-109628943D01*
X123440000Y-109662118D01*
X123440000Y-112237537D01*
X123407808Y-112269673D01*
X123265162Y-112613201D01*
X123264838Y-112985167D01*
X123406883Y-113328943D01*
X123669673Y-113592192D01*
X124013201Y-113734838D01*
X124385167Y-113735162D01*
X124728943Y-113593117D01*
X124992192Y-113330327D01*
X125134838Y-112986799D01*
X125135162Y-112614833D01*
X124993117Y-112271057D01*
X124960000Y-112237882D01*
X124960000Y-109662463D01*
X124992192Y-109630327D01*
X125134838Y-109286799D01*
X125135162Y-108914833D01*
X124993117Y-108571057D01*
X124730327Y-108307808D01*
X124386799Y-108165162D01*
X124014833Y-108164838D01*
X123671057Y-108306883D01*
X123407808Y-108569673D01*
X123265162Y-108913201D01*
X123264838Y-109285167D01*
X120459969Y-109285167D01*
X119888201Y-108713399D01*
X119641639Y-108548652D01*
X119350800Y-108490800D01*
X118308605Y-108490800D01*
X118434838Y-108186799D01*
X118435162Y-107814833D01*
X118293117Y-107471057D01*
X118030327Y-107207808D01*
X117686799Y-107065162D01*
X117314833Y-107064838D01*
X116971057Y-107206883D01*
X116937882Y-107240000D01*
X114717279Y-107240000D01*
X114594090Y-107048559D01*
X114381890Y-106903569D01*
X114130000Y-106852560D01*
X112222838Y-106852560D01*
X112112283Y-106741812D01*
X112084443Y-106730252D01*
X112110086Y-106719656D01*
X112222498Y-106607440D01*
X114130000Y-106607440D01*
X114365317Y-106563162D01*
X114581441Y-106424090D01*
X114726431Y-106211890D01*
X114777440Y-105960000D01*
X114777440Y-104960000D01*
X114733162Y-104724683D01*
X114594090Y-104508559D01*
X114381890Y-104363569D01*
X114130000Y-104312560D01*
X112222838Y-104312560D01*
X112112283Y-104201812D01*
X112084443Y-104190252D01*
X112110086Y-104179656D01*
X112222498Y-104067440D01*
X114130000Y-104067440D01*
X114196113Y-104055000D01*
X117486002Y-104055000D01*
X117920348Y-103968603D01*
X118288568Y-103722566D01*
X118307568Y-103703566D01*
X118553605Y-103335345D01*
X118640002Y-102901000D01*
X118553605Y-102466655D01*
X118307568Y-102098434D01*
X117939347Y-101852397D01*
X117505002Y-101766000D01*
X117409483Y-101785000D01*
X114191431Y-101785000D01*
X114130000Y-101772560D01*
X112222838Y-101772560D01*
X112112283Y-101661812D01*
X112084443Y-101650252D01*
X112110086Y-101639656D01*
X112222498Y-101527440D01*
X114130000Y-101527440D01*
X114365317Y-101483162D01*
X114581441Y-101344090D01*
X114726431Y-101131890D01*
X114777440Y-100880000D01*
X114777440Y-99880000D01*
X114768596Y-99833000D01*
X115437537Y-99833000D01*
X115469673Y-99865192D01*
X115813201Y-100007838D01*
X116185167Y-100008162D01*
X116528943Y-99866117D01*
X116792192Y-99603327D01*
X116934838Y-99259799D01*
X116935162Y-98887833D01*
X116793117Y-98544057D01*
X116530327Y-98280808D01*
X116186799Y-98138162D01*
X115814833Y-98137838D01*
X115471057Y-98279883D01*
X115437882Y-98313000D01*
X114777440Y-98313000D01*
X114777440Y-97340000D01*
X114733162Y-97104683D01*
X114594090Y-96888559D01*
X114381890Y-96743569D01*
X114130000Y-96692560D01*
X112222838Y-96692560D01*
X112112283Y-96581812D01*
X112084443Y-96570252D01*
X112110086Y-96559656D01*
X112222498Y-96447440D01*
X114130000Y-96447440D01*
X114365317Y-96403162D01*
X114581441Y-96264090D01*
X114726431Y-96051890D01*
X114777440Y-95800000D01*
X114777440Y-94800000D01*
X114733162Y-94564683D01*
X114594090Y-94348559D01*
X114381890Y-94203569D01*
X114130000Y-94152560D01*
X112222838Y-94152560D01*
X112112283Y-94041812D01*
X112084443Y-94030252D01*
X112110086Y-94019656D01*
X112222498Y-93907440D01*
X114130000Y-93907440D01*
X114365317Y-93863162D01*
X114581441Y-93724090D01*
X114726431Y-93511890D01*
X114777440Y-93260000D01*
X114777440Y-92260000D01*
X114733162Y-92024683D01*
X114594090Y-91808559D01*
X114381890Y-91663569D01*
X114130000Y-91612560D01*
X112222838Y-91612560D01*
X112112283Y-91501812D01*
X112084443Y-91490252D01*
X112110086Y-91479656D01*
X112222498Y-91367440D01*
X114130000Y-91367440D01*
X114365317Y-91323162D01*
X114581441Y-91184090D01*
X114726431Y-90971890D01*
X114777440Y-90720000D01*
X114777440Y-89720000D01*
X114733162Y-89484683D01*
X114594090Y-89268559D01*
X114381890Y-89123569D01*
X114130000Y-89072560D01*
X112222838Y-89072560D01*
X112112283Y-88961812D01*
X111566681Y-88735258D01*
X110975911Y-88734743D01*
X110429914Y-88960344D01*
X110011812Y-89377717D01*
X109992049Y-89425312D01*
X109773958Y-89355647D01*
X109641334Y-89488271D01*
X109588327Y-89360301D01*
X109499210Y-89271185D01*
X109594353Y-89176042D01*
X109514080Y-88924741D01*
X108958721Y-88723282D01*
X108368542Y-88749685D01*
X107945920Y-88924741D01*
X107894729Y-89085000D01*
X107760750Y-89085000D01*
X107602000Y-89243750D01*
X107602000Y-89382493D01*
X107506778Y-89412910D01*
X107479630Y-89385762D01*
X107362745Y-89502647D01*
X107348000Y-89380483D01*
X107348000Y-89243750D01*
X107189250Y-89085000D01*
X105773691Y-89085000D01*
X105540302Y-89181673D01*
X105361673Y-89360301D01*
X105265000Y-89593690D01*
X105265000Y-89934250D01*
X105423750Y-90093000D01*
X105778600Y-90093000D01*
X105776691Y-90098931D01*
X105796921Y-90347000D01*
X105423750Y-90347000D01*
X105265000Y-90505750D01*
X105265000Y-90846310D01*
X105361673Y-91079699D01*
X105540302Y-91258327D01*
X105773691Y-91355000D01*
X107189250Y-91355000D01*
X107348000Y-91196250D01*
X107348000Y-91059517D01*
X107362745Y-90937353D01*
X107479630Y-91054238D01*
X107506778Y-91027090D01*
X107602000Y-91057507D01*
X107602000Y-91196250D01*
X107760750Y-91355000D01*
X107894729Y-91355000D01*
X107937852Y-91490000D01*
X107894729Y-91625000D01*
X107760750Y-91625000D01*
X107602000Y-91783750D01*
X107602000Y-91922493D01*
X107506778Y-91952910D01*
X107479630Y-91925762D01*
X107362745Y-92042647D01*
X107348000Y-91920483D01*
X107348000Y-91783750D01*
X107189250Y-91625000D01*
X105773691Y-91625000D01*
X105540302Y-91721673D01*
X105361673Y-91900301D01*
X105265000Y-92133690D01*
X105265000Y-92474250D01*
X105423750Y-92633000D01*
X105778600Y-92633000D01*
X105776691Y-92638931D01*
X105796921Y-92887000D01*
X105423750Y-92887000D01*
X105265000Y-93045750D01*
X105265000Y-93386310D01*
X105361673Y-93619699D01*
X105540302Y-93798327D01*
X105773691Y-93895000D01*
X107189250Y-93895000D01*
X107348000Y-93736250D01*
X107348000Y-93599517D01*
X107362745Y-93477353D01*
X107479630Y-93594238D01*
X107506778Y-93567090D01*
X107602000Y-93597507D01*
X107602000Y-93736250D01*
X107760750Y-93895000D01*
X107894729Y-93895000D01*
X107937852Y-94030000D01*
X107894729Y-94165000D01*
X107760750Y-94165000D01*
X107602000Y-94323750D01*
X107602000Y-94462493D01*
X107506778Y-94492910D01*
X107479630Y-94465762D01*
X107362745Y-94582647D01*
X107348000Y-94460483D01*
X107348000Y-94323750D01*
X107189250Y-94165000D01*
X105773691Y-94165000D01*
X105540302Y-94261673D01*
X105361673Y-94440301D01*
X105265000Y-94673690D01*
X105265000Y-95014250D01*
X105423750Y-95173000D01*
X105778600Y-95173000D01*
X105776691Y-95178931D01*
X105796921Y-95427000D01*
X105423750Y-95427000D01*
X105265000Y-95585750D01*
X105265000Y-95926310D01*
X105361673Y-96159699D01*
X105540302Y-96338327D01*
X105773691Y-96435000D01*
X107189250Y-96435000D01*
X107348000Y-96276250D01*
X107348000Y-96139517D01*
X107362745Y-96017353D01*
X107479630Y-96134238D01*
X107506778Y-96107090D01*
X107602000Y-96137507D01*
X107602000Y-96276250D01*
X107760750Y-96435000D01*
X107894729Y-96435000D01*
X107935181Y-96561640D01*
X107889914Y-96580344D01*
X107777502Y-96692560D01*
X105900000Y-96692560D01*
X105664683Y-96736838D01*
X105448559Y-96875910D01*
X105303569Y-97088110D01*
X105252560Y-97340000D01*
X104710000Y-97340000D01*
X104710000Y-90594092D01*
X104802046Y-90502046D01*
X104955954Y-90271705D01*
X105010000Y-90000000D01*
X105010000Y-87036500D01*
X105104155Y-87264372D01*
X105732321Y-87893636D01*
X106553481Y-88234611D01*
X107442619Y-88235387D01*
X108264372Y-87895845D01*
X108893636Y-87267679D01*
X109234611Y-86446519D01*
X109235387Y-85557381D01*
X108895845Y-84735628D01*
X108267679Y-84106364D01*
X108035608Y-84010000D01*
X111790000Y-84010000D01*
X111790000Y-84449406D01*
X111346627Y-84265301D01*
X110656401Y-84264699D01*
X110018485Y-84528281D01*
X109529996Y-85015918D01*
X109265301Y-85653373D01*
X109264699Y-86343599D01*
X109528281Y-86981515D01*
X110015918Y-87470004D01*
X110653373Y-87734699D01*
X111343599Y-87735301D01*
X111981515Y-87471719D01*
X112470004Y-86984082D01*
X112734699Y-86346627D01*
X112734701Y-86343599D01*
X145264699Y-86343599D01*
X145528281Y-86981515D01*
X146015918Y-87470004D01*
X146653373Y-87734699D01*
X147343599Y-87735301D01*
X147981515Y-87471719D01*
X148470004Y-86984082D01*
X148734699Y-86346627D01*
X148735301Y-85656401D01*
X148471719Y-85018485D01*
X147984082Y-84529996D01*
X147346627Y-84265301D01*
X146656401Y-84264699D01*
X146018485Y-84528281D01*
X145529996Y-85015918D01*
X145265301Y-85653373D01*
X145264699Y-86343599D01*
X112734701Y-86343599D01*
X112734864Y-86157261D01*
X113000000Y-86210000D01*
X116000000Y-86210000D01*
X116271705Y-86155954D01*
X116502046Y-86002046D01*
X117002046Y-85502046D01*
X117155954Y-85271705D01*
X117210000Y-85000000D01*
X117210000Y-83794092D01*
X117294092Y-83710000D01*
X143405908Y-83710000D01*
X143497954Y-83802046D01*
G36*
X107018748Y-95285858D02*
X107004605Y-95300000D01*
X107018748Y-95314143D01*
X106905890Y-95427000D01*
X106744110Y-95427000D01*
X106631253Y-95314143D01*
X106645395Y-95300000D01*
X106631253Y-95285858D01*
X106744110Y-95173000D01*
X106905890Y-95173000D01*
X107018748Y-95285858D01*
X107018748Y-95285858D01*
G37*
X107018748Y-95285858D02*
X107004605Y-95300000D01*
X107018748Y-95314143D01*
X106905890Y-95427000D01*
X106744110Y-95427000D01*
X106631253Y-95314143D01*
X106645395Y-95300000D01*
X106631253Y-95285858D01*
X106744110Y-95173000D01*
X106905890Y-95173000D01*
X107018748Y-95285858D01*
G36*
X107018748Y-92745858D02*
X107004605Y-92760000D01*
X107018748Y-92774143D01*
X106905890Y-92887000D01*
X106744110Y-92887000D01*
X106631253Y-92774143D01*
X106645395Y-92760000D01*
X106631253Y-92745858D01*
X106744110Y-92633000D01*
X106905890Y-92633000D01*
X107018748Y-92745858D01*
X107018748Y-92745858D01*
G37*
X107018748Y-92745858D02*
X107004605Y-92760000D01*
X107018748Y-92774143D01*
X106905890Y-92887000D01*
X106744110Y-92887000D01*
X106631253Y-92774143D01*
X106645395Y-92760000D01*
X106631253Y-92745858D01*
X106744110Y-92633000D01*
X106905890Y-92633000D01*
X107018748Y-92745858D01*
G36*
X107018748Y-90205858D02*
X107004605Y-90220000D01*
X107018748Y-90234143D01*
X106905890Y-90347000D01*
X106744110Y-90347000D01*
X106631253Y-90234143D01*
X106645395Y-90220000D01*
X106631253Y-90205858D01*
X106744110Y-90093000D01*
X106905890Y-90093000D01*
X107018748Y-90205858D01*
X107018748Y-90205858D01*
G37*
X107018748Y-90205858D02*
X107004605Y-90220000D01*
X107018748Y-90234143D01*
X106905890Y-90347000D01*
X106744110Y-90347000D01*
X106631253Y-90234143D01*
X106645395Y-90220000D01*
X106631253Y-90205858D01*
X106744110Y-90093000D01*
X106905890Y-90093000D01*
X107018748Y-90205858D01*
M02*
