G04 #@! TF.FileFunction,Soldermask,Top*
%FSLAX46Y46*%
G04 Gerber Fmt 4.6, Leading zero omitted, Abs format (unit mm)*
G04 Created by KiCad (PCBNEW 4.0.7) date 09/12/18 20:21:31*
%MOMM*%
%LPD*%
G01*
G04 APERTURE LIST*
%ADD10C,0.100000*%
%ADD11C,3.600000*%
%ADD12R,1.150000X1.200000*%
%ADD13R,1.200000X1.150000*%
%ADD14C,2.600000*%
%ADD15R,0.900000X1.300000*%
%ADD16R,1.300000X0.900000*%
%ADD17R,1.543000X0.654000*%
%ADD18R,0.654000X1.543000*%
%ADD19R,2.400000X2.800000*%
%ADD20R,2.100000X2.100000*%
%ADD21O,2.100000X2.100000*%
%ADD22C,1.900000*%
%ADD23C,3.400000*%
%ADD24R,3.900000X3.200000*%
%ADD25R,1.750000X1.750000*%
%ADD26O,1.750000X1.750000*%
%ADD27C,1.200000*%
%ADD28C,1.400000*%
%ADD29R,3.550000X1.400000*%
%ADD30C,2.100000*%
G04 APERTURE END LIST*
D10*
D11*
X151000000Y-86000000D03*
X107000000Y-130000000D03*
D12*
X138814000Y-115970000D03*
X138814000Y-114470000D03*
X135242000Y-115970000D03*
X135242000Y-114470000D03*
X137020000Y-115970000D03*
X137020000Y-114470000D03*
X126400000Y-108150000D03*
X126400000Y-106650000D03*
D13*
X133950000Y-98800000D03*
X132450000Y-98800000D03*
X136650000Y-98800000D03*
X138150000Y-98800000D03*
D11*
X107000000Y-86000000D03*
X151000000Y-130000000D03*
D14*
X111000000Y-130000000D03*
X111000000Y-86000000D03*
X147000000Y-86000000D03*
X147000000Y-130000000D03*
D15*
X137650000Y-107000000D03*
X139150000Y-107000000D03*
X137650000Y-109000000D03*
X139150000Y-109000000D03*
D16*
X124200000Y-108150000D03*
X124200000Y-106650000D03*
D17*
X128300000Y-106250000D03*
X128300000Y-106750000D03*
X128300000Y-107250000D03*
X128300000Y-107750000D03*
X128300000Y-108250000D03*
X128300000Y-108750000D03*
X128300000Y-109250000D03*
X128300000Y-109750000D03*
D18*
X130050000Y-111500000D03*
X130550000Y-111500000D03*
X131050000Y-111500000D03*
X131550000Y-111500000D03*
X132050000Y-111500000D03*
X132550000Y-111500000D03*
X133050000Y-111500000D03*
X133550000Y-111500000D03*
D17*
X135300000Y-109750000D03*
X135300000Y-109250000D03*
X135300000Y-108750000D03*
X135300000Y-108250000D03*
X135300000Y-107750000D03*
X135300000Y-107250000D03*
X135300000Y-106750000D03*
X135300000Y-106250000D03*
D18*
X133550000Y-104500000D03*
X133050000Y-104500000D03*
X132550000Y-104500000D03*
X132050000Y-104500000D03*
X131550000Y-104500000D03*
X131050000Y-104500000D03*
X130550000Y-104500000D03*
X130050000Y-104500000D03*
D19*
X133550000Y-101800000D03*
X137250000Y-101800000D03*
D20*
X119240000Y-127920000D03*
D21*
X119240000Y-130460000D03*
D22*
X141100000Y-104452400D03*
X141100000Y-106992400D03*
X141100000Y-109022400D03*
X141100000Y-111562400D03*
D23*
X143770000Y-101402400D03*
X143770000Y-115122400D03*
D24*
X150000000Y-98500000D03*
D25*
X150000000Y-92000000D03*
D26*
X150000000Y-94000000D03*
X150000000Y-96000000D03*
D24*
X150000000Y-89500000D03*
D16*
X116827000Y-125773000D03*
X116827000Y-127273000D03*
D27*
X110000000Y-121970000D03*
D28*
X110000000Y-124510000D03*
D27*
X110000000Y-94030000D03*
D29*
X107475000Y-90220000D03*
X107475000Y-102920000D03*
X107475000Y-100380000D03*
X107475000Y-97840000D03*
X107475000Y-95300000D03*
X107475000Y-92760000D03*
D27*
X106825000Y-90220000D03*
D29*
X112525000Y-90220000D03*
X112525000Y-92760000D03*
X112525000Y-95300000D03*
X112525000Y-97840000D03*
X112525000Y-100380000D03*
X112525000Y-102920000D03*
X107475000Y-105460000D03*
X112525000Y-105460000D03*
X107475000Y-108000000D03*
X112525000Y-108000000D03*
X107475000Y-110540000D03*
X112525000Y-110540000D03*
X107475000Y-113080000D03*
X112525000Y-113080000D03*
X107475000Y-115620000D03*
X112525000Y-115620000D03*
X107475000Y-118160000D03*
X112525000Y-118160000D03*
X107475000Y-120700000D03*
X112525000Y-120700000D03*
X107475000Y-123240000D03*
X112525000Y-123240000D03*
X107475000Y-125780000D03*
X112525000Y-125780000D03*
D27*
X106825000Y-92760000D03*
X106825000Y-95300000D03*
X106825000Y-97840000D03*
X106825000Y-100380000D03*
X106825000Y-102920000D03*
X106825000Y-105460000D03*
X106825000Y-108000000D03*
X106825000Y-110540000D03*
X106825000Y-113080000D03*
X106825000Y-115620000D03*
X106825000Y-118160000D03*
X106825000Y-120700000D03*
X106825000Y-123240000D03*
X106825000Y-125780000D03*
X113175000Y-90220000D03*
X113175000Y-92760000D03*
X113175000Y-95300000D03*
X113175000Y-97840000D03*
X113175000Y-100380000D03*
X113175000Y-102920000D03*
X113175000Y-105460000D03*
X113175000Y-108000000D03*
X113175000Y-110540000D03*
X113175000Y-113080000D03*
X113175000Y-115620000D03*
X113175000Y-118160000D03*
X113175000Y-120700000D03*
X113175000Y-123240000D03*
X113175000Y-125780000D03*
D28*
X110000000Y-91490000D03*
D30*
X108730000Y-90220000D03*
X111270000Y-90220000D03*
X108730000Y-92760000D03*
X111270000Y-92760000D03*
X108730000Y-95300000D03*
X111270000Y-95300000D03*
X108730000Y-97840000D03*
X111270000Y-97840000D03*
X108730000Y-100380000D03*
X111270000Y-100380000D03*
X108730000Y-102920000D03*
X111270000Y-102920000D03*
X108730000Y-105460000D03*
X111270000Y-105460000D03*
X108730000Y-108000000D03*
X111270000Y-108000000D03*
X108730000Y-110540000D03*
X111270000Y-110540000D03*
X108730000Y-113080000D03*
X111270000Y-113080000D03*
X108730000Y-115620000D03*
X111270000Y-115620000D03*
X108730000Y-118160000D03*
X111270000Y-118160000D03*
X108730000Y-120700000D03*
X111270000Y-120700000D03*
X108730000Y-123240000D03*
X111270000Y-123240000D03*
X108730000Y-125780000D03*
X111270000Y-125780000D03*
M02*
