G04 #@! TF.FileFunction,Legend,Bot*
%FSLAX46Y46*%
G04 Gerber Fmt 4.6, Leading zero omitted, Abs format (unit mm)*
G04 Created by KiCad (PCBNEW 4.0.7) date 07/27/18 08:10:25*
%MOMM*%
%LPD*%
G01*
G04 APERTURE LIST*
%ADD10C,0.100000*%
%ADD11C,3.600000*%
%ADD12C,2.600000*%
%ADD13R,2.100000X2.100000*%
%ADD14O,2.100000X2.100000*%
%ADD15C,1.900000*%
%ADD16C,3.400000*%
%ADD17R,3.900000X3.200000*%
%ADD18R,1.750000X1.750000*%
%ADD19O,1.750000X1.750000*%
%ADD20C,1.200000*%
%ADD21C,1.400000*%
%ADD22R,3.550000X1.400000*%
G04 APERTURE END LIST*
D10*
%LPC*%
D11*
X151000000Y-86000000D03*
X107000000Y-130000000D03*
X107000000Y-86000000D03*
X151000000Y-130000000D03*
D12*
X111000000Y-130000000D03*
X111000000Y-86000000D03*
X147000000Y-86000000D03*
X147000000Y-130000000D03*
D13*
X119240000Y-127920000D03*
D14*
X119240000Y-130460000D03*
D15*
X141100000Y-104452400D03*
X141100000Y-106992400D03*
X141100000Y-109022400D03*
X141100000Y-111562400D03*
D16*
X143770000Y-101402400D03*
X143770000Y-115122400D03*
D17*
X150000000Y-98500000D03*
D18*
X150000000Y-92000000D03*
D19*
X150000000Y-94000000D03*
X150000000Y-96000000D03*
D17*
X150000000Y-89500000D03*
D20*
X110000000Y-121970000D03*
D21*
X110000000Y-124510000D03*
D20*
X110000000Y-94030000D03*
X108095000Y-90220000D03*
D22*
X107475000Y-90220000D03*
D20*
X106825000Y-90220000D03*
D22*
X112555000Y-90220000D03*
X107475000Y-92760000D03*
X112555000Y-92760000D03*
X107475000Y-95300000D03*
X112555000Y-95300000D03*
X107475000Y-97840000D03*
X112555000Y-97840000D03*
X107475000Y-100380000D03*
X112555000Y-100380000D03*
X107475000Y-102920000D03*
X112555000Y-102920000D03*
X107475000Y-105460000D03*
X112555000Y-105460000D03*
X107475000Y-108000000D03*
X112555000Y-108000000D03*
X107475000Y-110540000D03*
X112555000Y-110540000D03*
X107475000Y-113080000D03*
X112555000Y-113080000D03*
X107475000Y-115620000D03*
X112555000Y-115620000D03*
X107475000Y-118160000D03*
X112555000Y-118160000D03*
X107475000Y-120700000D03*
X112555000Y-120700000D03*
X107475000Y-123240000D03*
X112555000Y-123240000D03*
X107475000Y-125780000D03*
X112555000Y-125780000D03*
D20*
X111905000Y-90220000D03*
X106825000Y-92760000D03*
X111905000Y-92760000D03*
X106825000Y-95300000D03*
X111905000Y-95300000D03*
X106825000Y-97840000D03*
X111905000Y-97840000D03*
X106825000Y-100380000D03*
X111905000Y-100380000D03*
X106825000Y-102920000D03*
X111905000Y-102920000D03*
X106825000Y-105460000D03*
X111905000Y-105460000D03*
X106825000Y-108000000D03*
X111905000Y-108000000D03*
X106825000Y-110540000D03*
X111905000Y-110540000D03*
X106825000Y-113080000D03*
X111905000Y-113080000D03*
X106825000Y-115620000D03*
X111905000Y-115620000D03*
X106825000Y-118160000D03*
X111905000Y-118160000D03*
X106825000Y-120700000D03*
X111905000Y-120700000D03*
X106825000Y-123240000D03*
X111905000Y-123240000D03*
X106825000Y-125780000D03*
X111905000Y-125780000D03*
X113175000Y-90220000D03*
X108095000Y-92760000D03*
X113175000Y-92760000D03*
X108095000Y-95300000D03*
X113175000Y-95300000D03*
X108095000Y-97840000D03*
X113175000Y-97840000D03*
X108095000Y-100380000D03*
X113175000Y-100380000D03*
X108095000Y-102920000D03*
X113175000Y-102920000D03*
X108095000Y-105460000D03*
X113175000Y-105460000D03*
X108095000Y-108000000D03*
X113175000Y-108000000D03*
X108095000Y-110540000D03*
X113175000Y-110540000D03*
X108095000Y-113080000D03*
X113175000Y-113080000D03*
X108095000Y-115620000D03*
X113175000Y-115620000D03*
X108095000Y-118160000D03*
X113175000Y-118160000D03*
X108095000Y-120700000D03*
X113175000Y-120700000D03*
X108095000Y-123240000D03*
X113175000Y-123240000D03*
X108095000Y-125780000D03*
X113175000Y-125780000D03*
D21*
X110000000Y-91490000D03*
M02*
