G04 #@! TF.FileFunction,Legend,Top*
%FSLAX46Y46*%
G04 Gerber Fmt 4.6, Leading zero omitted, Abs format (unit mm)*
G04 Created by KiCad (PCBNEW 4.0.7) date 07/27/18 08:10:25*
%MOMM*%
%LPD*%
G01*
G04 APERTURE LIST*
%ADD10C,0.100000*%
%ADD11C,0.150000*%
%ADD12C,0.080000*%
%ADD13C,0.200000*%
%ADD14C,0.120000*%
%ADD15C,0.254000*%
%ADD16C,0.002540*%
%ADD17C,0.050000*%
%ADD18C,3.600000*%
%ADD19R,1.150000X1.200000*%
%ADD20R,1.200000X1.150000*%
%ADD21C,2.600000*%
%ADD22R,0.900000X1.300000*%
%ADD23R,1.300000X0.900000*%
%ADD24R,1.543000X0.654000*%
%ADD25R,0.654000X1.543000*%
%ADD26R,2.400000X2.800000*%
%ADD27R,2.100000X2.100000*%
%ADD28O,2.100000X2.100000*%
%ADD29C,1.900000*%
%ADD30C,3.400000*%
%ADD31R,3.900000X3.200000*%
%ADD32R,1.750000X1.750000*%
%ADD33O,1.750000X1.750000*%
%ADD34C,1.200000*%
%ADD35C,1.400000*%
%ADD36R,3.550000X1.400000*%
G04 APERTURE END LIST*
D10*
D11*
X152474381Y-91328048D02*
X152474381Y-91137571D01*
X152522000Y-91042333D01*
X152617238Y-90947095D01*
X152807714Y-90899476D01*
X153141048Y-90899476D01*
X153331524Y-90947095D01*
X153426762Y-91042333D01*
X153474381Y-91137571D01*
X153474381Y-91328048D01*
X153426762Y-91423286D01*
X153331524Y-91518524D01*
X153141048Y-91566143D01*
X152807714Y-91566143D01*
X152617238Y-91518524D01*
X152522000Y-91423286D01*
X152474381Y-91328048D01*
X153474381Y-90470905D02*
X152474381Y-90470905D01*
X153474381Y-89899476D01*
X152474381Y-89899476D01*
X147124381Y-97717524D02*
X146124381Y-97717524D01*
X146124381Y-97336571D01*
X146172000Y-97241333D01*
X146219619Y-97193714D01*
X146314857Y-97146095D01*
X146457714Y-97146095D01*
X146552952Y-97193714D01*
X146600571Y-97241333D01*
X146648190Y-97336571D01*
X146648190Y-97717524D01*
X146124381Y-96527048D02*
X146124381Y-96336571D01*
X146172000Y-96241333D01*
X146267238Y-96146095D01*
X146457714Y-96098476D01*
X146791048Y-96098476D01*
X146981524Y-96146095D01*
X147076762Y-96241333D01*
X147124381Y-96336571D01*
X147124381Y-96527048D01*
X147076762Y-96622286D01*
X146981524Y-96717524D01*
X146791048Y-96765143D01*
X146457714Y-96765143D01*
X146267238Y-96717524D01*
X146172000Y-96622286D01*
X146124381Y-96527048D01*
X146124381Y-95765143D02*
X147124381Y-95527048D01*
X146410095Y-95336571D01*
X147124381Y-95146095D01*
X146124381Y-94908000D01*
X146600571Y-94527048D02*
X146600571Y-94193714D01*
X147124381Y-94050857D02*
X147124381Y-94527048D01*
X146124381Y-94527048D01*
X146124381Y-94050857D01*
X147124381Y-93050857D02*
X146648190Y-93384191D01*
X147124381Y-93622286D02*
X146124381Y-93622286D01*
X146124381Y-93241333D01*
X146172000Y-93146095D01*
X146219619Y-93098476D01*
X146314857Y-93050857D01*
X146457714Y-93050857D01*
X146552952Y-93098476D01*
X146600571Y-93146095D01*
X146648190Y-93241333D01*
X146648190Y-93622286D01*
D12*
X141602857Y-94140952D02*
X141602857Y-93740952D01*
X141774286Y-94140952D02*
X141774286Y-93931429D01*
X141755238Y-93893333D01*
X141717143Y-93874286D01*
X141660000Y-93874286D01*
X141621905Y-93893333D01*
X141602857Y-93912381D01*
X142136191Y-94140952D02*
X142136191Y-93931429D01*
X142117143Y-93893333D01*
X142079048Y-93874286D01*
X142002857Y-93874286D01*
X141964762Y-93893333D01*
X142136191Y-94121905D02*
X142098095Y-94140952D01*
X142002857Y-94140952D01*
X141964762Y-94121905D01*
X141945714Y-94083810D01*
X141945714Y-94045714D01*
X141964762Y-94007619D01*
X142002857Y-93988571D01*
X142098095Y-93988571D01*
X142136191Y-93969524D01*
X142326667Y-94140952D02*
X142326667Y-93874286D01*
X142326667Y-93950476D02*
X142345715Y-93912381D01*
X142364762Y-93893333D01*
X142402858Y-93874286D01*
X142440953Y-93874286D01*
X142745715Y-94140952D02*
X142745715Y-93740952D01*
X142745715Y-94121905D02*
X142707619Y-94140952D01*
X142631429Y-94140952D01*
X142593334Y-94121905D01*
X142574286Y-94102857D01*
X142555238Y-94064762D01*
X142555238Y-93950476D01*
X142574286Y-93912381D01*
X142593334Y-93893333D01*
X142631429Y-93874286D01*
X142707619Y-93874286D01*
X142745715Y-93893333D01*
X142898096Y-93874286D02*
X142974286Y-94140952D01*
X143050477Y-93950476D01*
X143126667Y-94140952D01*
X143202858Y-93874286D01*
X143526668Y-94140952D02*
X143526668Y-93931429D01*
X143507620Y-93893333D01*
X143469525Y-93874286D01*
X143393334Y-93874286D01*
X143355239Y-93893333D01*
X143526668Y-94121905D02*
X143488572Y-94140952D01*
X143393334Y-94140952D01*
X143355239Y-94121905D01*
X143336191Y-94083810D01*
X143336191Y-94045714D01*
X143355239Y-94007619D01*
X143393334Y-93988571D01*
X143488572Y-93988571D01*
X143526668Y-93969524D01*
X143717144Y-94140952D02*
X143717144Y-93874286D01*
X143717144Y-93950476D02*
X143736192Y-93912381D01*
X143755239Y-93893333D01*
X143793335Y-93874286D01*
X143831430Y-93874286D01*
X144117144Y-94121905D02*
X144079049Y-94140952D01*
X144002858Y-94140952D01*
X143964763Y-94121905D01*
X143945715Y-94083810D01*
X143945715Y-93931429D01*
X143964763Y-93893333D01*
X144002858Y-93874286D01*
X144079049Y-93874286D01*
X144117144Y-93893333D01*
X144136192Y-93931429D01*
X144136192Y-93969524D01*
X143945715Y-94007619D01*
X141295238Y-93590952D02*
X141257143Y-93571905D01*
X141238095Y-93552857D01*
X141219047Y-93514762D01*
X141219047Y-93400476D01*
X141238095Y-93362381D01*
X141257143Y-93343333D01*
X141295238Y-93324286D01*
X141352381Y-93324286D01*
X141390476Y-93343333D01*
X141409524Y-93362381D01*
X141428571Y-93400476D01*
X141428571Y-93514762D01*
X141409524Y-93552857D01*
X141390476Y-93571905D01*
X141352381Y-93590952D01*
X141295238Y-93590952D01*
X141600000Y-93324286D02*
X141600000Y-93724286D01*
X141600000Y-93343333D02*
X141638095Y-93324286D01*
X141714286Y-93324286D01*
X141752381Y-93343333D01*
X141771429Y-93362381D01*
X141790476Y-93400476D01*
X141790476Y-93514762D01*
X141771429Y-93552857D01*
X141752381Y-93571905D01*
X141714286Y-93590952D01*
X141638095Y-93590952D01*
X141600000Y-93571905D01*
X142114286Y-93571905D02*
X142076191Y-93590952D01*
X142000000Y-93590952D01*
X141961905Y-93571905D01*
X141942857Y-93533810D01*
X141942857Y-93381429D01*
X141961905Y-93343333D01*
X142000000Y-93324286D01*
X142076191Y-93324286D01*
X142114286Y-93343333D01*
X142133334Y-93381429D01*
X142133334Y-93419524D01*
X141942857Y-93457619D01*
X142304762Y-93324286D02*
X142304762Y-93590952D01*
X142304762Y-93362381D02*
X142323810Y-93343333D01*
X142361905Y-93324286D01*
X142419048Y-93324286D01*
X142457143Y-93343333D01*
X142476191Y-93381429D01*
X142476191Y-93590952D01*
X142952381Y-93571905D02*
X142990477Y-93590952D01*
X143066667Y-93590952D01*
X143104762Y-93571905D01*
X143123810Y-93533810D01*
X143123810Y-93514762D01*
X143104762Y-93476667D01*
X143066667Y-93457619D01*
X143009524Y-93457619D01*
X142971429Y-93438571D01*
X142952381Y-93400476D01*
X142952381Y-93381429D01*
X142971429Y-93343333D01*
X143009524Y-93324286D01*
X143066667Y-93324286D01*
X143104762Y-93343333D01*
X143352382Y-93590952D02*
X143314287Y-93571905D01*
X143295239Y-93552857D01*
X143276191Y-93514762D01*
X143276191Y-93400476D01*
X143295239Y-93362381D01*
X143314287Y-93343333D01*
X143352382Y-93324286D01*
X143409525Y-93324286D01*
X143447620Y-93343333D01*
X143466668Y-93362381D01*
X143485715Y-93400476D01*
X143485715Y-93514762D01*
X143466668Y-93552857D01*
X143447620Y-93571905D01*
X143409525Y-93590952D01*
X143352382Y-93590952D01*
X143828573Y-93324286D02*
X143828573Y-93590952D01*
X143657144Y-93324286D02*
X143657144Y-93533810D01*
X143676192Y-93571905D01*
X143714287Y-93590952D01*
X143771430Y-93590952D01*
X143809525Y-93571905D01*
X143828573Y-93552857D01*
X144019049Y-93590952D02*
X144019049Y-93324286D01*
X144019049Y-93400476D02*
X144038097Y-93362381D01*
X144057144Y-93343333D01*
X144095240Y-93324286D01*
X144133335Y-93324286D01*
X144438097Y-93571905D02*
X144400001Y-93590952D01*
X144323811Y-93590952D01*
X144285716Y-93571905D01*
X144266668Y-93552857D01*
X144247620Y-93514762D01*
X144247620Y-93400476D01*
X144266668Y-93362381D01*
X144285716Y-93343333D01*
X144323811Y-93324286D01*
X144400001Y-93324286D01*
X144438097Y-93343333D01*
X144761906Y-93571905D02*
X144723811Y-93590952D01*
X144647620Y-93590952D01*
X144609525Y-93571905D01*
X144590477Y-93533810D01*
X144590477Y-93381429D01*
X144609525Y-93343333D01*
X144647620Y-93324286D01*
X144723811Y-93324286D01*
X144761906Y-93343333D01*
X144780954Y-93381429D01*
X144780954Y-93419524D01*
X144590477Y-93457619D01*
D13*
X115638096Y-130300000D02*
X115542858Y-130252381D01*
X115400001Y-130252381D01*
X115257143Y-130300000D01*
X115161905Y-130395238D01*
X115114286Y-130490476D01*
X115066667Y-130680952D01*
X115066667Y-130823810D01*
X115114286Y-131014286D01*
X115161905Y-131109524D01*
X115257143Y-131204762D01*
X115400001Y-131252381D01*
X115495239Y-131252381D01*
X115638096Y-131204762D01*
X115685715Y-131157143D01*
X115685715Y-130823810D01*
X115495239Y-130823810D01*
X116114286Y-131252381D02*
X116114286Y-130252381D01*
X116685715Y-131252381D01*
X116685715Y-130252381D01*
X117161905Y-131252381D02*
X117161905Y-130252381D01*
X117400000Y-130252381D01*
X117542858Y-130300000D01*
X117638096Y-130395238D01*
X117685715Y-130490476D01*
X117733334Y-130680952D01*
X117733334Y-130823810D01*
X117685715Y-131014286D01*
X117638096Y-131109524D01*
X117542858Y-131204762D01*
X117400000Y-131252381D01*
X117161905Y-131252381D01*
X115561905Y-128328571D02*
X115704762Y-128376190D01*
X115752381Y-128423810D01*
X115800000Y-128519048D01*
X115800000Y-128661905D01*
X115752381Y-128757143D01*
X115704762Y-128804762D01*
X115609524Y-128852381D01*
X115228571Y-128852381D01*
X115228571Y-127852381D01*
X115561905Y-127852381D01*
X115657143Y-127900000D01*
X115704762Y-127947619D01*
X115752381Y-128042857D01*
X115752381Y-128138095D01*
X115704762Y-128233333D01*
X115657143Y-128280952D01*
X115561905Y-128328571D01*
X115228571Y-128328571D01*
X116180952Y-128566667D02*
X116657143Y-128566667D01*
X116085714Y-128852381D02*
X116419047Y-127852381D01*
X116752381Y-128852381D01*
X116942857Y-127852381D02*
X117514286Y-127852381D01*
X117228571Y-128852381D02*
X117228571Y-127852381D01*
X140290476Y-88885714D02*
X140528571Y-89552381D01*
X140766667Y-88885714D01*
X142433334Y-89552381D02*
X141861905Y-89552381D01*
X142147619Y-89552381D02*
X142147619Y-88552381D01*
X142052381Y-88695238D01*
X141957143Y-88790476D01*
X141861905Y-88838095D01*
X142861905Y-89457143D02*
X142909524Y-89504762D01*
X142861905Y-89552381D01*
X142814286Y-89504762D01*
X142861905Y-89457143D01*
X142861905Y-89552381D01*
X143861905Y-89552381D02*
X143290476Y-89552381D01*
X143576190Y-89552381D02*
X143576190Y-88552381D01*
X143480952Y-88695238D01*
X143385714Y-88790476D01*
X143290476Y-88838095D01*
X119274857Y-105589857D02*
X118074857Y-105589857D01*
X118932000Y-105189857D01*
X118074857Y-104789857D01*
X119274857Y-104789857D01*
X118817714Y-104218428D02*
X118817714Y-103304142D01*
X118646286Y-102332714D02*
X118703429Y-102161285D01*
X118760571Y-102104142D01*
X118874857Y-102046999D01*
X119046286Y-102046999D01*
X119160571Y-102104142D01*
X119217714Y-102161285D01*
X119274857Y-102275571D01*
X119274857Y-102732714D01*
X118074857Y-102732714D01*
X118074857Y-102332714D01*
X118132000Y-102218428D01*
X118189143Y-102161285D01*
X118303429Y-102104142D01*
X118417714Y-102104142D01*
X118532000Y-102161285D01*
X118589143Y-102218428D01*
X118646286Y-102332714D01*
X118646286Y-102732714D01*
X118074857Y-101532714D02*
X119046286Y-101532714D01*
X119160571Y-101475571D01*
X119217714Y-101418428D01*
X119274857Y-101304142D01*
X119274857Y-101075571D01*
X119217714Y-100961285D01*
X119160571Y-100904142D01*
X119046286Y-100846999D01*
X118074857Y-100846999D01*
X119217714Y-100332714D02*
X119274857Y-100161285D01*
X119274857Y-99875571D01*
X119217714Y-99761285D01*
X119160571Y-99704142D01*
X119046286Y-99646999D01*
X118932000Y-99646999D01*
X118817714Y-99704142D01*
X118760571Y-99761285D01*
X118703429Y-99875571D01*
X118646286Y-100104142D01*
X118589143Y-100218428D01*
X118532000Y-100275571D01*
X118417714Y-100332714D01*
X118303429Y-100332714D01*
X118189143Y-100275571D01*
X118132000Y-100218428D01*
X118074857Y-100104142D01*
X118074857Y-99818428D01*
X118132000Y-99646999D01*
X116585714Y-86442857D02*
X116585714Y-87414286D01*
X116642857Y-87528571D01*
X116700000Y-87585714D01*
X116814286Y-87642857D01*
X117042857Y-87642857D01*
X117157143Y-87585714D01*
X117214286Y-87528571D01*
X117271429Y-87414286D01*
X117271429Y-86442857D01*
X117785714Y-87585714D02*
X117957143Y-87642857D01*
X118242857Y-87642857D01*
X118357143Y-87585714D01*
X118414286Y-87528571D01*
X118471429Y-87414286D01*
X118471429Y-87300000D01*
X118414286Y-87185714D01*
X118357143Y-87128571D01*
X118242857Y-87071429D01*
X118014286Y-87014286D01*
X117900000Y-86957143D01*
X117842857Y-86900000D01*
X117785714Y-86785714D01*
X117785714Y-86671429D01*
X117842857Y-86557143D01*
X117900000Y-86500000D01*
X118014286Y-86442857D01*
X118300000Y-86442857D01*
X118471429Y-86500000D01*
X119385714Y-87014286D02*
X119557143Y-87071429D01*
X119614286Y-87128571D01*
X119671429Y-87242857D01*
X119671429Y-87414286D01*
X119614286Y-87528571D01*
X119557143Y-87585714D01*
X119442857Y-87642857D01*
X118985714Y-87642857D01*
X118985714Y-86442857D01*
X119385714Y-86442857D01*
X119500000Y-86500000D01*
X119557143Y-86557143D01*
X119614286Y-86671429D01*
X119614286Y-86785714D01*
X119557143Y-86900000D01*
X119500000Y-86957143D01*
X119385714Y-87014286D01*
X118985714Y-87014286D01*
X121100000Y-87642857D02*
X121100000Y-86442857D01*
X121100000Y-87014286D02*
X121785715Y-87014286D01*
X121785715Y-87642857D02*
X121785715Y-86442857D01*
X122585715Y-86442857D02*
X122814286Y-86442857D01*
X122928572Y-86500000D01*
X123042858Y-86614286D01*
X123100000Y-86842857D01*
X123100000Y-87242857D01*
X123042858Y-87471429D01*
X122928572Y-87585714D01*
X122814286Y-87642857D01*
X122585715Y-87642857D01*
X122471429Y-87585714D01*
X122357143Y-87471429D01*
X122300000Y-87242857D01*
X122300000Y-86842857D01*
X122357143Y-86614286D01*
X122471429Y-86500000D01*
X122585715Y-86442857D01*
X123557143Y-87585714D02*
X123728572Y-87642857D01*
X124014286Y-87642857D01*
X124128572Y-87585714D01*
X124185715Y-87528571D01*
X124242858Y-87414286D01*
X124242858Y-87300000D01*
X124185715Y-87185714D01*
X124128572Y-87128571D01*
X124014286Y-87071429D01*
X123785715Y-87014286D01*
X123671429Y-86957143D01*
X123614286Y-86900000D01*
X123557143Y-86785714D01*
X123557143Y-86671429D01*
X123614286Y-86557143D01*
X123671429Y-86500000D01*
X123785715Y-86442857D01*
X124071429Y-86442857D01*
X124242858Y-86500000D01*
X124585715Y-86442857D02*
X125271429Y-86442857D01*
X124928572Y-87642857D02*
X124928572Y-86442857D01*
X126528572Y-87585714D02*
X126700001Y-87642857D01*
X126985715Y-87642857D01*
X127100001Y-87585714D01*
X127157144Y-87528571D01*
X127214287Y-87414286D01*
X127214287Y-87300000D01*
X127157144Y-87185714D01*
X127100001Y-87128571D01*
X126985715Y-87071429D01*
X126757144Y-87014286D01*
X126642858Y-86957143D01*
X126585715Y-86900000D01*
X126528572Y-86785714D01*
X126528572Y-86671429D01*
X126585715Y-86557143D01*
X126642858Y-86500000D01*
X126757144Y-86442857D01*
X127042858Y-86442857D01*
X127214287Y-86500000D01*
X127728572Y-87642857D02*
X127728572Y-86442857D01*
X127728572Y-87014286D02*
X128414287Y-87014286D01*
X128414287Y-87642857D02*
X128414287Y-86442857D01*
X128985715Y-87642857D02*
X128985715Y-86442857D01*
X129557144Y-87014286D02*
X129957144Y-87014286D01*
X130128573Y-87642857D02*
X129557144Y-87642857D01*
X129557144Y-86442857D01*
X130128573Y-86442857D01*
X131214287Y-87642857D02*
X130642858Y-87642857D01*
X130642858Y-86442857D01*
X131614287Y-87642857D02*
X131614287Y-86442857D01*
X131900002Y-86442857D01*
X132071430Y-86500000D01*
X132185716Y-86614286D01*
X132242859Y-86728571D01*
X132300002Y-86957143D01*
X132300002Y-87128571D01*
X132242859Y-87357143D01*
X132185716Y-87471429D01*
X132071430Y-87585714D01*
X131900002Y-87642857D01*
X131614287Y-87642857D01*
X133557145Y-86842857D02*
X134014288Y-86842857D01*
X133728573Y-87642857D02*
X133728573Y-86614286D01*
X133785716Y-86500000D01*
X133900002Y-86442857D01*
X134014288Y-86442857D01*
X134585716Y-87642857D02*
X134471430Y-87585714D01*
X134414287Y-87528571D01*
X134357144Y-87414286D01*
X134357144Y-87071429D01*
X134414287Y-86957143D01*
X134471430Y-86900000D01*
X134585716Y-86842857D01*
X134757144Y-86842857D01*
X134871430Y-86900000D01*
X134928573Y-86957143D01*
X134985716Y-87071429D01*
X134985716Y-87414286D01*
X134928573Y-87528571D01*
X134871430Y-87585714D01*
X134757144Y-87642857D01*
X134585716Y-87642857D01*
X135500001Y-87642857D02*
X135500001Y-86842857D01*
X135500001Y-87071429D02*
X135557144Y-86957143D01*
X135614287Y-86900000D01*
X135728573Y-86842857D01*
X135842858Y-86842857D01*
X137157144Y-87642857D02*
X137157144Y-86442857D01*
X137557144Y-87300000D01*
X137957144Y-86442857D01*
X137957144Y-87642857D01*
X139100002Y-86442857D02*
X138528573Y-86442857D01*
X138471430Y-87014286D01*
X138528573Y-86957143D01*
X138642859Y-86900000D01*
X138928573Y-86900000D01*
X139042859Y-86957143D01*
X139100002Y-87014286D01*
X139157145Y-87128571D01*
X139157145Y-87414286D01*
X139100002Y-87528571D01*
X139042859Y-87585714D01*
X138928573Y-87642857D01*
X138642859Y-87642857D01*
X138528573Y-87585714D01*
X138471430Y-87528571D01*
X139614287Y-87585714D02*
X139785716Y-87642857D01*
X140071430Y-87642857D01*
X140185716Y-87585714D01*
X140242859Y-87528571D01*
X140300002Y-87414286D01*
X140300002Y-87300000D01*
X140242859Y-87185714D01*
X140185716Y-87128571D01*
X140071430Y-87071429D01*
X139842859Y-87014286D01*
X139728573Y-86957143D01*
X139671430Y-86900000D01*
X139614287Y-86785714D01*
X139614287Y-86671429D01*
X139671430Y-86557143D01*
X139728573Y-86500000D01*
X139842859Y-86442857D01*
X140128573Y-86442857D01*
X140300002Y-86500000D01*
X140642859Y-86842857D02*
X141100002Y-86842857D01*
X140814287Y-86442857D02*
X140814287Y-87471429D01*
X140871430Y-87585714D01*
X140985716Y-87642857D01*
X141100002Y-87642857D01*
X142014287Y-87642857D02*
X142014287Y-87014286D01*
X141957144Y-86900000D01*
X141842858Y-86842857D01*
X141614287Y-86842857D01*
X141500001Y-86900000D01*
X142014287Y-87585714D02*
X141900001Y-87642857D01*
X141614287Y-87642857D01*
X141500001Y-87585714D01*
X141442858Y-87471429D01*
X141442858Y-87357143D01*
X141500001Y-87242857D01*
X141614287Y-87185714D01*
X141900001Y-87185714D01*
X142014287Y-87128571D01*
X143100001Y-87585714D02*
X142985715Y-87642857D01*
X142757144Y-87642857D01*
X142642858Y-87585714D01*
X142585715Y-87528571D01*
X142528572Y-87414286D01*
X142528572Y-87071429D01*
X142585715Y-86957143D01*
X142642858Y-86900000D01*
X142757144Y-86842857D01*
X142985715Y-86842857D01*
X143100001Y-86900000D01*
X143614286Y-87642857D02*
X143614286Y-86442857D01*
X143728572Y-87185714D02*
X144071429Y-87642857D01*
X144071429Y-86842857D02*
X143614286Y-87300000D01*
X129233210Y-104952000D02*
G75*
G03X129233210Y-104952000I-359210J0D01*
G01*
X115247429Y-125149905D02*
X115199810Y-125292762D01*
X115152190Y-125340381D01*
X115056952Y-125388000D01*
X114914095Y-125388000D01*
X114818857Y-125340381D01*
X114771238Y-125292762D01*
X114723619Y-125197524D01*
X114723619Y-124816571D01*
X115723619Y-124816571D01*
X115723619Y-125149905D01*
X115676000Y-125245143D01*
X115628381Y-125292762D01*
X115533143Y-125340381D01*
X115437905Y-125340381D01*
X115342667Y-125292762D01*
X115295048Y-125245143D01*
X115247429Y-125149905D01*
X115247429Y-124816571D01*
X115009333Y-125768952D02*
X115009333Y-126245143D01*
X114723619Y-125673714D02*
X115723619Y-126007047D01*
X114723619Y-126340381D01*
X115723619Y-126530857D02*
X115723619Y-127102286D01*
X114723619Y-126816571D02*
X115723619Y-126816571D01*
X115723619Y-123157524D02*
X115723619Y-122681333D01*
X115247429Y-122633714D01*
X115295048Y-122681333D01*
X115342667Y-122776571D01*
X115342667Y-123014667D01*
X115295048Y-123109905D01*
X115247429Y-123157524D01*
X115152190Y-123205143D01*
X114914095Y-123205143D01*
X114818857Y-123157524D01*
X114771238Y-123109905D01*
X114723619Y-123014667D01*
X114723619Y-122776571D01*
X114771238Y-122681333D01*
X114818857Y-122633714D01*
X115723619Y-123490857D02*
X114723619Y-123824190D01*
X115723619Y-124157524D01*
X115723619Y-119998476D02*
X115723619Y-120617524D01*
X115342667Y-120284190D01*
X115342667Y-120427048D01*
X115295048Y-120522286D01*
X115247429Y-120569905D01*
X115152190Y-120617524D01*
X114914095Y-120617524D01*
X114818857Y-120569905D01*
X114771238Y-120522286D01*
X114723619Y-120427048D01*
X114723619Y-120141333D01*
X114771238Y-120046095D01*
X114818857Y-119998476D01*
X115390286Y-121474667D02*
X114723619Y-121474667D01*
X115771238Y-121236571D02*
X115056952Y-120998476D01*
X115056952Y-121617524D01*
X115723619Y-118220381D02*
X115723619Y-118315620D01*
X115676000Y-118410858D01*
X115628381Y-118458477D01*
X115533143Y-118506096D01*
X115342667Y-118553715D01*
X115104571Y-118553715D01*
X114914095Y-118506096D01*
X114818857Y-118458477D01*
X114771238Y-118410858D01*
X114723619Y-118315620D01*
X114723619Y-118220381D01*
X114771238Y-118125143D01*
X114818857Y-118077524D01*
X114914095Y-118029905D01*
X115104571Y-117982286D01*
X115342667Y-117982286D01*
X115533143Y-118029905D01*
X115628381Y-118077524D01*
X115676000Y-118125143D01*
X115723619Y-118220381D01*
X114723619Y-115537524D02*
X114723619Y-114966095D01*
X114723619Y-115251809D02*
X115723619Y-115251809D01*
X115580762Y-115156571D01*
X115485524Y-115061333D01*
X115437905Y-114966095D01*
X115723619Y-115870857D02*
X115723619Y-116489905D01*
X115342667Y-116156571D01*
X115342667Y-116299429D01*
X115295048Y-116394667D01*
X115247429Y-116442286D01*
X115152190Y-116489905D01*
X114914095Y-116489905D01*
X114818857Y-116442286D01*
X114771238Y-116394667D01*
X114723619Y-116299429D01*
X114723619Y-116013714D01*
X114771238Y-115918476D01*
X114818857Y-115870857D01*
X115723619Y-113426096D02*
X115723619Y-112949905D01*
X115247429Y-112902286D01*
X115295048Y-112949905D01*
X115342667Y-113045143D01*
X115342667Y-113283239D01*
X115295048Y-113378477D01*
X115247429Y-113426096D01*
X115152190Y-113473715D01*
X114914095Y-113473715D01*
X114818857Y-113426096D01*
X114771238Y-113378477D01*
X114723619Y-113283239D01*
X114723619Y-113045143D01*
X114771238Y-112949905D01*
X114818857Y-112902286D01*
X115628381Y-109886095D02*
X115676000Y-109933714D01*
X115723619Y-110028952D01*
X115723619Y-110267048D01*
X115676000Y-110362286D01*
X115628381Y-110409905D01*
X115533143Y-110457524D01*
X115437905Y-110457524D01*
X115295048Y-110409905D01*
X114723619Y-109838476D01*
X114723619Y-110457524D01*
X115628381Y-110838476D02*
X115676000Y-110886095D01*
X115723619Y-110981333D01*
X115723619Y-111219429D01*
X115676000Y-111314667D01*
X115628381Y-111362286D01*
X115533143Y-111409905D01*
X115437905Y-111409905D01*
X115295048Y-111362286D01*
X114723619Y-110790857D01*
X114723619Y-111409905D01*
X114723619Y-107917524D02*
X114723619Y-107346095D01*
X114723619Y-107631809D02*
X115723619Y-107631809D01*
X115580762Y-107536571D01*
X115485524Y-107441333D01*
X115437905Y-107346095D01*
X115723619Y-108250857D02*
X115723619Y-108917524D01*
X114723619Y-108488952D01*
X114723619Y-105853715D02*
X114723619Y-105282286D01*
X114723619Y-105568000D02*
X115723619Y-105568000D01*
X115580762Y-105472762D01*
X115485524Y-105377524D01*
X115437905Y-105282286D01*
X115723619Y-101789905D02*
X115723619Y-102408953D01*
X115342667Y-102075619D01*
X115342667Y-102218477D01*
X115295048Y-102313715D01*
X115247429Y-102361334D01*
X115152190Y-102408953D01*
X114914095Y-102408953D01*
X114818857Y-102361334D01*
X114771238Y-102313715D01*
X114723619Y-102218477D01*
X114723619Y-101932762D01*
X114771238Y-101837524D01*
X114818857Y-101789905D01*
X115723619Y-102694667D02*
X114723619Y-103028000D01*
X115723619Y-103361334D01*
X115723619Y-103599429D02*
X115723619Y-104218477D01*
X115342667Y-103885143D01*
X115342667Y-104028001D01*
X115295048Y-104123239D01*
X115247429Y-104170858D01*
X115152190Y-104218477D01*
X114914095Y-104218477D01*
X114818857Y-104170858D01*
X114771238Y-104123239D01*
X114723619Y-104028001D01*
X114723619Y-103742286D01*
X114771238Y-103647048D01*
X114818857Y-103599429D01*
X115628381Y-99726095D02*
X115676000Y-99773714D01*
X115723619Y-99868952D01*
X115723619Y-100107048D01*
X115676000Y-100202286D01*
X115628381Y-100249905D01*
X115533143Y-100297524D01*
X115437905Y-100297524D01*
X115295048Y-100249905D01*
X114723619Y-99678476D01*
X114723619Y-100297524D01*
X115723619Y-101154667D02*
X115723619Y-100964190D01*
X115676000Y-100868952D01*
X115628381Y-100821333D01*
X115485524Y-100726095D01*
X115295048Y-100678476D01*
X114914095Y-100678476D01*
X114818857Y-100726095D01*
X114771238Y-100773714D01*
X114723619Y-100868952D01*
X114723619Y-101059429D01*
X114771238Y-101154667D01*
X114818857Y-101202286D01*
X114914095Y-101249905D01*
X115152190Y-101249905D01*
X115247429Y-101202286D01*
X115295048Y-101154667D01*
X115342667Y-101059429D01*
X115342667Y-100868952D01*
X115295048Y-100773714D01*
X115247429Y-100726095D01*
X115152190Y-100678476D01*
X115628381Y-97186095D02*
X115676000Y-97233714D01*
X115723619Y-97328952D01*
X115723619Y-97567048D01*
X115676000Y-97662286D01*
X115628381Y-97709905D01*
X115533143Y-97757524D01*
X115437905Y-97757524D01*
X115295048Y-97709905D01*
X114723619Y-97138476D01*
X114723619Y-97757524D01*
X115723619Y-98662286D02*
X115723619Y-98186095D01*
X115247429Y-98138476D01*
X115295048Y-98186095D01*
X115342667Y-98281333D01*
X115342667Y-98519429D01*
X115295048Y-98614667D01*
X115247429Y-98662286D01*
X115152190Y-98709905D01*
X114914095Y-98709905D01*
X114818857Y-98662286D01*
X114771238Y-98614667D01*
X114723619Y-98519429D01*
X114723619Y-98281333D01*
X114771238Y-98186095D01*
X114818857Y-98138476D01*
X115247429Y-94669905D02*
X115247429Y-95003239D01*
X114723619Y-95146096D02*
X114723619Y-94669905D01*
X115723619Y-94669905D01*
X115723619Y-95146096D01*
X114723619Y-95574667D02*
X115723619Y-95574667D01*
X114723619Y-96146096D01*
X115723619Y-96146096D01*
X115723619Y-92058476D02*
X115723619Y-92677524D01*
X115342667Y-92344190D01*
X115342667Y-92487048D01*
X115295048Y-92582286D01*
X115247429Y-92629905D01*
X115152190Y-92677524D01*
X114914095Y-92677524D01*
X114818857Y-92629905D01*
X114771238Y-92582286D01*
X114723619Y-92487048D01*
X114723619Y-92201333D01*
X114771238Y-92106095D01*
X114818857Y-92058476D01*
X115723619Y-93534667D02*
X115723619Y-93344190D01*
X115676000Y-93248952D01*
X115628381Y-93201333D01*
X115485524Y-93106095D01*
X115295048Y-93058476D01*
X114914095Y-93058476D01*
X114818857Y-93106095D01*
X114771238Y-93153714D01*
X114723619Y-93248952D01*
X114723619Y-93439429D01*
X114771238Y-93534667D01*
X114818857Y-93582286D01*
X114914095Y-93629905D01*
X115152190Y-93629905D01*
X115247429Y-93582286D01*
X115295048Y-93534667D01*
X115342667Y-93439429D01*
X115342667Y-93248952D01*
X115295048Y-93153714D01*
X115247429Y-93106095D01*
X115152190Y-93058476D01*
X115723619Y-89518476D02*
X115723619Y-90137524D01*
X115342667Y-89804190D01*
X115342667Y-89947048D01*
X115295048Y-90042286D01*
X115247429Y-90089905D01*
X115152190Y-90137524D01*
X114914095Y-90137524D01*
X114818857Y-90089905D01*
X114771238Y-90042286D01*
X114723619Y-89947048D01*
X114723619Y-89661333D01*
X114771238Y-89566095D01*
X114818857Y-89518476D01*
X115723619Y-91042286D02*
X115723619Y-90566095D01*
X115247429Y-90518476D01*
X115295048Y-90566095D01*
X115342667Y-90661333D01*
X115342667Y-90899429D01*
X115295048Y-90994667D01*
X115247429Y-91042286D01*
X115152190Y-91089905D01*
X114914095Y-91089905D01*
X114818857Y-91042286D01*
X114771238Y-90994667D01*
X114723619Y-90899429D01*
X114723619Y-90661333D01*
X114771238Y-90566095D01*
X114818857Y-90518476D01*
X105778000Y-126396000D02*
X104000000Y-126396000D01*
X105778000Y-120300000D02*
X105778000Y-126396000D01*
X104000000Y-120300000D02*
X105778000Y-120300000D01*
X105778000Y-89820000D02*
X105778000Y-95916000D01*
X105778000Y-95916000D02*
X104000000Y-95916000D01*
X104000000Y-89820000D02*
X105778000Y-89820000D01*
X105468381Y-125205143D02*
X104468381Y-125205143D01*
X104944571Y-125205143D02*
X104944571Y-124633714D01*
X105468381Y-124633714D02*
X104468381Y-124633714D01*
X105468381Y-124157524D02*
X104468381Y-124157524D01*
X104468381Y-123776571D01*
X104516000Y-123681333D01*
X104563619Y-123633714D01*
X104658857Y-123586095D01*
X104801714Y-123586095D01*
X104896952Y-123633714D01*
X104944571Y-123681333D01*
X104992190Y-123776571D01*
X104992190Y-124157524D01*
X104468381Y-123252762D02*
X105468381Y-123014667D01*
X104754095Y-122824190D01*
X105468381Y-122633714D01*
X104468381Y-122395619D01*
X105468381Y-121443238D02*
X104992190Y-121776572D01*
X105468381Y-122014667D02*
X104468381Y-122014667D01*
X104468381Y-121633714D01*
X104516000Y-121538476D01*
X104563619Y-121490857D01*
X104658857Y-121443238D01*
X104801714Y-121443238D01*
X104896952Y-121490857D01*
X104944571Y-121538476D01*
X104992190Y-121633714D01*
X104992190Y-122014667D01*
X105468381Y-118458476D02*
X105468381Y-119029905D01*
X105468381Y-118744191D02*
X104468381Y-118744191D01*
X104611238Y-118839429D01*
X104706476Y-118934667D01*
X104754095Y-119029905D01*
X104468381Y-117553714D02*
X104468381Y-118029905D01*
X104944571Y-118077524D01*
X104896952Y-118029905D01*
X104849333Y-117934667D01*
X104849333Y-117696571D01*
X104896952Y-117601333D01*
X104944571Y-117553714D01*
X105039810Y-117506095D01*
X105277905Y-117506095D01*
X105373143Y-117553714D01*
X105420762Y-117601333D01*
X105468381Y-117696571D01*
X105468381Y-117934667D01*
X105420762Y-118029905D01*
X105373143Y-118077524D01*
X105468381Y-115918476D02*
X105468381Y-116489905D01*
X105468381Y-116204191D02*
X104468381Y-116204191D01*
X104611238Y-116299429D01*
X104706476Y-116394667D01*
X104754095Y-116489905D01*
X104563619Y-115537524D02*
X104516000Y-115489905D01*
X104468381Y-115394667D01*
X104468381Y-115156571D01*
X104516000Y-115061333D01*
X104563619Y-115013714D01*
X104658857Y-114966095D01*
X104754095Y-114966095D01*
X104896952Y-115013714D01*
X105468381Y-115585143D01*
X105468381Y-114966095D01*
X104563619Y-113473714D02*
X104516000Y-113426095D01*
X104468381Y-113330857D01*
X104468381Y-113092761D01*
X104516000Y-112997523D01*
X104563619Y-112949904D01*
X104658857Y-112902285D01*
X104754095Y-112902285D01*
X104896952Y-112949904D01*
X105468381Y-113521333D01*
X105468381Y-112902285D01*
X104563619Y-111409905D02*
X104516000Y-111362286D01*
X104468381Y-111267048D01*
X104468381Y-111028952D01*
X104516000Y-110933714D01*
X104563619Y-110886095D01*
X104658857Y-110838476D01*
X104754095Y-110838476D01*
X104896952Y-110886095D01*
X105468381Y-111457524D01*
X105468381Y-110838476D01*
X105468381Y-109886095D02*
X105468381Y-110457524D01*
X105468381Y-110171810D02*
X104468381Y-110171810D01*
X104611238Y-110267048D01*
X104706476Y-110362286D01*
X104754095Y-110457524D01*
X105468381Y-108298476D02*
X105468381Y-108869905D01*
X105468381Y-108584191D02*
X104468381Y-108584191D01*
X104611238Y-108679429D01*
X104706476Y-108774667D01*
X104754095Y-108869905D01*
X104468381Y-107441333D02*
X104468381Y-107631810D01*
X104516000Y-107727048D01*
X104563619Y-107774667D01*
X104706476Y-107869905D01*
X104896952Y-107917524D01*
X105277905Y-107917524D01*
X105373143Y-107869905D01*
X105420762Y-107822286D01*
X105468381Y-107727048D01*
X105468381Y-107536571D01*
X105420762Y-107441333D01*
X105373143Y-107393714D01*
X105277905Y-107346095D01*
X105039810Y-107346095D01*
X104944571Y-107393714D01*
X104896952Y-107441333D01*
X104849333Y-107536571D01*
X104849333Y-107727048D01*
X104896952Y-107822286D01*
X104944571Y-107869905D01*
X105039810Y-107917524D01*
X104468381Y-105901333D02*
X104468381Y-105282285D01*
X104849333Y-105615619D01*
X104849333Y-105472761D01*
X104896952Y-105377523D01*
X104944571Y-105329904D01*
X105039810Y-105282285D01*
X105277905Y-105282285D01*
X105373143Y-105329904D01*
X105420762Y-105377523D01*
X105468381Y-105472761D01*
X105468381Y-105758476D01*
X105420762Y-105853714D01*
X105373143Y-105901333D01*
X105468381Y-103218476D02*
X105468381Y-103789905D01*
X105468381Y-103504191D02*
X104468381Y-103504191D01*
X104611238Y-103599429D01*
X104706476Y-103694667D01*
X104754095Y-103789905D01*
X104896952Y-102647048D02*
X104849333Y-102742286D01*
X104801714Y-102789905D01*
X104706476Y-102837524D01*
X104658857Y-102837524D01*
X104563619Y-102789905D01*
X104516000Y-102742286D01*
X104468381Y-102647048D01*
X104468381Y-102456571D01*
X104516000Y-102361333D01*
X104563619Y-102313714D01*
X104658857Y-102266095D01*
X104706476Y-102266095D01*
X104801714Y-102313714D01*
X104849333Y-102361333D01*
X104896952Y-102456571D01*
X104896952Y-102647048D01*
X104944571Y-102742286D01*
X104992190Y-102789905D01*
X105087429Y-102837524D01*
X105277905Y-102837524D01*
X105373143Y-102789905D01*
X105420762Y-102742286D01*
X105468381Y-102647048D01*
X105468381Y-102456571D01*
X105420762Y-102361333D01*
X105373143Y-102313714D01*
X105277905Y-102266095D01*
X105087429Y-102266095D01*
X104992190Y-102313714D01*
X104944571Y-102361333D01*
X104896952Y-102456571D01*
X105468381Y-100678476D02*
X105468381Y-101249905D01*
X105468381Y-100964191D02*
X104468381Y-100964191D01*
X104611238Y-101059429D01*
X104706476Y-101154667D01*
X104754095Y-101249905D01*
X105468381Y-100202286D02*
X105468381Y-100011810D01*
X105420762Y-99916571D01*
X105373143Y-99868952D01*
X105230286Y-99773714D01*
X105039810Y-99726095D01*
X104658857Y-99726095D01*
X104563619Y-99773714D01*
X104516000Y-99821333D01*
X104468381Y-99916571D01*
X104468381Y-100107048D01*
X104516000Y-100202286D01*
X104563619Y-100249905D01*
X104658857Y-100297524D01*
X104896952Y-100297524D01*
X104992190Y-100249905D01*
X105039810Y-100202286D01*
X105087429Y-100107048D01*
X105087429Y-99916571D01*
X105039810Y-99821333D01*
X104992190Y-99773714D01*
X104896952Y-99726095D01*
X104563619Y-98709905D02*
X104516000Y-98662286D01*
X104468381Y-98567048D01*
X104468381Y-98328952D01*
X104516000Y-98233714D01*
X104563619Y-98186095D01*
X104658857Y-98138476D01*
X104754095Y-98138476D01*
X104896952Y-98186095D01*
X105468381Y-98757524D01*
X105468381Y-98138476D01*
X104468381Y-97805143D02*
X104468381Y-97186095D01*
X104849333Y-97519429D01*
X104849333Y-97376571D01*
X104896952Y-97281333D01*
X104944571Y-97233714D01*
X105039810Y-97186095D01*
X105277905Y-97186095D01*
X105373143Y-97233714D01*
X105420762Y-97281333D01*
X105468381Y-97376571D01*
X105468381Y-97662286D01*
X105420762Y-97757524D01*
X105373143Y-97805143D01*
X104516000Y-93629904D02*
X104468381Y-93725142D01*
X104468381Y-93867999D01*
X104516000Y-94010857D01*
X104611238Y-94106095D01*
X104706476Y-94153714D01*
X104896952Y-94201333D01*
X105039810Y-94201333D01*
X105230286Y-94153714D01*
X105325524Y-94106095D01*
X105420762Y-94010857D01*
X105468381Y-93867999D01*
X105468381Y-93772761D01*
X105420762Y-93629904D01*
X105373143Y-93582285D01*
X105039810Y-93582285D01*
X105039810Y-93772761D01*
X105468381Y-93153714D02*
X104468381Y-93153714D01*
X105468381Y-92582285D01*
X104468381Y-92582285D01*
X105468381Y-92106095D02*
X104468381Y-92106095D01*
X104468381Y-91868000D01*
X104516000Y-91725142D01*
X104611238Y-91629904D01*
X104706476Y-91582285D01*
X104896952Y-91534666D01*
X105039810Y-91534666D01*
X105230286Y-91582285D01*
X105325524Y-91629904D01*
X105420762Y-91725142D01*
X105468381Y-91868000D01*
X105468381Y-92106095D01*
D14*
X138214000Y-115570000D02*
X138214000Y-114870000D01*
X139414000Y-114870000D02*
X139414000Y-115570000D01*
X134642000Y-115570000D02*
X134642000Y-114870000D01*
X135842000Y-114870000D02*
X135842000Y-115570000D01*
X136420000Y-115570000D02*
X136420000Y-114870000D01*
X137620000Y-114870000D02*
X137620000Y-115570000D01*
X125800000Y-107750000D02*
X125800000Y-107050000D01*
X127000000Y-107050000D02*
X127000000Y-107750000D01*
X133550000Y-99400000D02*
X132850000Y-99400000D01*
X132850000Y-98200000D02*
X133550000Y-98200000D01*
X137050000Y-98200000D02*
X137750000Y-98200000D01*
X137750000Y-99400000D02*
X137050000Y-99400000D01*
X138900000Y-107680000D02*
X137900000Y-107680000D01*
X137900000Y-106320000D02*
X138900000Y-106320000D01*
X138900000Y-109680000D02*
X137900000Y-109680000D01*
X137900000Y-108320000D02*
X138900000Y-108320000D01*
X124880000Y-106900000D02*
X124880000Y-107900000D01*
X123520000Y-107900000D02*
X123520000Y-106900000D01*
D15*
X129300000Y-110500000D02*
X134300000Y-110500000D01*
X134300000Y-110500000D02*
X134300000Y-105500000D01*
X134300000Y-105500000D02*
X129300000Y-105500000D01*
X129300000Y-105500000D02*
X129300000Y-110500000D01*
X130800000Y-106500000D02*
G75*
G03X130800000Y-106500000I-500000J0D01*
G01*
D14*
X138100000Y-100000000D02*
X132350000Y-100000000D01*
X132350000Y-100000000D02*
X132350000Y-103600000D01*
X132350000Y-103600000D02*
X138100000Y-103600000D01*
X120680000Y-126590000D02*
X120680000Y-131790000D01*
X120680000Y-131790000D02*
X123340000Y-131790000D01*
X123340000Y-131790000D02*
X123340000Y-126590000D01*
X123340000Y-126590000D02*
X120680000Y-126590000D01*
X123340000Y-127540000D02*
X129340000Y-127540000D01*
X129340000Y-127540000D02*
X129340000Y-128300000D01*
X129340000Y-128300000D02*
X123340000Y-128300000D01*
X123340000Y-127600000D02*
X129340000Y-127600000D01*
X123340000Y-127720000D02*
X129340000Y-127720000D01*
X123340000Y-127840000D02*
X129340000Y-127840000D01*
X123340000Y-127960000D02*
X129340000Y-127960000D01*
X123340000Y-128080000D02*
X129340000Y-128080000D01*
X123340000Y-128200000D02*
X129340000Y-128200000D01*
X120350000Y-127540000D02*
X120680000Y-127540000D01*
X120350000Y-128300000D02*
X120680000Y-128300000D01*
X120680000Y-129190000D02*
X123340000Y-129190000D01*
X123340000Y-130080000D02*
X129340000Y-130080000D01*
X129340000Y-130080000D02*
X129340000Y-130840000D01*
X129340000Y-130840000D02*
X123340000Y-130840000D01*
X120282929Y-130080000D02*
X120680000Y-130080000D01*
X120282929Y-130840000D02*
X120680000Y-130840000D01*
X117970000Y-127920000D02*
X117970000Y-126650000D01*
X117970000Y-126650000D02*
X119240000Y-126650000D01*
D16*
G36*
X142090680Y-93046200D02*
X142108460Y-93038580D01*
X142141480Y-93015720D01*
X142192280Y-92982700D01*
X142250700Y-92944600D01*
X142311660Y-92903960D01*
X142359920Y-92870940D01*
X142395480Y-92848080D01*
X142408180Y-92840460D01*
X142415800Y-92843000D01*
X142443740Y-92858240D01*
X142484380Y-92878560D01*
X142509780Y-92891260D01*
X142547880Y-92906500D01*
X142565660Y-92911580D01*
X142568200Y-92906500D01*
X142583440Y-92876020D01*
X142603760Y-92827760D01*
X142631700Y-92761720D01*
X142664720Y-92685520D01*
X142700280Y-92604240D01*
X142733300Y-92520420D01*
X142766320Y-92441680D01*
X142796800Y-92368020D01*
X142819660Y-92309600D01*
X142834900Y-92268960D01*
X142842520Y-92251180D01*
X142839980Y-92248640D01*
X142822200Y-92230860D01*
X142789180Y-92205460D01*
X142718060Y-92147040D01*
X142646940Y-92060680D01*
X142603760Y-91961620D01*
X142591060Y-91849860D01*
X142601220Y-91748260D01*
X142641860Y-91651740D01*
X142710440Y-91562840D01*
X142794260Y-91496800D01*
X142890780Y-91456160D01*
X143000000Y-91443460D01*
X143104140Y-91453620D01*
X143203200Y-91494260D01*
X143292100Y-91560300D01*
X143330200Y-91603480D01*
X143381000Y-91694920D01*
X143411480Y-91788900D01*
X143414020Y-91811760D01*
X143408940Y-91918440D01*
X143378460Y-92020040D01*
X143322580Y-92108940D01*
X143246380Y-92182600D01*
X143236220Y-92190220D01*
X143200660Y-92218160D01*
X143175260Y-92235940D01*
X143157480Y-92251180D01*
X143292100Y-92573760D01*
X143312420Y-92624560D01*
X143350520Y-92713460D01*
X143381000Y-92789660D01*
X143408940Y-92850620D01*
X143426720Y-92891260D01*
X143434340Y-92906500D01*
X143434340Y-92906500D01*
X143447040Y-92909040D01*
X143469900Y-92901420D01*
X143515620Y-92878560D01*
X143546100Y-92863320D01*
X143579120Y-92848080D01*
X143594360Y-92840460D01*
X143609600Y-92848080D01*
X143642620Y-92868400D01*
X143688340Y-92901420D01*
X143746760Y-92939520D01*
X143802640Y-92977620D01*
X143853440Y-93010640D01*
X143889000Y-93036040D01*
X143906780Y-93043660D01*
X143909320Y-93043660D01*
X143927100Y-93036040D01*
X143955040Y-93010640D01*
X143998220Y-92970000D01*
X144061720Y-92909040D01*
X144071880Y-92898880D01*
X144122680Y-92848080D01*
X144163320Y-92802360D01*
X144191260Y-92771880D01*
X144201420Y-92759180D01*
X144201420Y-92759180D01*
X144191260Y-92741400D01*
X144168400Y-92703300D01*
X144135380Y-92652500D01*
X144094740Y-92591540D01*
X143988060Y-92436600D01*
X144046480Y-92291820D01*
X144064260Y-92246100D01*
X144087120Y-92190220D01*
X144104900Y-92152120D01*
X144112520Y-92134340D01*
X144130300Y-92129260D01*
X144168400Y-92119100D01*
X144226820Y-92108940D01*
X144297940Y-92096240D01*
X144363980Y-92083540D01*
X144422400Y-92070840D01*
X144465580Y-92063220D01*
X144485900Y-92060680D01*
X144490980Y-92055600D01*
X144493520Y-92047980D01*
X144496060Y-92027660D01*
X144498600Y-91989560D01*
X144498600Y-91933680D01*
X144498600Y-91849860D01*
X144498600Y-91842240D01*
X144498600Y-91763500D01*
X144496060Y-91700000D01*
X144493520Y-91661900D01*
X144490980Y-91644120D01*
X144490980Y-91644120D01*
X144473200Y-91639040D01*
X144430020Y-91631420D01*
X144371600Y-91618720D01*
X144300480Y-91606020D01*
X144295400Y-91606020D01*
X144224280Y-91590780D01*
X144165860Y-91578080D01*
X144122680Y-91570460D01*
X144104900Y-91562840D01*
X144102360Y-91557760D01*
X144087120Y-91529820D01*
X144066800Y-91486640D01*
X144043940Y-91433300D01*
X144021080Y-91377420D01*
X144000760Y-91326620D01*
X143988060Y-91291060D01*
X143982980Y-91273280D01*
X143982980Y-91273280D01*
X143993140Y-91255500D01*
X144018540Y-91219940D01*
X144054100Y-91169140D01*
X144094740Y-91108180D01*
X144097280Y-91103100D01*
X144137920Y-91042140D01*
X144170940Y-90991340D01*
X144193800Y-90955780D01*
X144201420Y-90940540D01*
X144201420Y-90938000D01*
X144188720Y-90920220D01*
X144158240Y-90887200D01*
X144112520Y-90841480D01*
X144061720Y-90788140D01*
X144043940Y-90772900D01*
X143985520Y-90714480D01*
X143944880Y-90678920D01*
X143919480Y-90658600D01*
X143909320Y-90653520D01*
X143906780Y-90653520D01*
X143889000Y-90663680D01*
X143850900Y-90689080D01*
X143800100Y-90724640D01*
X143739140Y-90765280D01*
X143736600Y-90767820D01*
X143675640Y-90808460D01*
X143624840Y-90844020D01*
X143589280Y-90866880D01*
X143574040Y-90874500D01*
X143571500Y-90874500D01*
X143548640Y-90869420D01*
X143505460Y-90854180D01*
X143452120Y-90833860D01*
X143396240Y-90811000D01*
X143345440Y-90790680D01*
X143309880Y-90772900D01*
X143292100Y-90762740D01*
X143289560Y-90762740D01*
X143284480Y-90739880D01*
X143274320Y-90694160D01*
X143261620Y-90633200D01*
X143246380Y-90559540D01*
X143243840Y-90549380D01*
X143231140Y-90475720D01*
X143220980Y-90417300D01*
X143210820Y-90376660D01*
X143208280Y-90358880D01*
X143198120Y-90358880D01*
X143162560Y-90356340D01*
X143109220Y-90353800D01*
X143043180Y-90353800D01*
X142977140Y-90353800D01*
X142911100Y-90353800D01*
X142855220Y-90356340D01*
X142814580Y-90358880D01*
X142796800Y-90363960D01*
X142796800Y-90363960D01*
X142791720Y-90386820D01*
X142781560Y-90430000D01*
X142768860Y-90493500D01*
X142753620Y-90567160D01*
X142751080Y-90579860D01*
X142738380Y-90650980D01*
X142725680Y-90709400D01*
X142718060Y-90750040D01*
X142712980Y-90765280D01*
X142707900Y-90767820D01*
X142677420Y-90783060D01*
X142629160Y-90800840D01*
X142570740Y-90826240D01*
X142433580Y-90882120D01*
X142265940Y-90765280D01*
X142250700Y-90755120D01*
X142189740Y-90714480D01*
X142138940Y-90681460D01*
X142103380Y-90658600D01*
X142090680Y-90650980D01*
X142088140Y-90650980D01*
X142072900Y-90666220D01*
X142039880Y-90696700D01*
X141994160Y-90742420D01*
X141940820Y-90793220D01*
X141900180Y-90833860D01*
X141854460Y-90879580D01*
X141826520Y-90912600D01*
X141808740Y-90932920D01*
X141803660Y-90945620D01*
X141806200Y-90953240D01*
X141816360Y-90971020D01*
X141841760Y-91006580D01*
X141874780Y-91059920D01*
X141915420Y-91118340D01*
X141950980Y-91169140D01*
X141986540Y-91225020D01*
X142009400Y-91265660D01*
X142019560Y-91283440D01*
X142017020Y-91293600D01*
X142004320Y-91326620D01*
X141984000Y-91374880D01*
X141958600Y-91435840D01*
X141900180Y-91567920D01*
X141813820Y-91585700D01*
X141760480Y-91595860D01*
X141686820Y-91608560D01*
X141615700Y-91623800D01*
X141503940Y-91644120D01*
X141501400Y-92047980D01*
X141519180Y-92055600D01*
X141534420Y-92060680D01*
X141575060Y-92070840D01*
X141633480Y-92081000D01*
X141702060Y-92093700D01*
X141763020Y-92106400D01*
X141821440Y-92116560D01*
X141864620Y-92124180D01*
X141882400Y-92129260D01*
X141887480Y-92134340D01*
X141902720Y-92164820D01*
X141923040Y-92210540D01*
X141945900Y-92263880D01*
X141971300Y-92322300D01*
X141991620Y-92373100D01*
X142006860Y-92413740D01*
X142011940Y-92434060D01*
X142004320Y-92449300D01*
X141981460Y-92484860D01*
X141948440Y-92535660D01*
X141907800Y-92594080D01*
X141867160Y-92652500D01*
X141834140Y-92703300D01*
X141808740Y-92738860D01*
X141801120Y-92756640D01*
X141806200Y-92766800D01*
X141829060Y-92794740D01*
X141872240Y-92840460D01*
X141938280Y-92906500D01*
X141950980Y-92916660D01*
X142001780Y-92967460D01*
X142047500Y-93008100D01*
X142077980Y-93036040D01*
X142090680Y-93046200D01*
X142090680Y-93046200D01*
G37*
X142090680Y-93046200D02*
X142108460Y-93038580D01*
X142141480Y-93015720D01*
X142192280Y-92982700D01*
X142250700Y-92944600D01*
X142311660Y-92903960D01*
X142359920Y-92870940D01*
X142395480Y-92848080D01*
X142408180Y-92840460D01*
X142415800Y-92843000D01*
X142443740Y-92858240D01*
X142484380Y-92878560D01*
X142509780Y-92891260D01*
X142547880Y-92906500D01*
X142565660Y-92911580D01*
X142568200Y-92906500D01*
X142583440Y-92876020D01*
X142603760Y-92827760D01*
X142631700Y-92761720D01*
X142664720Y-92685520D01*
X142700280Y-92604240D01*
X142733300Y-92520420D01*
X142766320Y-92441680D01*
X142796800Y-92368020D01*
X142819660Y-92309600D01*
X142834900Y-92268960D01*
X142842520Y-92251180D01*
X142839980Y-92248640D01*
X142822200Y-92230860D01*
X142789180Y-92205460D01*
X142718060Y-92147040D01*
X142646940Y-92060680D01*
X142603760Y-91961620D01*
X142591060Y-91849860D01*
X142601220Y-91748260D01*
X142641860Y-91651740D01*
X142710440Y-91562840D01*
X142794260Y-91496800D01*
X142890780Y-91456160D01*
X143000000Y-91443460D01*
X143104140Y-91453620D01*
X143203200Y-91494260D01*
X143292100Y-91560300D01*
X143330200Y-91603480D01*
X143381000Y-91694920D01*
X143411480Y-91788900D01*
X143414020Y-91811760D01*
X143408940Y-91918440D01*
X143378460Y-92020040D01*
X143322580Y-92108940D01*
X143246380Y-92182600D01*
X143236220Y-92190220D01*
X143200660Y-92218160D01*
X143175260Y-92235940D01*
X143157480Y-92251180D01*
X143292100Y-92573760D01*
X143312420Y-92624560D01*
X143350520Y-92713460D01*
X143381000Y-92789660D01*
X143408940Y-92850620D01*
X143426720Y-92891260D01*
X143434340Y-92906500D01*
X143434340Y-92906500D01*
X143447040Y-92909040D01*
X143469900Y-92901420D01*
X143515620Y-92878560D01*
X143546100Y-92863320D01*
X143579120Y-92848080D01*
X143594360Y-92840460D01*
X143609600Y-92848080D01*
X143642620Y-92868400D01*
X143688340Y-92901420D01*
X143746760Y-92939520D01*
X143802640Y-92977620D01*
X143853440Y-93010640D01*
X143889000Y-93036040D01*
X143906780Y-93043660D01*
X143909320Y-93043660D01*
X143927100Y-93036040D01*
X143955040Y-93010640D01*
X143998220Y-92970000D01*
X144061720Y-92909040D01*
X144071880Y-92898880D01*
X144122680Y-92848080D01*
X144163320Y-92802360D01*
X144191260Y-92771880D01*
X144201420Y-92759180D01*
X144201420Y-92759180D01*
X144191260Y-92741400D01*
X144168400Y-92703300D01*
X144135380Y-92652500D01*
X144094740Y-92591540D01*
X143988060Y-92436600D01*
X144046480Y-92291820D01*
X144064260Y-92246100D01*
X144087120Y-92190220D01*
X144104900Y-92152120D01*
X144112520Y-92134340D01*
X144130300Y-92129260D01*
X144168400Y-92119100D01*
X144226820Y-92108940D01*
X144297940Y-92096240D01*
X144363980Y-92083540D01*
X144422400Y-92070840D01*
X144465580Y-92063220D01*
X144485900Y-92060680D01*
X144490980Y-92055600D01*
X144493520Y-92047980D01*
X144496060Y-92027660D01*
X144498600Y-91989560D01*
X144498600Y-91933680D01*
X144498600Y-91849860D01*
X144498600Y-91842240D01*
X144498600Y-91763500D01*
X144496060Y-91700000D01*
X144493520Y-91661900D01*
X144490980Y-91644120D01*
X144490980Y-91644120D01*
X144473200Y-91639040D01*
X144430020Y-91631420D01*
X144371600Y-91618720D01*
X144300480Y-91606020D01*
X144295400Y-91606020D01*
X144224280Y-91590780D01*
X144165860Y-91578080D01*
X144122680Y-91570460D01*
X144104900Y-91562840D01*
X144102360Y-91557760D01*
X144087120Y-91529820D01*
X144066800Y-91486640D01*
X144043940Y-91433300D01*
X144021080Y-91377420D01*
X144000760Y-91326620D01*
X143988060Y-91291060D01*
X143982980Y-91273280D01*
X143982980Y-91273280D01*
X143993140Y-91255500D01*
X144018540Y-91219940D01*
X144054100Y-91169140D01*
X144094740Y-91108180D01*
X144097280Y-91103100D01*
X144137920Y-91042140D01*
X144170940Y-90991340D01*
X144193800Y-90955780D01*
X144201420Y-90940540D01*
X144201420Y-90938000D01*
X144188720Y-90920220D01*
X144158240Y-90887200D01*
X144112520Y-90841480D01*
X144061720Y-90788140D01*
X144043940Y-90772900D01*
X143985520Y-90714480D01*
X143944880Y-90678920D01*
X143919480Y-90658600D01*
X143909320Y-90653520D01*
X143906780Y-90653520D01*
X143889000Y-90663680D01*
X143850900Y-90689080D01*
X143800100Y-90724640D01*
X143739140Y-90765280D01*
X143736600Y-90767820D01*
X143675640Y-90808460D01*
X143624840Y-90844020D01*
X143589280Y-90866880D01*
X143574040Y-90874500D01*
X143571500Y-90874500D01*
X143548640Y-90869420D01*
X143505460Y-90854180D01*
X143452120Y-90833860D01*
X143396240Y-90811000D01*
X143345440Y-90790680D01*
X143309880Y-90772900D01*
X143292100Y-90762740D01*
X143289560Y-90762740D01*
X143284480Y-90739880D01*
X143274320Y-90694160D01*
X143261620Y-90633200D01*
X143246380Y-90559540D01*
X143243840Y-90549380D01*
X143231140Y-90475720D01*
X143220980Y-90417300D01*
X143210820Y-90376660D01*
X143208280Y-90358880D01*
X143198120Y-90358880D01*
X143162560Y-90356340D01*
X143109220Y-90353800D01*
X143043180Y-90353800D01*
X142977140Y-90353800D01*
X142911100Y-90353800D01*
X142855220Y-90356340D01*
X142814580Y-90358880D01*
X142796800Y-90363960D01*
X142796800Y-90363960D01*
X142791720Y-90386820D01*
X142781560Y-90430000D01*
X142768860Y-90493500D01*
X142753620Y-90567160D01*
X142751080Y-90579860D01*
X142738380Y-90650980D01*
X142725680Y-90709400D01*
X142718060Y-90750040D01*
X142712980Y-90765280D01*
X142707900Y-90767820D01*
X142677420Y-90783060D01*
X142629160Y-90800840D01*
X142570740Y-90826240D01*
X142433580Y-90882120D01*
X142265940Y-90765280D01*
X142250700Y-90755120D01*
X142189740Y-90714480D01*
X142138940Y-90681460D01*
X142103380Y-90658600D01*
X142090680Y-90650980D01*
X142088140Y-90650980D01*
X142072900Y-90666220D01*
X142039880Y-90696700D01*
X141994160Y-90742420D01*
X141940820Y-90793220D01*
X141900180Y-90833860D01*
X141854460Y-90879580D01*
X141826520Y-90912600D01*
X141808740Y-90932920D01*
X141803660Y-90945620D01*
X141806200Y-90953240D01*
X141816360Y-90971020D01*
X141841760Y-91006580D01*
X141874780Y-91059920D01*
X141915420Y-91118340D01*
X141950980Y-91169140D01*
X141986540Y-91225020D01*
X142009400Y-91265660D01*
X142019560Y-91283440D01*
X142017020Y-91293600D01*
X142004320Y-91326620D01*
X141984000Y-91374880D01*
X141958600Y-91435840D01*
X141900180Y-91567920D01*
X141813820Y-91585700D01*
X141760480Y-91595860D01*
X141686820Y-91608560D01*
X141615700Y-91623800D01*
X141503940Y-91644120D01*
X141501400Y-92047980D01*
X141519180Y-92055600D01*
X141534420Y-92060680D01*
X141575060Y-92070840D01*
X141633480Y-92081000D01*
X141702060Y-92093700D01*
X141763020Y-92106400D01*
X141821440Y-92116560D01*
X141864620Y-92124180D01*
X141882400Y-92129260D01*
X141887480Y-92134340D01*
X141902720Y-92164820D01*
X141923040Y-92210540D01*
X141945900Y-92263880D01*
X141971300Y-92322300D01*
X141991620Y-92373100D01*
X142006860Y-92413740D01*
X142011940Y-92434060D01*
X142004320Y-92449300D01*
X141981460Y-92484860D01*
X141948440Y-92535660D01*
X141907800Y-92594080D01*
X141867160Y-92652500D01*
X141834140Y-92703300D01*
X141808740Y-92738860D01*
X141801120Y-92756640D01*
X141806200Y-92766800D01*
X141829060Y-92794740D01*
X141872240Y-92840460D01*
X141938280Y-92906500D01*
X141950980Y-92916660D01*
X142001780Y-92967460D01*
X142047500Y-93008100D01*
X142077980Y-93036040D01*
X142090680Y-93046200D01*
D14*
X139960000Y-100512400D02*
X142290000Y-100512400D01*
X139960000Y-115502400D02*
X142080000Y-115502400D01*
X139960000Y-100512400D02*
X139960000Y-115502400D01*
X154050000Y-100512400D02*
X154050000Y-115502400D01*
X145250000Y-100512400D02*
X154050000Y-100512400D01*
X145450000Y-115502400D02*
X154050000Y-115502400D01*
D11*
X147800000Y-89400000D02*
X147800000Y-98600000D01*
X152200000Y-89400000D02*
X152200000Y-98600000D01*
X148200000Y-98600000D02*
X147800000Y-98600000D01*
X151800000Y-98600000D02*
X152200000Y-98600000D01*
X151800000Y-89400000D02*
X152200000Y-89400000D01*
X148200000Y-89400000D02*
X147800000Y-89400000D01*
X152200000Y-94000000D02*
X156200000Y-94000000D01*
X156200000Y-94000000D02*
X156000000Y-93000000D01*
X156000000Y-93000000D02*
X156200000Y-92000000D01*
X152200000Y-92000000D02*
X156200000Y-92000000D01*
D14*
X116147000Y-127023000D02*
X116147000Y-126023000D01*
X117507000Y-126023000D02*
X117507000Y-127023000D01*
X107400000Y-88890000D02*
X112600000Y-88890000D01*
X107400000Y-127110000D02*
X112600000Y-127110000D01*
X105960000Y-89460000D02*
X107400000Y-89460000D01*
X107400000Y-88890000D02*
X107400000Y-89460000D01*
X112600000Y-88890000D02*
X112600000Y-89460000D01*
X107400000Y-126540000D02*
X107400000Y-127110000D01*
X112600000Y-126540000D02*
X112600000Y-127110000D01*
X107400000Y-90980000D02*
X107400000Y-92000000D01*
X112600000Y-90980000D02*
X112600000Y-92000000D01*
X107400000Y-93520000D02*
X107400000Y-94540000D01*
X112600000Y-93520000D02*
X112600000Y-94540000D01*
X107400000Y-96060000D02*
X107400000Y-97080000D01*
X112600000Y-96060000D02*
X112600000Y-97080000D01*
X107400000Y-98600000D02*
X107400000Y-99620000D01*
X112600000Y-98600000D02*
X112600000Y-99620000D01*
X107400000Y-101140000D02*
X107400000Y-102160000D01*
X112600000Y-101140000D02*
X112600000Y-102160000D01*
X107400000Y-103680000D02*
X107400000Y-104700000D01*
X112600000Y-103680000D02*
X112600000Y-104700000D01*
X107400000Y-106220000D02*
X107400000Y-107240000D01*
X112600000Y-106220000D02*
X112600000Y-107240000D01*
X107400000Y-108760000D02*
X107400000Y-109780000D01*
X112600000Y-108760000D02*
X112600000Y-109780000D01*
X107400000Y-111300000D02*
X107400000Y-112320000D01*
X112600000Y-111300000D02*
X112600000Y-112320000D01*
X107400000Y-113840000D02*
X107400000Y-114860000D01*
X112600000Y-113840000D02*
X112600000Y-114860000D01*
X107400000Y-116380000D02*
X107400000Y-117400000D01*
X112600000Y-116380000D02*
X112600000Y-117400000D01*
X107400000Y-118920000D02*
X107400000Y-119940000D01*
X112600000Y-118920000D02*
X112600000Y-119940000D01*
X107400000Y-121460000D02*
X107400000Y-122480000D01*
X112600000Y-121460000D02*
X112600000Y-122480000D01*
X107400000Y-124000000D02*
X107400000Y-125020000D01*
X112600000Y-124000000D02*
X112600000Y-125020000D01*
D11*
X149690476Y-82252381D02*
X149690476Y-81252381D01*
X150023810Y-81966667D01*
X150357143Y-81252381D01*
X150357143Y-82252381D01*
X150833333Y-82252381D02*
X150833333Y-81252381D01*
X151404762Y-82252381D02*
X150976190Y-81680952D01*
X151404762Y-81252381D02*
X150833333Y-81823810D01*
X151738095Y-81252381D02*
X152357143Y-81252381D01*
X152023809Y-81633333D01*
X152166667Y-81633333D01*
X152261905Y-81680952D01*
X152309524Y-81728571D01*
X152357143Y-81823810D01*
X152357143Y-82061905D01*
X152309524Y-82157143D01*
X152261905Y-82204762D01*
X152166667Y-82252381D01*
X151880952Y-82252381D01*
X151785714Y-82204762D01*
X151738095Y-82157143D01*
X100150476Y-130150381D02*
X100150476Y-129150381D01*
X100483810Y-129864667D01*
X100817143Y-129150381D01*
X100817143Y-130150381D01*
X101293333Y-130150381D02*
X101293333Y-129150381D01*
X101864762Y-130150381D02*
X101436190Y-129578952D01*
X101864762Y-129150381D02*
X101293333Y-129721810D01*
X102817143Y-130150381D02*
X102245714Y-130150381D01*
X102531428Y-130150381D02*
X102531428Y-129150381D01*
X102436190Y-129293238D01*
X102340952Y-129388476D01*
X102245714Y-129436095D01*
X139155143Y-112973666D02*
X139202762Y-113021285D01*
X139250381Y-113164142D01*
X139250381Y-113259380D01*
X139202762Y-113402238D01*
X139107524Y-113497476D01*
X139012286Y-113545095D01*
X138821810Y-113592714D01*
X138678952Y-113592714D01*
X138488476Y-113545095D01*
X138393238Y-113497476D01*
X138298000Y-113402238D01*
X138250381Y-113259380D01*
X138250381Y-113164142D01*
X138298000Y-113021285D01*
X138345619Y-112973666D01*
X138250381Y-112640333D02*
X138250381Y-112021285D01*
X138631333Y-112354619D01*
X138631333Y-112211761D01*
X138678952Y-112116523D01*
X138726571Y-112068904D01*
X138821810Y-112021285D01*
X139059905Y-112021285D01*
X139155143Y-112068904D01*
X139202762Y-112116523D01*
X139250381Y-112211761D01*
X139250381Y-112497476D01*
X139202762Y-112592714D01*
X139155143Y-112640333D01*
X135599143Y-112719666D02*
X135646762Y-112767285D01*
X135694381Y-112910142D01*
X135694381Y-113005380D01*
X135646762Y-113148238D01*
X135551524Y-113243476D01*
X135456286Y-113291095D01*
X135265810Y-113338714D01*
X135122952Y-113338714D01*
X134932476Y-113291095D01*
X134837238Y-113243476D01*
X134742000Y-113148238D01*
X134694381Y-113005380D01*
X134694381Y-112910142D01*
X134742000Y-112767285D01*
X134789619Y-112719666D01*
X135694381Y-111767285D02*
X135694381Y-112338714D01*
X135694381Y-112053000D02*
X134694381Y-112053000D01*
X134837238Y-112148238D01*
X134932476Y-112243476D01*
X134980095Y-112338714D01*
X137250143Y-112846666D02*
X137297762Y-112894285D01*
X137345381Y-113037142D01*
X137345381Y-113132380D01*
X137297762Y-113275238D01*
X137202524Y-113370476D01*
X137107286Y-113418095D01*
X136916810Y-113465714D01*
X136773952Y-113465714D01*
X136583476Y-113418095D01*
X136488238Y-113370476D01*
X136393000Y-113275238D01*
X136345381Y-113132380D01*
X136345381Y-113037142D01*
X136393000Y-112894285D01*
X136440619Y-112846666D01*
X136440619Y-112465714D02*
X136393000Y-112418095D01*
X136345381Y-112322857D01*
X136345381Y-112084761D01*
X136393000Y-111989523D01*
X136440619Y-111941904D01*
X136535857Y-111894285D01*
X136631095Y-111894285D01*
X136773952Y-111941904D01*
X137345381Y-112513333D01*
X137345381Y-111894285D01*
X126557143Y-105166666D02*
X126604762Y-105214285D01*
X126652381Y-105357142D01*
X126652381Y-105452380D01*
X126604762Y-105595238D01*
X126509524Y-105690476D01*
X126414286Y-105738095D01*
X126223810Y-105785714D01*
X126080952Y-105785714D01*
X125890476Y-105738095D01*
X125795238Y-105690476D01*
X125700000Y-105595238D01*
X125652381Y-105452380D01*
X125652381Y-105357142D01*
X125700000Y-105214285D01*
X125747619Y-105166666D01*
X125652381Y-104261904D02*
X125652381Y-104738095D01*
X126128571Y-104785714D01*
X126080952Y-104738095D01*
X126033333Y-104642857D01*
X126033333Y-104404761D01*
X126080952Y-104309523D01*
X126128571Y-104261904D01*
X126223810Y-104214285D01*
X126461905Y-104214285D01*
X126557143Y-104261904D01*
X126604762Y-104309523D01*
X126652381Y-104404761D01*
X126652381Y-104642857D01*
X126604762Y-104738095D01*
X126557143Y-104785714D01*
X133033334Y-97657143D02*
X132985715Y-97704762D01*
X132842858Y-97752381D01*
X132747620Y-97752381D01*
X132604762Y-97704762D01*
X132509524Y-97609524D01*
X132461905Y-97514286D01*
X132414286Y-97323810D01*
X132414286Y-97180952D01*
X132461905Y-96990476D01*
X132509524Y-96895238D01*
X132604762Y-96800000D01*
X132747620Y-96752381D01*
X132842858Y-96752381D01*
X132985715Y-96800000D01*
X133033334Y-96847619D01*
X133890477Y-96752381D02*
X133700000Y-96752381D01*
X133604762Y-96800000D01*
X133557143Y-96847619D01*
X133461905Y-96990476D01*
X133414286Y-97180952D01*
X133414286Y-97561905D01*
X133461905Y-97657143D01*
X133509524Y-97704762D01*
X133604762Y-97752381D01*
X133795239Y-97752381D01*
X133890477Y-97704762D01*
X133938096Y-97657143D01*
X133985715Y-97561905D01*
X133985715Y-97323810D01*
X133938096Y-97228571D01*
X133890477Y-97180952D01*
X133795239Y-97133333D01*
X133604762Y-97133333D01*
X133509524Y-97180952D01*
X133461905Y-97228571D01*
X133414286Y-97323810D01*
X136472334Y-97670143D02*
X136424715Y-97717762D01*
X136281858Y-97765381D01*
X136186620Y-97765381D01*
X136043762Y-97717762D01*
X135948524Y-97622524D01*
X135900905Y-97527286D01*
X135853286Y-97336810D01*
X135853286Y-97193952D01*
X135900905Y-97003476D01*
X135948524Y-96908238D01*
X136043762Y-96813000D01*
X136186620Y-96765381D01*
X136281858Y-96765381D01*
X136424715Y-96813000D01*
X136472334Y-96860619D01*
X136805667Y-96765381D02*
X137472334Y-96765381D01*
X137043762Y-97765381D01*
X105690476Y-82252381D02*
X105690476Y-81252381D01*
X106023810Y-81966667D01*
X106357143Y-81252381D01*
X106357143Y-82252381D01*
X106833333Y-82252381D02*
X106833333Y-81252381D01*
X107404762Y-82252381D02*
X106976190Y-81680952D01*
X107404762Y-81252381D02*
X106833333Y-81823810D01*
X107785714Y-81347619D02*
X107833333Y-81300000D01*
X107928571Y-81252381D01*
X108166667Y-81252381D01*
X108261905Y-81300000D01*
X108309524Y-81347619D01*
X108357143Y-81442857D01*
X108357143Y-81538095D01*
X108309524Y-81680952D01*
X107738095Y-82252381D01*
X108357143Y-82252381D01*
X154690476Y-129452381D02*
X154690476Y-128452381D01*
X155023810Y-129166667D01*
X155357143Y-128452381D01*
X155357143Y-129452381D01*
X155833333Y-129452381D02*
X155833333Y-128452381D01*
X156404762Y-129452381D02*
X155976190Y-128880952D01*
X156404762Y-128452381D02*
X155833333Y-129023810D01*
X157261905Y-128785714D02*
X157261905Y-129452381D01*
X157023809Y-128404762D02*
X156785714Y-129119048D01*
X157404762Y-129119048D01*
X109802476Y-134468381D02*
X109802476Y-133468381D01*
X110135810Y-134182667D01*
X110469143Y-133468381D01*
X110469143Y-134468381D01*
X110945333Y-134468381D02*
X110945333Y-133468381D01*
X111516762Y-134468381D02*
X111088190Y-133896952D01*
X111516762Y-133468381D02*
X110945333Y-134039810D01*
X112421524Y-133468381D02*
X111945333Y-133468381D01*
X111897714Y-133944571D01*
X111945333Y-133896952D01*
X112040571Y-133849333D01*
X112278667Y-133849333D01*
X112373905Y-133896952D01*
X112421524Y-133944571D01*
X112469143Y-134039810D01*
X112469143Y-134277905D01*
X112421524Y-134373143D01*
X112373905Y-134420762D01*
X112278667Y-134468381D01*
X112040571Y-134468381D01*
X111945333Y-134420762D01*
X111897714Y-134373143D01*
X109690476Y-82452381D02*
X109690476Y-81452381D01*
X110023810Y-82166667D01*
X110357143Y-81452381D01*
X110357143Y-82452381D01*
X110833333Y-82452381D02*
X110833333Y-81452381D01*
X111404762Y-82452381D02*
X110976190Y-81880952D01*
X111404762Y-81452381D02*
X110833333Y-82023810D01*
X112261905Y-81452381D02*
X112071428Y-81452381D01*
X111976190Y-81500000D01*
X111928571Y-81547619D01*
X111833333Y-81690476D01*
X111785714Y-81880952D01*
X111785714Y-82261905D01*
X111833333Y-82357143D01*
X111880952Y-82404762D01*
X111976190Y-82452381D01*
X112166667Y-82452381D01*
X112261905Y-82404762D01*
X112309524Y-82357143D01*
X112357143Y-82261905D01*
X112357143Y-82023810D01*
X112309524Y-81928571D01*
X112261905Y-81880952D01*
X112166667Y-81833333D01*
X111976190Y-81833333D01*
X111880952Y-81880952D01*
X111833333Y-81928571D01*
X111785714Y-82023810D01*
X145690476Y-82452381D02*
X145690476Y-81452381D01*
X146023810Y-82166667D01*
X146357143Y-81452381D01*
X146357143Y-82452381D01*
X146833333Y-82452381D02*
X146833333Y-81452381D01*
X147404762Y-82452381D02*
X146976190Y-81880952D01*
X147404762Y-81452381D02*
X146833333Y-82023810D01*
X147738095Y-81452381D02*
X148404762Y-81452381D01*
X147976190Y-82452381D01*
X145690476Y-135452381D02*
X145690476Y-134452381D01*
X146023810Y-135166667D01*
X146357143Y-134452381D01*
X146357143Y-135452381D01*
X146833333Y-135452381D02*
X146833333Y-134452381D01*
X147404762Y-135452381D02*
X146976190Y-134880952D01*
X147404762Y-134452381D02*
X146833333Y-135023810D01*
X147976190Y-134880952D02*
X147880952Y-134833333D01*
X147833333Y-134785714D01*
X147785714Y-134690476D01*
X147785714Y-134642857D01*
X147833333Y-134547619D01*
X147880952Y-134500000D01*
X147976190Y-134452381D01*
X148166667Y-134452381D01*
X148261905Y-134500000D01*
X148309524Y-134547619D01*
X148357143Y-134642857D01*
X148357143Y-134690476D01*
X148309524Y-134785714D01*
X148261905Y-134833333D01*
X148166667Y-134880952D01*
X147976190Y-134880952D01*
X147880952Y-134928571D01*
X147833333Y-134976190D01*
X147785714Y-135071429D01*
X147785714Y-135261905D01*
X147833333Y-135357143D01*
X147880952Y-135404762D01*
X147976190Y-135452381D01*
X148166667Y-135452381D01*
X148261905Y-135404762D01*
X148309524Y-135357143D01*
X148357143Y-135261905D01*
X148357143Y-135071429D01*
X148309524Y-134976190D01*
X148261905Y-134928571D01*
X148166667Y-134880952D01*
X138233334Y-106002381D02*
X137900000Y-105526190D01*
X137661905Y-106002381D02*
X137661905Y-105002381D01*
X138042858Y-105002381D01*
X138138096Y-105050000D01*
X138185715Y-105097619D01*
X138233334Y-105192857D01*
X138233334Y-105335714D01*
X138185715Y-105430952D01*
X138138096Y-105478571D01*
X138042858Y-105526190D01*
X137661905Y-105526190D01*
X139185715Y-106002381D02*
X138614286Y-106002381D01*
X138900000Y-106002381D02*
X138900000Y-105002381D01*
X138804762Y-105145238D01*
X138709524Y-105240476D01*
X138614286Y-105288095D01*
X138233334Y-110976381D02*
X137900000Y-110500190D01*
X137661905Y-110976381D02*
X137661905Y-109976381D01*
X138042858Y-109976381D01*
X138138096Y-110024000D01*
X138185715Y-110071619D01*
X138233334Y-110166857D01*
X138233334Y-110309714D01*
X138185715Y-110404952D01*
X138138096Y-110452571D01*
X138042858Y-110500190D01*
X137661905Y-110500190D01*
X138614286Y-110071619D02*
X138661905Y-110024000D01*
X138757143Y-109976381D01*
X138995239Y-109976381D01*
X139090477Y-110024000D01*
X139138096Y-110071619D01*
X139185715Y-110166857D01*
X139185715Y-110262095D01*
X139138096Y-110404952D01*
X138566667Y-110976381D01*
X139185715Y-110976381D01*
X124552381Y-105266666D02*
X124076190Y-105600000D01*
X124552381Y-105838095D02*
X123552381Y-105838095D01*
X123552381Y-105457142D01*
X123600000Y-105361904D01*
X123647619Y-105314285D01*
X123742857Y-105266666D01*
X123885714Y-105266666D01*
X123980952Y-105314285D01*
X124028571Y-105361904D01*
X124076190Y-105457142D01*
X124076190Y-105838095D01*
X123552381Y-104933333D02*
X123552381Y-104314285D01*
X123933333Y-104647619D01*
X123933333Y-104504761D01*
X123980952Y-104409523D01*
X124028571Y-104361904D01*
X124123810Y-104314285D01*
X124361905Y-104314285D01*
X124457143Y-104361904D01*
X124504762Y-104409523D01*
X124552381Y-104504761D01*
X124552381Y-104790476D01*
X124504762Y-104885714D01*
X124457143Y-104933333D01*
X128217381Y-103662905D02*
X129026905Y-103662905D01*
X129122143Y-103615286D01*
X129169762Y-103567667D01*
X129217381Y-103472429D01*
X129217381Y-103281952D01*
X129169762Y-103186714D01*
X129122143Y-103139095D01*
X129026905Y-103091476D01*
X128217381Y-103091476D01*
X128312619Y-102662905D02*
X128265000Y-102615286D01*
X128217381Y-102520048D01*
X128217381Y-102281952D01*
X128265000Y-102186714D01*
X128312619Y-102139095D01*
X128407857Y-102091476D01*
X128503095Y-102091476D01*
X128645952Y-102139095D01*
X129217381Y-102710524D01*
X129217381Y-102091476D01*
D17*
X127720269Y-112964069D02*
X127720269Y-112323947D01*
X127933643Y-112781177D01*
X128147017Y-112323947D01*
X128147017Y-112964069D01*
X128421355Y-112781177D02*
X128726175Y-112781177D01*
X128360391Y-112964069D02*
X128573765Y-112323947D01*
X128787139Y-112964069D01*
X128939549Y-112323947D02*
X129366297Y-112964069D01*
X129366297Y-112323947D02*
X128939549Y-112964069D01*
X129549189Y-112323947D02*
X129945455Y-112323947D01*
X129732081Y-112567803D01*
X129823527Y-112567803D01*
X129884491Y-112598285D01*
X129914973Y-112628767D01*
X129945455Y-112689731D01*
X129945455Y-112842141D01*
X129914973Y-112903105D01*
X129884491Y-112933587D01*
X129823527Y-112964069D01*
X129640635Y-112964069D01*
X129579671Y-112933587D01*
X129549189Y-112903105D01*
X130494131Y-112537321D02*
X130494131Y-112964069D01*
X130341721Y-112293465D02*
X130189311Y-112750695D01*
X130585577Y-112750695D01*
X130798951Y-112384911D02*
X130829433Y-112354429D01*
X130890397Y-112323947D01*
X131042807Y-112323947D01*
X131103771Y-112354429D01*
X131134253Y-112384911D01*
X131164735Y-112445875D01*
X131164735Y-112506839D01*
X131134253Y-112598285D01*
X130768469Y-112964069D01*
X131164735Y-112964069D01*
X131774375Y-112964069D02*
X131408591Y-112964069D01*
X131591483Y-112964069D02*
X131591483Y-112323947D01*
X131530519Y-112415393D01*
X131469555Y-112476357D01*
X131408591Y-112506839D01*
X132048713Y-112628767D02*
X132262087Y-112628767D01*
X132353533Y-112964069D02*
X132048713Y-112964069D01*
X132048713Y-112323947D01*
X132353533Y-112323947D01*
D11*
X130701809Y-101480190D02*
X130701809Y-101956381D01*
X130368476Y-100956381D02*
X130701809Y-101480190D01*
X131035143Y-100956381D01*
X131892286Y-101956381D02*
X131320857Y-101956381D01*
X131606571Y-101956381D02*
X131606571Y-100956381D01*
X131511333Y-101099238D01*
X131416095Y-101194476D01*
X131320857Y-101242095D01*
X118252381Y-125533333D02*
X118966667Y-125533333D01*
X119109524Y-125580953D01*
X119204762Y-125676191D01*
X119252381Y-125819048D01*
X119252381Y-125914286D01*
X118252381Y-125152381D02*
X118252381Y-124533333D01*
X118633333Y-124866667D01*
X118633333Y-124723809D01*
X118680952Y-124628571D01*
X118728571Y-124580952D01*
X118823810Y-124533333D01*
X119061905Y-124533333D01*
X119157143Y-124580952D01*
X119204762Y-124628571D01*
X119252381Y-124723809D01*
X119252381Y-125009524D01*
X119204762Y-125104762D01*
X119157143Y-125152381D01*
X151585381Y-116950333D02*
X152299667Y-116950333D01*
X152442524Y-116997953D01*
X152537762Y-117093191D01*
X152585381Y-117236048D01*
X152585381Y-117331286D01*
X151680619Y-116521762D02*
X151633000Y-116474143D01*
X151585381Y-116378905D01*
X151585381Y-116140809D01*
X151633000Y-116045571D01*
X151680619Y-115997952D01*
X151775857Y-115950333D01*
X151871095Y-115950333D01*
X152013952Y-115997952D01*
X152585381Y-116569381D01*
X152585381Y-115950333D01*
X146975762Y-91936333D02*
X147023381Y-91793476D01*
X147023381Y-91555380D01*
X146975762Y-91460142D01*
X146928143Y-91412523D01*
X146832905Y-91364904D01*
X146737667Y-91364904D01*
X146642429Y-91412523D01*
X146594810Y-91460142D01*
X146547190Y-91555380D01*
X146499571Y-91745857D01*
X146451952Y-91841095D01*
X146404333Y-91888714D01*
X146309095Y-91936333D01*
X146213857Y-91936333D01*
X146118619Y-91888714D01*
X146071000Y-91841095D01*
X146023381Y-91745857D01*
X146023381Y-91507761D01*
X146071000Y-91364904D01*
X146023381Y-91031571D02*
X147023381Y-90793476D01*
X146309095Y-90602999D01*
X147023381Y-90412523D01*
X146023381Y-90174428D01*
X147023381Y-89269666D02*
X147023381Y-89841095D01*
X147023381Y-89555381D02*
X146023381Y-89555381D01*
X146166238Y-89650619D01*
X146261476Y-89745857D01*
X146309095Y-89841095D01*
X117279381Y-124276666D02*
X116803190Y-124610000D01*
X117279381Y-124848095D02*
X116279381Y-124848095D01*
X116279381Y-124467142D01*
X116327000Y-124371904D01*
X116374619Y-124324285D01*
X116469857Y-124276666D01*
X116612714Y-124276666D01*
X116707952Y-124324285D01*
X116755571Y-124371904D01*
X116803190Y-124467142D01*
X116803190Y-124848095D01*
X116612714Y-123419523D02*
X117279381Y-123419523D01*
X116231762Y-123657619D02*
X116946048Y-123895714D01*
X116946048Y-123276666D01*
X101552381Y-108533333D02*
X102266667Y-108533333D01*
X102409524Y-108580953D01*
X102504762Y-108676191D01*
X102552381Y-108819048D01*
X102552381Y-108914286D01*
X102552381Y-107533333D02*
X102552381Y-108104762D01*
X102552381Y-107819048D02*
X101552381Y-107819048D01*
X101695238Y-107914286D01*
X101790476Y-108009524D01*
X101838095Y-108104762D01*
%LPC*%
D18*
X151000000Y-86000000D03*
X107000000Y-130000000D03*
D19*
X138814000Y-115970000D03*
X138814000Y-114470000D03*
X135242000Y-115970000D03*
X135242000Y-114470000D03*
X137020000Y-115970000D03*
X137020000Y-114470000D03*
X126400000Y-108150000D03*
X126400000Y-106650000D03*
D20*
X133950000Y-98800000D03*
X132450000Y-98800000D03*
X136650000Y-98800000D03*
X138150000Y-98800000D03*
D18*
X107000000Y-86000000D03*
X151000000Y-130000000D03*
D21*
X111000000Y-130000000D03*
X111000000Y-86000000D03*
X147000000Y-86000000D03*
X147000000Y-130000000D03*
D22*
X137650000Y-107000000D03*
X139150000Y-107000000D03*
X137650000Y-109000000D03*
X139150000Y-109000000D03*
D23*
X124200000Y-108150000D03*
X124200000Y-106650000D03*
D24*
X128300000Y-106250000D03*
X128300000Y-106750000D03*
X128300000Y-107250000D03*
X128300000Y-107750000D03*
X128300000Y-108250000D03*
X128300000Y-108750000D03*
X128300000Y-109250000D03*
X128300000Y-109750000D03*
D25*
X130050000Y-111500000D03*
X130550000Y-111500000D03*
X131050000Y-111500000D03*
X131550000Y-111500000D03*
X132050000Y-111500000D03*
X132550000Y-111500000D03*
X133050000Y-111500000D03*
X133550000Y-111500000D03*
D24*
X135300000Y-109750000D03*
X135300000Y-109250000D03*
X135300000Y-108750000D03*
X135300000Y-108250000D03*
X135300000Y-107750000D03*
X135300000Y-107250000D03*
X135300000Y-106750000D03*
X135300000Y-106250000D03*
D25*
X133550000Y-104500000D03*
X133050000Y-104500000D03*
X132550000Y-104500000D03*
X132050000Y-104500000D03*
X131550000Y-104500000D03*
X131050000Y-104500000D03*
X130550000Y-104500000D03*
X130050000Y-104500000D03*
D26*
X133550000Y-101800000D03*
X137250000Y-101800000D03*
D27*
X119240000Y-127920000D03*
D28*
X119240000Y-130460000D03*
D29*
X141100000Y-104452400D03*
X141100000Y-106992400D03*
X141100000Y-109022400D03*
X141100000Y-111562400D03*
D30*
X143770000Y-101402400D03*
X143770000Y-115122400D03*
D31*
X150000000Y-98500000D03*
D32*
X150000000Y-92000000D03*
D33*
X150000000Y-94000000D03*
X150000000Y-96000000D03*
D31*
X150000000Y-89500000D03*
D23*
X116827000Y-125773000D03*
X116827000Y-127273000D03*
D34*
X110000000Y-121970000D03*
D35*
X110000000Y-124510000D03*
D34*
X110000000Y-94030000D03*
X108095000Y-90220000D03*
D36*
X107475000Y-90220000D03*
X107475000Y-102920000D03*
X107475000Y-100380000D03*
X107475000Y-97840000D03*
X107475000Y-95300000D03*
X107475000Y-92760000D03*
D34*
X106825000Y-90220000D03*
D36*
X112525000Y-90220000D03*
X112525000Y-92760000D03*
X112525000Y-95300000D03*
X112525000Y-97840000D03*
X112525000Y-100380000D03*
X112525000Y-102920000D03*
X107475000Y-105460000D03*
X112525000Y-105460000D03*
X107475000Y-108000000D03*
X112525000Y-108000000D03*
X107475000Y-110540000D03*
X112525000Y-110540000D03*
X107475000Y-113080000D03*
X112525000Y-113080000D03*
X107475000Y-115620000D03*
X112525000Y-115620000D03*
X107475000Y-118160000D03*
X112525000Y-118160000D03*
X107475000Y-120700000D03*
X112525000Y-120700000D03*
X107475000Y-123240000D03*
X112525000Y-123240000D03*
X107475000Y-125780000D03*
X112525000Y-125780000D03*
D34*
X111905000Y-90220000D03*
X106825000Y-92760000D03*
X111905000Y-92760000D03*
X106825000Y-95300000D03*
X111905000Y-95300000D03*
X106825000Y-97840000D03*
X111905000Y-97840000D03*
X106825000Y-100380000D03*
X111905000Y-100380000D03*
X106825000Y-102920000D03*
X111905000Y-102920000D03*
X106825000Y-105460000D03*
X111905000Y-105460000D03*
X106825000Y-108000000D03*
X111905000Y-108000000D03*
X106825000Y-110540000D03*
X111905000Y-110540000D03*
X106825000Y-113080000D03*
X111905000Y-113080000D03*
X106825000Y-115620000D03*
X111905000Y-115620000D03*
X106825000Y-118160000D03*
X111905000Y-118160000D03*
X106825000Y-120700000D03*
X111905000Y-120700000D03*
X106825000Y-123240000D03*
X111905000Y-123240000D03*
X106825000Y-125780000D03*
X111905000Y-125780000D03*
X113175000Y-90220000D03*
X108095000Y-92760000D03*
X113175000Y-92760000D03*
X108095000Y-95300000D03*
X113175000Y-95300000D03*
X108095000Y-97840000D03*
X113175000Y-97840000D03*
X108095000Y-100380000D03*
X113175000Y-100380000D03*
X108095000Y-102920000D03*
X113175000Y-102920000D03*
X108095000Y-105460000D03*
X113175000Y-105460000D03*
X108095000Y-108000000D03*
X113175000Y-108000000D03*
X108095000Y-110540000D03*
X113175000Y-110540000D03*
X108095000Y-113080000D03*
X113175000Y-113080000D03*
X108095000Y-115620000D03*
X113175000Y-115620000D03*
X108095000Y-118160000D03*
X113175000Y-118160000D03*
X108095000Y-120700000D03*
X113175000Y-120700000D03*
X108095000Y-123240000D03*
X113175000Y-123240000D03*
X108095000Y-125780000D03*
X113175000Y-125780000D03*
D35*
X110000000Y-91490000D03*
M02*
