M48
;DRILL file {KiCad 4.0.7} date 06/02/18 04:08:05
;FORMAT={3:3/ absolute / metric / suppress trailing zeros}
FMAT,2
METRIC,LZ
T1C0.400
T2C1.000
T3C2.300
%
G90
G05
M71
T1
X106825Y-09022
X106825Y-09276
X106825Y-0953
X106825Y-09784
X106825Y-10038
X106825Y-10292
X106825Y-10546
X106825Y-108
X106825Y-11054
X106825Y-11308
X106825Y-11562
X106825Y-11816
X106825Y-1207
X106825Y-12324
X106825Y-12578
X108095Y-09022
X108095Y-09276
X108095Y-0953
X108095Y-09784
X108095Y-10038
X108095Y-10292
X108095Y-10546
X108095Y-108
X108095Y-11054
X108095Y-11308
X108095Y-11562
X108095Y-11816
X108095Y-1207
X108095Y-12324
X108095Y-12578
X111905Y-09022
X111905Y-09276
X111905Y-0953
X111905Y-09784
X111905Y-10038
X111905Y-10292
X111905Y-10546
X111905Y-108
X111905Y-11054
X111905Y-11308
X111905Y-11562
X111905Y-11816
X111905Y-1207
X111905Y-12324
X111905Y-12578
X113175Y-09022
X113175Y-09276
X113175Y-0953
X113175Y-09784
X113175Y-10038
X113175Y-10292
X113175Y-10546
X113175Y-108
X113175Y-11054
X113175Y-11308
X113175Y-11562
X113175Y-11816
X113175Y-1207
X113175Y-12324
X113175Y-12578
X116Y-0992
X116Y-1195
X1168Y-094
X1175Y-108
X1182Y-1108
X1182Y-1128
X1189Y-1175
X1205Y-1104
X1227Y-1131
X1236Y-1022
X1242Y-1091
X1242Y-1128
X1264Y-1092
X1275Y-1053
X1276Y-1155
X1318Y-108
X1354Y-0988
X1354Y-1045
X1367Y-1091
X1398Y-1153
T2
X11924Y-12792
X11924Y-13046
X1421Y-104452
X1421Y-106992
X1421Y-109022
X1421Y-111562
T3
X14477Y-101402
X14477Y-115122
T0
M30
