G04 #@! TF.FileFunction,Copper,L2,Bot,Signal*
%FSLAX46Y46*%
G04 Gerber Fmt 4.6, Leading zero omitted, Abs format (unit mm)*
G04 Created by KiCad (PCBNEW 4.0.7) date 06/02/18 04:08:01*
%MOMM*%
%LPD*%
G01*
G04 APERTURE LIST*
%ADD10C,0.100000*%
%ADD11C,1.500000*%
%ADD12C,3.000000*%
%ADD13R,1.700000X1.700000*%
%ADD14O,1.700000X1.700000*%
%ADD15C,0.800000*%
%ADD16R,3.150000X1.000000*%
%ADD17C,0.600000*%
%ADD18C,1.000000*%
%ADD19C,0.250000*%
%ADD20C,0.254000*%
G04 APERTURE END LIST*
D10*
D11*
X142100000Y-104452400D03*
X142100000Y-106992400D03*
X142100000Y-109022400D03*
X142100000Y-111562400D03*
D12*
X144770000Y-101402400D03*
X144770000Y-115122400D03*
D13*
X119240000Y-127920000D03*
D14*
X119240000Y-130460000D03*
D15*
X108095000Y-90220000D03*
D16*
X107475000Y-90220000D03*
D15*
X106825000Y-90220000D03*
D16*
X112555000Y-90220000D03*
X107475000Y-92760000D03*
X112555000Y-92760000D03*
X107475000Y-95300000D03*
X112555000Y-95300000D03*
X107475000Y-97840000D03*
X112555000Y-97840000D03*
X107475000Y-100380000D03*
X112555000Y-100380000D03*
X107475000Y-102920000D03*
X112555000Y-102920000D03*
X107475000Y-105460000D03*
X112555000Y-105460000D03*
X107475000Y-108000000D03*
X112555000Y-108000000D03*
X107475000Y-110540000D03*
X112555000Y-110540000D03*
X107475000Y-113080000D03*
X112555000Y-113080000D03*
X107475000Y-115620000D03*
X112555000Y-115620000D03*
X107475000Y-118160000D03*
X112555000Y-118160000D03*
X107475000Y-120700000D03*
X112555000Y-120700000D03*
X107475000Y-123240000D03*
X112555000Y-123240000D03*
X107475000Y-125780000D03*
X112555000Y-125780000D03*
D15*
X111905000Y-90220000D03*
X106825000Y-92760000D03*
X111905000Y-92760000D03*
X106825000Y-95300000D03*
X111905000Y-95300000D03*
X106825000Y-97840000D03*
X111905000Y-97840000D03*
X106825000Y-100380000D03*
X111905000Y-100380000D03*
X106825000Y-102920000D03*
X111905000Y-102920000D03*
X106825000Y-105460000D03*
X111905000Y-105460000D03*
X106825000Y-108000000D03*
X111905000Y-108000000D03*
X106825000Y-110540000D03*
X111905000Y-110540000D03*
X106825000Y-113080000D03*
X111905000Y-113080000D03*
X106825000Y-115620000D03*
X111905000Y-115620000D03*
X106825000Y-118160000D03*
X111905000Y-118160000D03*
X106825000Y-120700000D03*
X111905000Y-120700000D03*
X106825000Y-123240000D03*
X111905000Y-123240000D03*
X106825000Y-125780000D03*
X111905000Y-125780000D03*
X113175000Y-90220000D03*
X108095000Y-92760000D03*
X113175000Y-92760000D03*
X108095000Y-95300000D03*
X113175000Y-95300000D03*
X108095000Y-97840000D03*
X113175000Y-97840000D03*
X108095000Y-100380000D03*
X113175000Y-100380000D03*
X108095000Y-102920000D03*
X113175000Y-102920000D03*
X108095000Y-105460000D03*
X113175000Y-105460000D03*
X108095000Y-108000000D03*
X113175000Y-108000000D03*
X108095000Y-110540000D03*
X113175000Y-110540000D03*
X108095000Y-113080000D03*
X113175000Y-113080000D03*
X108095000Y-115620000D03*
X113175000Y-115620000D03*
X108095000Y-118160000D03*
X113175000Y-118160000D03*
X108095000Y-120700000D03*
X113175000Y-120700000D03*
X108095000Y-123240000D03*
X113175000Y-123240000D03*
X108095000Y-125780000D03*
X113175000Y-125780000D03*
D17*
X123600000Y-102200000D03*
X116800000Y-94000000D03*
X135400000Y-98800000D03*
X135400000Y-104500000D03*
X118900000Y-117500000D03*
X122700000Y-113100000D03*
X131800000Y-108000000D03*
X139800000Y-115300000D03*
X136700000Y-109100000D03*
X126400000Y-109200000D03*
X116000000Y-119500000D03*
X127600000Y-115500000D03*
X127500000Y-105300000D03*
X116000000Y-99200000D03*
X120500000Y-110400000D03*
X124200000Y-109100000D03*
X124200000Y-112800000D03*
X117500000Y-108000000D03*
X118200000Y-110800000D03*
X118200000Y-112800000D03*
D18*
X107475000Y-92760000D02*
X107475000Y-95300000D01*
X107475000Y-90220000D02*
X107475000Y-92760000D01*
X127600000Y-115500000D02*
X127500000Y-115400000D01*
X127500000Y-115400000D02*
X127500000Y-105300000D01*
D19*
X116000000Y-99200000D02*
X110200000Y-99200000D01*
X109020000Y-100380000D02*
X110200000Y-99200000D01*
X109020000Y-100380000D02*
X107475000Y-100380000D01*
X109320000Y-102920000D02*
X107475000Y-102920000D01*
X109800000Y-103400000D02*
X109320000Y-102920000D01*
X109800000Y-108500000D02*
X109800000Y-103400000D01*
X110500000Y-109200000D02*
X109800000Y-108500000D01*
X119300000Y-109200000D02*
X110500000Y-109200000D01*
X120500000Y-110400000D02*
X119300000Y-109200000D01*
X124200000Y-109100000D02*
X124200000Y-112800000D01*
X117500000Y-108000000D02*
X112555000Y-108000000D01*
X118200000Y-110800000D02*
X118200000Y-112800000D01*
D20*
G36*
X111790000Y-83794092D02*
X111790000Y-84449406D01*
X111346627Y-84265301D01*
X110656401Y-84264699D01*
X110018485Y-84528281D01*
X109529996Y-85015918D01*
X109265301Y-85653373D01*
X109264699Y-86343599D01*
X109528281Y-86981515D01*
X110015918Y-87470004D01*
X110653373Y-87734699D01*
X111343599Y-87735301D01*
X111981515Y-87471719D01*
X112470004Y-86984082D01*
X112734699Y-86346627D01*
X112734701Y-86343599D01*
X145264699Y-86343599D01*
X145528281Y-86981515D01*
X146015918Y-87470004D01*
X146653373Y-87734699D01*
X147343599Y-87735301D01*
X147981515Y-87471719D01*
X148470004Y-86984082D01*
X148734699Y-86346627D01*
X148735301Y-85656401D01*
X148471719Y-85018485D01*
X147984082Y-84529996D01*
X147346627Y-84265301D01*
X146656401Y-84264699D01*
X146018485Y-84528281D01*
X145529996Y-85015918D01*
X145265301Y-85653373D01*
X145264699Y-86343599D01*
X112734701Y-86343599D01*
X112734864Y-86157261D01*
X113000000Y-86210000D01*
X116000000Y-86210000D01*
X116271705Y-86155954D01*
X116502046Y-86002046D01*
X117002046Y-85502046D01*
X117155954Y-85271705D01*
X117210000Y-85000000D01*
X117210000Y-83794092D01*
X117294092Y-83710000D01*
X151705908Y-83710000D01*
X151984818Y-83988910D01*
X151446519Y-83765389D01*
X150557381Y-83764613D01*
X149735628Y-84104155D01*
X149106364Y-84732321D01*
X148765389Y-85553481D01*
X148764613Y-86442619D01*
X149104155Y-87264372D01*
X149732321Y-87893636D01*
X150553481Y-88234611D01*
X151442619Y-88235387D01*
X152264372Y-87895845D01*
X152893636Y-87267679D01*
X153234611Y-86446519D01*
X153235387Y-85557381D01*
X153011541Y-85015633D01*
X153290000Y-85294092D01*
X153290000Y-130705908D01*
X153011090Y-130984818D01*
X153234611Y-130446519D01*
X153235387Y-129557381D01*
X152895845Y-128735628D01*
X152267679Y-128106364D01*
X151446519Y-127765389D01*
X150557381Y-127764613D01*
X149735628Y-128104155D01*
X149106364Y-128732321D01*
X148765389Y-129553481D01*
X148764613Y-130442619D01*
X149104155Y-131264372D01*
X149732321Y-131893636D01*
X150553481Y-132234611D01*
X151442619Y-132235387D01*
X151984367Y-132011541D01*
X151705908Y-132290000D01*
X106294092Y-132290000D01*
X106015182Y-132011090D01*
X106553481Y-132234611D01*
X107442619Y-132235387D01*
X108264372Y-131895845D01*
X108893636Y-131267679D01*
X109234611Y-130446519D01*
X109234700Y-130343599D01*
X109264699Y-130343599D01*
X109528281Y-130981515D01*
X110015918Y-131470004D01*
X110653373Y-131734699D01*
X111343599Y-131735301D01*
X111981515Y-131471719D01*
X112470004Y-130984082D01*
X112539428Y-130816890D01*
X117798524Y-130816890D01*
X117968355Y-131226924D01*
X118358642Y-131655183D01*
X118883108Y-131901486D01*
X119113000Y-131780819D01*
X119113000Y-130587000D01*
X119367000Y-130587000D01*
X119367000Y-131780819D01*
X119596892Y-131901486D01*
X120121358Y-131655183D01*
X120511645Y-131226924D01*
X120681476Y-130816890D01*
X120560155Y-130587000D01*
X119367000Y-130587000D01*
X119113000Y-130587000D01*
X117919845Y-130587000D01*
X117798524Y-130816890D01*
X112539428Y-130816890D01*
X112734699Y-130346627D01*
X112734701Y-130343599D01*
X145264699Y-130343599D01*
X145528281Y-130981515D01*
X146015918Y-131470004D01*
X146653373Y-131734699D01*
X147343599Y-131735301D01*
X147981515Y-131471719D01*
X148470004Y-130984082D01*
X148734699Y-130346627D01*
X148735301Y-129656401D01*
X148471719Y-129018485D01*
X147984082Y-128529996D01*
X147346627Y-128265301D01*
X146656401Y-128264699D01*
X146018485Y-128528281D01*
X145529996Y-129015918D01*
X145265301Y-129653373D01*
X145264699Y-130343599D01*
X112734701Y-130343599D01*
X112735301Y-129656401D01*
X112471719Y-129018485D01*
X111984082Y-128529996D01*
X111346627Y-128265301D01*
X110656401Y-128264699D01*
X110018485Y-128528281D01*
X109529996Y-129015918D01*
X109265301Y-129653373D01*
X109264699Y-130343599D01*
X109234700Y-130343599D01*
X109235387Y-129557381D01*
X108895845Y-128735628D01*
X108267679Y-128106364D01*
X107446519Y-127765389D01*
X106557381Y-127764613D01*
X105735628Y-128104155D01*
X105106364Y-128732321D01*
X104765389Y-129553481D01*
X104764613Y-130442619D01*
X104988459Y-130984367D01*
X104710000Y-130705908D01*
X104710000Y-127070000D01*
X117742560Y-127070000D01*
X117742560Y-128770000D01*
X117786838Y-129005317D01*
X117925910Y-129221441D01*
X118138110Y-129366431D01*
X118246107Y-129388301D01*
X117968355Y-129693076D01*
X117798524Y-130103110D01*
X117919845Y-130333000D01*
X119113000Y-130333000D01*
X119113000Y-130313000D01*
X119367000Y-130313000D01*
X119367000Y-130333000D01*
X120560155Y-130333000D01*
X120681476Y-130103110D01*
X120511645Y-129693076D01*
X120235499Y-129390063D01*
X120325317Y-129373162D01*
X120541441Y-129234090D01*
X120686431Y-129021890D01*
X120737440Y-128770000D01*
X120737440Y-127070000D01*
X120693162Y-126834683D01*
X120554090Y-126618559D01*
X120341890Y-126473569D01*
X120090000Y-126422560D01*
X118390000Y-126422560D01*
X118154683Y-126466838D01*
X117938559Y-126605910D01*
X117793569Y-126818110D01*
X117742560Y-127070000D01*
X104710000Y-127070000D01*
X104710000Y-125280000D01*
X105252560Y-125280000D01*
X105252560Y-126280000D01*
X105296838Y-126515317D01*
X105435910Y-126731441D01*
X105648110Y-126876431D01*
X105900000Y-126927440D01*
X109050000Y-126927440D01*
X109285317Y-126883162D01*
X109501441Y-126744090D01*
X109646431Y-126531890D01*
X109697440Y-126280000D01*
X109697440Y-125280000D01*
X110332560Y-125280000D01*
X110332560Y-126280000D01*
X110376838Y-126515317D01*
X110515910Y-126731441D01*
X110728110Y-126876431D01*
X110980000Y-126927440D01*
X114130000Y-126927440D01*
X114365317Y-126883162D01*
X114581441Y-126744090D01*
X114726431Y-126531890D01*
X114777440Y-126280000D01*
X114777440Y-125280000D01*
X114733162Y-125044683D01*
X114594090Y-124828559D01*
X114381890Y-124683569D01*
X114130000Y-124632560D01*
X110980000Y-124632560D01*
X110744683Y-124676838D01*
X110528559Y-124815910D01*
X110383569Y-125028110D01*
X110332560Y-125280000D01*
X109697440Y-125280000D01*
X109653162Y-125044683D01*
X109514090Y-124828559D01*
X109301890Y-124683569D01*
X109050000Y-124632560D01*
X105900000Y-124632560D01*
X105664683Y-124676838D01*
X105448559Y-124815910D01*
X105303569Y-125028110D01*
X105252560Y-125280000D01*
X104710000Y-125280000D01*
X104710000Y-122740000D01*
X105252560Y-122740000D01*
X105252560Y-123740000D01*
X105296838Y-123975317D01*
X105435910Y-124191441D01*
X105648110Y-124336431D01*
X105900000Y-124387440D01*
X109050000Y-124387440D01*
X109285317Y-124343162D01*
X109501441Y-124204090D01*
X109646431Y-123991890D01*
X109697440Y-123740000D01*
X109697440Y-122740000D01*
X110332560Y-122740000D01*
X110332560Y-123740000D01*
X110376838Y-123975317D01*
X110515910Y-124191441D01*
X110728110Y-124336431D01*
X110980000Y-124387440D01*
X114130000Y-124387440D01*
X114365317Y-124343162D01*
X114581441Y-124204090D01*
X114726431Y-123991890D01*
X114777440Y-123740000D01*
X114777440Y-122740000D01*
X114733162Y-122504683D01*
X114594090Y-122288559D01*
X114381890Y-122143569D01*
X114130000Y-122092560D01*
X110980000Y-122092560D01*
X110744683Y-122136838D01*
X110528559Y-122275910D01*
X110383569Y-122488110D01*
X110332560Y-122740000D01*
X109697440Y-122740000D01*
X109653162Y-122504683D01*
X109514090Y-122288559D01*
X109301890Y-122143569D01*
X109050000Y-122092560D01*
X105900000Y-122092560D01*
X105664683Y-122136838D01*
X105448559Y-122275910D01*
X105303569Y-122488110D01*
X105252560Y-122740000D01*
X104710000Y-122740000D01*
X104710000Y-120200000D01*
X105252560Y-120200000D01*
X105252560Y-121200000D01*
X105296838Y-121435317D01*
X105435910Y-121651441D01*
X105648110Y-121796431D01*
X105900000Y-121847440D01*
X109050000Y-121847440D01*
X109285317Y-121803162D01*
X109501441Y-121664090D01*
X109646431Y-121451890D01*
X109697440Y-121200000D01*
X109697440Y-120200000D01*
X110332560Y-120200000D01*
X110332560Y-121200000D01*
X110376838Y-121435317D01*
X110515910Y-121651441D01*
X110728110Y-121796431D01*
X110980000Y-121847440D01*
X114130000Y-121847440D01*
X114365317Y-121803162D01*
X114581441Y-121664090D01*
X114726431Y-121451890D01*
X114777440Y-121200000D01*
X114777440Y-120200000D01*
X114733162Y-119964683D01*
X114594090Y-119748559D01*
X114381890Y-119603569D01*
X114130000Y-119552560D01*
X110980000Y-119552560D01*
X110744683Y-119596838D01*
X110528559Y-119735910D01*
X110383569Y-119948110D01*
X110332560Y-120200000D01*
X109697440Y-120200000D01*
X109653162Y-119964683D01*
X109514090Y-119748559D01*
X109301890Y-119603569D01*
X109050000Y-119552560D01*
X105900000Y-119552560D01*
X105664683Y-119596838D01*
X105448559Y-119735910D01*
X105303569Y-119948110D01*
X105252560Y-120200000D01*
X104710000Y-120200000D01*
X104710000Y-117660000D01*
X105252560Y-117660000D01*
X105252560Y-118660000D01*
X105296838Y-118895317D01*
X105435910Y-119111441D01*
X105648110Y-119256431D01*
X105900000Y-119307440D01*
X109050000Y-119307440D01*
X109285317Y-119263162D01*
X109501441Y-119124090D01*
X109646431Y-118911890D01*
X109697440Y-118660000D01*
X109697440Y-117660000D01*
X110332560Y-117660000D01*
X110332560Y-118660000D01*
X110376838Y-118895317D01*
X110515910Y-119111441D01*
X110728110Y-119256431D01*
X110980000Y-119307440D01*
X114130000Y-119307440D01*
X114365317Y-119263162D01*
X114581441Y-119124090D01*
X114726431Y-118911890D01*
X114777440Y-118660000D01*
X114777440Y-117660000D01*
X114733162Y-117424683D01*
X114594090Y-117208559D01*
X114381890Y-117063569D01*
X114130000Y-117012560D01*
X110980000Y-117012560D01*
X110744683Y-117056838D01*
X110528559Y-117195910D01*
X110383569Y-117408110D01*
X110332560Y-117660000D01*
X109697440Y-117660000D01*
X109653162Y-117424683D01*
X109514090Y-117208559D01*
X109301890Y-117063569D01*
X109050000Y-117012560D01*
X105900000Y-117012560D01*
X105664683Y-117056838D01*
X105448559Y-117195910D01*
X105303569Y-117408110D01*
X105252560Y-117660000D01*
X104710000Y-117660000D01*
X104710000Y-115120000D01*
X105252560Y-115120000D01*
X105252560Y-116120000D01*
X105296838Y-116355317D01*
X105435910Y-116571441D01*
X105648110Y-116716431D01*
X105900000Y-116767440D01*
X109050000Y-116767440D01*
X109285317Y-116723162D01*
X109501441Y-116584090D01*
X109646431Y-116371890D01*
X109697440Y-116120000D01*
X109697440Y-115120000D01*
X110332560Y-115120000D01*
X110332560Y-116120000D01*
X110376838Y-116355317D01*
X110515910Y-116571441D01*
X110728110Y-116716431D01*
X110980000Y-116767440D01*
X114130000Y-116767440D01*
X114365317Y-116723162D01*
X114500195Y-116636370D01*
X143435635Y-116636370D01*
X143595418Y-116955139D01*
X144386187Y-117265123D01*
X145235387Y-117248897D01*
X145944582Y-116955139D01*
X146104365Y-116636370D01*
X144770000Y-115302005D01*
X143435635Y-116636370D01*
X114500195Y-116636370D01*
X114581441Y-116584090D01*
X114726431Y-116371890D01*
X114777440Y-116120000D01*
X114777440Y-115120000D01*
X114733162Y-114884683D01*
X114594090Y-114668559D01*
X114381890Y-114523569D01*
X114130000Y-114472560D01*
X110980000Y-114472560D01*
X110744683Y-114516838D01*
X110528559Y-114655910D01*
X110383569Y-114868110D01*
X110332560Y-115120000D01*
X109697440Y-115120000D01*
X109653162Y-114884683D01*
X109514090Y-114668559D01*
X109301890Y-114523569D01*
X109050000Y-114472560D01*
X105900000Y-114472560D01*
X105664683Y-114516838D01*
X105448559Y-114655910D01*
X105303569Y-114868110D01*
X105252560Y-115120000D01*
X104710000Y-115120000D01*
X104710000Y-112580000D01*
X105252560Y-112580000D01*
X105252560Y-113580000D01*
X105296838Y-113815317D01*
X105435910Y-114031441D01*
X105648110Y-114176431D01*
X105900000Y-114227440D01*
X109050000Y-114227440D01*
X109285317Y-114183162D01*
X109501441Y-114044090D01*
X109646431Y-113831890D01*
X109697440Y-113580000D01*
X109697440Y-112580000D01*
X110332560Y-112580000D01*
X110332560Y-113580000D01*
X110376838Y-113815317D01*
X110515910Y-114031441D01*
X110728110Y-114176431D01*
X110980000Y-114227440D01*
X114130000Y-114227440D01*
X114365317Y-114183162D01*
X114581441Y-114044090D01*
X114726431Y-113831890D01*
X114777440Y-113580000D01*
X114777440Y-112580000D01*
X114733162Y-112344683D01*
X114594090Y-112128559D01*
X114381890Y-111983569D01*
X114130000Y-111932560D01*
X110980000Y-111932560D01*
X110744683Y-111976838D01*
X110528559Y-112115910D01*
X110383569Y-112328110D01*
X110332560Y-112580000D01*
X109697440Y-112580000D01*
X109653162Y-112344683D01*
X109514090Y-112128559D01*
X109301890Y-111983569D01*
X109050000Y-111932560D01*
X105900000Y-111932560D01*
X105664683Y-111976838D01*
X105448559Y-112115910D01*
X105303569Y-112328110D01*
X105252560Y-112580000D01*
X104710000Y-112580000D01*
X104710000Y-110040000D01*
X105252560Y-110040000D01*
X105252560Y-111040000D01*
X105296838Y-111275317D01*
X105435910Y-111491441D01*
X105648110Y-111636431D01*
X105900000Y-111687440D01*
X109050000Y-111687440D01*
X109285317Y-111643162D01*
X109501441Y-111504090D01*
X109646431Y-111291890D01*
X109697440Y-111040000D01*
X109697440Y-110040000D01*
X109653162Y-109804683D01*
X109514090Y-109588559D01*
X109301890Y-109443569D01*
X109050000Y-109392560D01*
X105900000Y-109392560D01*
X105664683Y-109436838D01*
X105448559Y-109575910D01*
X105303569Y-109788110D01*
X105252560Y-110040000D01*
X104710000Y-110040000D01*
X104710000Y-102420000D01*
X105252560Y-102420000D01*
X105252560Y-103420000D01*
X105296838Y-103655317D01*
X105435910Y-103871441D01*
X105648110Y-104016431D01*
X105900000Y-104067440D01*
X109040000Y-104067440D01*
X109040000Y-104312560D01*
X105900000Y-104312560D01*
X105664683Y-104356838D01*
X105448559Y-104495910D01*
X105303569Y-104708110D01*
X105252560Y-104960000D01*
X105252560Y-105960000D01*
X105296838Y-106195317D01*
X105435910Y-106411441D01*
X105648110Y-106556431D01*
X105900000Y-106607440D01*
X109040000Y-106607440D01*
X109040000Y-106852560D01*
X105900000Y-106852560D01*
X105664683Y-106896838D01*
X105448559Y-107035910D01*
X105303569Y-107248110D01*
X105252560Y-107500000D01*
X105252560Y-108500000D01*
X105296838Y-108735317D01*
X105435910Y-108951441D01*
X105648110Y-109096431D01*
X105900000Y-109147440D01*
X109050000Y-109147440D01*
X109285317Y-109103162D01*
X109311507Y-109086309D01*
X109962598Y-109737401D01*
X110068204Y-109807964D01*
X110209161Y-109902148D01*
X110354617Y-109931081D01*
X110332560Y-110040000D01*
X110332560Y-111040000D01*
X110376838Y-111275317D01*
X110515910Y-111491441D01*
X110728110Y-111636431D01*
X110980000Y-111687440D01*
X114130000Y-111687440D01*
X114365317Y-111643162D01*
X114581441Y-111504090D01*
X114726431Y-111291890D01*
X114777440Y-111040000D01*
X114777440Y-110040000D01*
X114762387Y-109960000D01*
X117784523Y-109960000D01*
X117671057Y-110006883D01*
X117407808Y-110269673D01*
X117265162Y-110613201D01*
X117264838Y-110985167D01*
X117406883Y-111328943D01*
X117440000Y-111362118D01*
X117440000Y-112237537D01*
X117407808Y-112269673D01*
X117265162Y-112613201D01*
X117264838Y-112985167D01*
X117406883Y-113328943D01*
X117669673Y-113592192D01*
X118013201Y-113734838D01*
X118385167Y-113735162D01*
X118728943Y-113593117D01*
X118992192Y-113330327D01*
X119134838Y-112986799D01*
X119135162Y-112614833D01*
X118993117Y-112271057D01*
X118960000Y-112237882D01*
X118960000Y-111362463D01*
X118992192Y-111330327D01*
X119134838Y-110986799D01*
X119135162Y-110614833D01*
X118993117Y-110271057D01*
X118730327Y-110007808D01*
X118615193Y-109960000D01*
X118985198Y-109960000D01*
X119564878Y-110539680D01*
X119564838Y-110585167D01*
X119706883Y-110928943D01*
X119969673Y-111192192D01*
X120313201Y-111334838D01*
X120685167Y-111335162D01*
X121028943Y-111193117D01*
X121292192Y-110930327D01*
X121434838Y-110586799D01*
X121435162Y-110214833D01*
X121293117Y-109871057D01*
X121030327Y-109607808D01*
X120686799Y-109465162D01*
X120639923Y-109465121D01*
X120459969Y-109285167D01*
X123264838Y-109285167D01*
X123406883Y-109628943D01*
X123440000Y-109662118D01*
X123440000Y-112237537D01*
X123407808Y-112269673D01*
X123265162Y-112613201D01*
X123264838Y-112985167D01*
X123406883Y-113328943D01*
X123669673Y-113592192D01*
X124013201Y-113734838D01*
X124385167Y-113735162D01*
X124728943Y-113593117D01*
X124992192Y-113330327D01*
X125134838Y-112986799D01*
X125135162Y-112614833D01*
X124993117Y-112271057D01*
X124960000Y-112237882D01*
X124960000Y-109662463D01*
X124992192Y-109630327D01*
X125134838Y-109286799D01*
X125135162Y-108914833D01*
X124993117Y-108571057D01*
X124730327Y-108307808D01*
X124386799Y-108165162D01*
X124014833Y-108164838D01*
X123671057Y-108306883D01*
X123407808Y-108569673D01*
X123265162Y-108913201D01*
X123264838Y-109285167D01*
X120459969Y-109285167D01*
X119837401Y-108662599D01*
X119590839Y-108497852D01*
X119300000Y-108440000D01*
X118329699Y-108440000D01*
X118434838Y-108186799D01*
X118435162Y-107814833D01*
X118293117Y-107471057D01*
X118030327Y-107207808D01*
X117686799Y-107065162D01*
X117314833Y-107064838D01*
X116971057Y-107206883D01*
X116937882Y-107240000D01*
X114717279Y-107240000D01*
X114594090Y-107048559D01*
X114381890Y-106903569D01*
X114130000Y-106852560D01*
X110980000Y-106852560D01*
X110744683Y-106896838D01*
X110560000Y-107015678D01*
X110560000Y-106441566D01*
X110728110Y-106556431D01*
X110980000Y-106607440D01*
X114130000Y-106607440D01*
X114365317Y-106563162D01*
X114581441Y-106424090D01*
X114726431Y-106211890D01*
X114777440Y-105960000D01*
X114777440Y-105300000D01*
X126365000Y-105300000D01*
X126365000Y-115400000D01*
X126451397Y-115834346D01*
X126642265Y-116120000D01*
X126697434Y-116202566D01*
X126797434Y-116302566D01*
X127165654Y-116548603D01*
X127600000Y-116634999D01*
X128034345Y-116548603D01*
X128402566Y-116302566D01*
X128648603Y-115934345D01*
X128734999Y-115500000D01*
X128648603Y-115065654D01*
X128635000Y-115045296D01*
X128635000Y-114738587D01*
X142627277Y-114738587D01*
X142643503Y-115587787D01*
X142937261Y-116296982D01*
X143256030Y-116456765D01*
X144590395Y-115122400D01*
X144949605Y-115122400D01*
X146283970Y-116456765D01*
X146602739Y-116296982D01*
X146912723Y-115506213D01*
X146896497Y-114657013D01*
X146602739Y-113947818D01*
X146283970Y-113788035D01*
X144949605Y-115122400D01*
X144590395Y-115122400D01*
X143256030Y-113788035D01*
X142937261Y-113947818D01*
X142627277Y-114738587D01*
X128635000Y-114738587D01*
X128635000Y-113608430D01*
X143435635Y-113608430D01*
X144770000Y-114942795D01*
X146104365Y-113608430D01*
X145944582Y-113289661D01*
X145153813Y-112979677D01*
X144304613Y-112995903D01*
X143595418Y-113289661D01*
X143435635Y-113608430D01*
X128635000Y-113608430D01*
X128635000Y-107266685D01*
X140714760Y-107266685D01*
X140925169Y-107775915D01*
X141156313Y-108007462D01*
X140926539Y-108236836D01*
X140715241Y-108745698D01*
X140714760Y-109296685D01*
X140925169Y-109805915D01*
X141314436Y-110195861D01*
X141546870Y-110292376D01*
X141316485Y-110387569D01*
X140926539Y-110776836D01*
X140715241Y-111285698D01*
X140714760Y-111836685D01*
X140925169Y-112345915D01*
X141314436Y-112735861D01*
X141823298Y-112947159D01*
X142374285Y-112947640D01*
X142883515Y-112737231D01*
X143273461Y-112347964D01*
X143484759Y-111839102D01*
X143485240Y-111288115D01*
X143274831Y-110778885D01*
X142885564Y-110388939D01*
X142653130Y-110292424D01*
X142883515Y-110197231D01*
X143273461Y-109807964D01*
X143484759Y-109299102D01*
X143485240Y-108748115D01*
X143274831Y-108238885D01*
X143043687Y-108007338D01*
X143273461Y-107777964D01*
X143484759Y-107269102D01*
X143485240Y-106718115D01*
X143274831Y-106208885D01*
X142885564Y-105818939D01*
X142669021Y-105729023D01*
X142823923Y-105664860D01*
X142891912Y-105423917D01*
X142100000Y-104632005D01*
X141308088Y-105423917D01*
X141376077Y-105664860D01*
X141542621Y-105724132D01*
X141316485Y-105817569D01*
X140926539Y-106206836D01*
X140715241Y-106715698D01*
X140714760Y-107266685D01*
X128635000Y-107266685D01*
X128635000Y-105300000D01*
X128548603Y-104865654D01*
X128302566Y-104497434D01*
X127934346Y-104251397D01*
X127915112Y-104247571D01*
X140702799Y-104247571D01*
X140730770Y-104797848D01*
X140887540Y-105176323D01*
X141128483Y-105244312D01*
X141920395Y-104452400D01*
X142279605Y-104452400D01*
X143071517Y-105244312D01*
X143312460Y-105176323D01*
X143497201Y-104657229D01*
X143469230Y-104106952D01*
X143312460Y-103728477D01*
X143071517Y-103660488D01*
X142279605Y-104452400D01*
X141920395Y-104452400D01*
X141128483Y-103660488D01*
X140887540Y-103728477D01*
X140702799Y-104247571D01*
X127915112Y-104247571D01*
X127500000Y-104165000D01*
X127065654Y-104251397D01*
X126697434Y-104497434D01*
X126451397Y-104865654D01*
X126365000Y-105300000D01*
X114777440Y-105300000D01*
X114777440Y-104960000D01*
X114733162Y-104724683D01*
X114594090Y-104508559D01*
X114381890Y-104363569D01*
X114130000Y-104312560D01*
X110980000Y-104312560D01*
X110744683Y-104356838D01*
X110560000Y-104475678D01*
X110560000Y-103901566D01*
X110728110Y-104016431D01*
X110980000Y-104067440D01*
X114130000Y-104067440D01*
X114365317Y-104023162D01*
X114581441Y-103884090D01*
X114726431Y-103671890D01*
X114765110Y-103480883D01*
X141308088Y-103480883D01*
X142100000Y-104272795D01*
X142891912Y-103480883D01*
X142823923Y-103239940D01*
X142304829Y-103055199D01*
X141754552Y-103083170D01*
X141376077Y-103239940D01*
X141308088Y-103480883D01*
X114765110Y-103480883D01*
X114777440Y-103420000D01*
X114777440Y-102916370D01*
X143435635Y-102916370D01*
X143595418Y-103235139D01*
X144386187Y-103545123D01*
X145235387Y-103528897D01*
X145944582Y-103235139D01*
X146104365Y-102916370D01*
X144770000Y-101582005D01*
X143435635Y-102916370D01*
X114777440Y-102916370D01*
X114777440Y-102420000D01*
X114733162Y-102184683D01*
X114594090Y-101968559D01*
X114381890Y-101823569D01*
X114130000Y-101772560D01*
X110980000Y-101772560D01*
X110744683Y-101816838D01*
X110528559Y-101955910D01*
X110383569Y-102168110D01*
X110332560Y-102420000D01*
X110332560Y-102857757D01*
X109857401Y-102382599D01*
X109666387Y-102254968D01*
X109653162Y-102184683D01*
X109514090Y-101968559D01*
X109301890Y-101823569D01*
X109050000Y-101772560D01*
X105900000Y-101772560D01*
X105664683Y-101816838D01*
X105448559Y-101955910D01*
X105303569Y-102168110D01*
X105252560Y-102420000D01*
X104710000Y-102420000D01*
X104710000Y-99880000D01*
X105252560Y-99880000D01*
X105252560Y-100880000D01*
X105296838Y-101115317D01*
X105435910Y-101331441D01*
X105648110Y-101476431D01*
X105900000Y-101527440D01*
X109050000Y-101527440D01*
X109285317Y-101483162D01*
X109501441Y-101344090D01*
X109646431Y-101131890D01*
X109697440Y-100880000D01*
X109697440Y-100777362D01*
X110332560Y-100142242D01*
X110332560Y-100880000D01*
X110376838Y-101115317D01*
X110515910Y-101331441D01*
X110728110Y-101476431D01*
X110980000Y-101527440D01*
X114130000Y-101527440D01*
X114365317Y-101483162D01*
X114581441Y-101344090D01*
X114726431Y-101131890D01*
X114749375Y-101018587D01*
X142627277Y-101018587D01*
X142643503Y-101867787D01*
X142937261Y-102576982D01*
X143256030Y-102736765D01*
X144590395Y-101402400D01*
X144949605Y-101402400D01*
X146283970Y-102736765D01*
X146602739Y-102576982D01*
X146912723Y-101786213D01*
X146896497Y-100937013D01*
X146602739Y-100227818D01*
X146283970Y-100068035D01*
X144949605Y-101402400D01*
X144590395Y-101402400D01*
X143256030Y-100068035D01*
X142937261Y-100227818D01*
X142627277Y-101018587D01*
X114749375Y-101018587D01*
X114777440Y-100880000D01*
X114777440Y-99960000D01*
X115437537Y-99960000D01*
X115469673Y-99992192D01*
X115813201Y-100134838D01*
X116185167Y-100135162D01*
X116528943Y-99993117D01*
X116633812Y-99888430D01*
X143435635Y-99888430D01*
X144770000Y-101222795D01*
X146104365Y-99888430D01*
X145944582Y-99569661D01*
X145153813Y-99259677D01*
X144304613Y-99275903D01*
X143595418Y-99569661D01*
X143435635Y-99888430D01*
X116633812Y-99888430D01*
X116792192Y-99730327D01*
X116934838Y-99386799D01*
X116935162Y-99014833D01*
X116793117Y-98671057D01*
X116530327Y-98407808D01*
X116186799Y-98265162D01*
X115814833Y-98264838D01*
X115471057Y-98406883D01*
X115437882Y-98440000D01*
X114757189Y-98440000D01*
X114777440Y-98340000D01*
X114777440Y-97340000D01*
X114733162Y-97104683D01*
X114594090Y-96888559D01*
X114381890Y-96743569D01*
X114130000Y-96692560D01*
X110980000Y-96692560D01*
X110744683Y-96736838D01*
X110528559Y-96875910D01*
X110383569Y-97088110D01*
X110332560Y-97340000D01*
X110332560Y-98340000D01*
X110351376Y-98440000D01*
X110200000Y-98440000D01*
X109909161Y-98497852D01*
X109662599Y-98662599D01*
X109085458Y-99239740D01*
X109050000Y-99232560D01*
X105900000Y-99232560D01*
X105664683Y-99276838D01*
X105448559Y-99415910D01*
X105303569Y-99628110D01*
X105252560Y-99880000D01*
X104710000Y-99880000D01*
X104710000Y-97340000D01*
X105252560Y-97340000D01*
X105252560Y-98340000D01*
X105296838Y-98575317D01*
X105435910Y-98791441D01*
X105648110Y-98936431D01*
X105900000Y-98987440D01*
X109050000Y-98987440D01*
X109285317Y-98943162D01*
X109501441Y-98804090D01*
X109646431Y-98591890D01*
X109697440Y-98340000D01*
X109697440Y-97340000D01*
X109653162Y-97104683D01*
X109514090Y-96888559D01*
X109301890Y-96743569D01*
X109050000Y-96692560D01*
X105900000Y-96692560D01*
X105664683Y-96736838D01*
X105448559Y-96875910D01*
X105303569Y-97088110D01*
X105252560Y-97340000D01*
X104710000Y-97340000D01*
X104710000Y-94673690D01*
X105265000Y-94673690D01*
X105265000Y-95014250D01*
X105423750Y-95173000D01*
X105778600Y-95173000D01*
X105776691Y-95178931D01*
X105796921Y-95427000D01*
X105423750Y-95427000D01*
X105265000Y-95585750D01*
X105265000Y-95926310D01*
X105361673Y-96159699D01*
X105540302Y-96338327D01*
X105773691Y-96435000D01*
X107189250Y-96435000D01*
X107348000Y-96276250D01*
X107348000Y-96139517D01*
X107358516Y-96052384D01*
X107440370Y-96134238D01*
X107460000Y-96114608D01*
X107479630Y-96134238D01*
X107561483Y-96052385D01*
X107581977Y-96222180D01*
X107602000Y-96228623D01*
X107602000Y-96276250D01*
X107760750Y-96435000D01*
X109176309Y-96435000D01*
X109409698Y-96338327D01*
X109588327Y-96159699D01*
X109685000Y-95926310D01*
X109685000Y-95585750D01*
X109526250Y-95427000D01*
X109141400Y-95427000D01*
X109143309Y-95421069D01*
X109123079Y-95173000D01*
X109526250Y-95173000D01*
X109685000Y-95014250D01*
X109685000Y-94800000D01*
X110332560Y-94800000D01*
X110332560Y-95800000D01*
X110376838Y-96035317D01*
X110515910Y-96251441D01*
X110728110Y-96396431D01*
X110980000Y-96447440D01*
X114130000Y-96447440D01*
X114365317Y-96403162D01*
X114581441Y-96264090D01*
X114726431Y-96051890D01*
X114777440Y-95800000D01*
X114777440Y-94800000D01*
X114733162Y-94564683D01*
X114594090Y-94348559D01*
X114381890Y-94203569D01*
X114130000Y-94152560D01*
X110980000Y-94152560D01*
X110744683Y-94196838D01*
X110528559Y-94335910D01*
X110383569Y-94548110D01*
X110332560Y-94800000D01*
X109685000Y-94800000D01*
X109685000Y-94673690D01*
X109588327Y-94440301D01*
X109409698Y-94261673D01*
X109176309Y-94165000D01*
X107760750Y-94165000D01*
X107602000Y-94323750D01*
X107602000Y-94369526D01*
X107581977Y-94377820D01*
X107561483Y-94547615D01*
X107479630Y-94465762D01*
X107460000Y-94485392D01*
X107440370Y-94465762D01*
X107358516Y-94547616D01*
X107348000Y-94460483D01*
X107348000Y-94323750D01*
X107189250Y-94165000D01*
X105773691Y-94165000D01*
X105540302Y-94261673D01*
X105361673Y-94440301D01*
X105265000Y-94673690D01*
X104710000Y-94673690D01*
X104710000Y-92133690D01*
X105265000Y-92133690D01*
X105265000Y-92474250D01*
X105423750Y-92633000D01*
X105778600Y-92633000D01*
X105776691Y-92638931D01*
X105796921Y-92887000D01*
X105423750Y-92887000D01*
X105265000Y-93045750D01*
X105265000Y-93386310D01*
X105361673Y-93619699D01*
X105540302Y-93798327D01*
X105773691Y-93895000D01*
X107189250Y-93895000D01*
X107348000Y-93736250D01*
X107348000Y-93599517D01*
X107358516Y-93512384D01*
X107440370Y-93594238D01*
X107460000Y-93574608D01*
X107479630Y-93594238D01*
X107561483Y-93512385D01*
X107581977Y-93682180D01*
X107602000Y-93688623D01*
X107602000Y-93736250D01*
X107760750Y-93895000D01*
X109176309Y-93895000D01*
X109409698Y-93798327D01*
X109588327Y-93619699D01*
X109685000Y-93386310D01*
X109685000Y-93045750D01*
X109526250Y-92887000D01*
X109141400Y-92887000D01*
X109143309Y-92881069D01*
X109123079Y-92633000D01*
X109526250Y-92633000D01*
X109685000Y-92474250D01*
X109685000Y-92260000D01*
X110332560Y-92260000D01*
X110332560Y-93260000D01*
X110376838Y-93495317D01*
X110515910Y-93711441D01*
X110728110Y-93856431D01*
X110980000Y-93907440D01*
X114130000Y-93907440D01*
X114365317Y-93863162D01*
X114581441Y-93724090D01*
X114726431Y-93511890D01*
X114777440Y-93260000D01*
X114777440Y-92260000D01*
X114733162Y-92024683D01*
X114594090Y-91808559D01*
X114381890Y-91663569D01*
X114130000Y-91612560D01*
X110980000Y-91612560D01*
X110744683Y-91656838D01*
X110528559Y-91795910D01*
X110383569Y-92008110D01*
X110332560Y-92260000D01*
X109685000Y-92260000D01*
X109685000Y-92133690D01*
X109588327Y-91900301D01*
X109409698Y-91721673D01*
X109176309Y-91625000D01*
X107760750Y-91625000D01*
X107602000Y-91783750D01*
X107602000Y-91829526D01*
X107581977Y-91837820D01*
X107561483Y-92007615D01*
X107479630Y-91925762D01*
X107460000Y-91945392D01*
X107440370Y-91925762D01*
X107358516Y-92007616D01*
X107348000Y-91920483D01*
X107348000Y-91783750D01*
X107189250Y-91625000D01*
X105773691Y-91625000D01*
X105540302Y-91721673D01*
X105361673Y-91900301D01*
X105265000Y-92133690D01*
X104710000Y-92133690D01*
X104710000Y-89593690D01*
X105265000Y-89593690D01*
X105265000Y-89934250D01*
X105423750Y-90093000D01*
X105778600Y-90093000D01*
X105776691Y-90098931D01*
X105796921Y-90347000D01*
X105423750Y-90347000D01*
X105265000Y-90505750D01*
X105265000Y-90846310D01*
X105361673Y-91079699D01*
X105540302Y-91258327D01*
X105773691Y-91355000D01*
X107189250Y-91355000D01*
X107348000Y-91196250D01*
X107348000Y-91059517D01*
X107358516Y-90972384D01*
X107440370Y-91054238D01*
X107460000Y-91034608D01*
X107479630Y-91054238D01*
X107561483Y-90972385D01*
X107581977Y-91142180D01*
X107602000Y-91148623D01*
X107602000Y-91196250D01*
X107760750Y-91355000D01*
X109176309Y-91355000D01*
X109409698Y-91258327D01*
X109588327Y-91079699D01*
X109685000Y-90846310D01*
X109685000Y-90505750D01*
X109526250Y-90347000D01*
X109141400Y-90347000D01*
X109143309Y-90341069D01*
X109123079Y-90093000D01*
X109526250Y-90093000D01*
X109685000Y-89934250D01*
X109685000Y-89720000D01*
X110332560Y-89720000D01*
X110332560Y-90720000D01*
X110376838Y-90955317D01*
X110515910Y-91171441D01*
X110728110Y-91316431D01*
X110980000Y-91367440D01*
X114130000Y-91367440D01*
X114365317Y-91323162D01*
X114581441Y-91184090D01*
X114726431Y-90971890D01*
X114777440Y-90720000D01*
X114777440Y-89720000D01*
X114733162Y-89484683D01*
X114594090Y-89268559D01*
X114381890Y-89123569D01*
X114130000Y-89072560D01*
X110980000Y-89072560D01*
X110744683Y-89116838D01*
X110528559Y-89255910D01*
X110383569Y-89468110D01*
X110332560Y-89720000D01*
X109685000Y-89720000D01*
X109685000Y-89593690D01*
X109588327Y-89360301D01*
X109409698Y-89181673D01*
X109176309Y-89085000D01*
X107760750Y-89085000D01*
X107602000Y-89243750D01*
X107602000Y-89289526D01*
X107581977Y-89297820D01*
X107561483Y-89467615D01*
X107479630Y-89385762D01*
X107460000Y-89405392D01*
X107440370Y-89385762D01*
X107358516Y-89467616D01*
X107348000Y-89380483D01*
X107348000Y-89243750D01*
X107189250Y-89085000D01*
X105773691Y-89085000D01*
X105540302Y-89181673D01*
X105361673Y-89360301D01*
X105265000Y-89593690D01*
X104710000Y-89593690D01*
X104710000Y-85294092D01*
X104988910Y-85015182D01*
X104765389Y-85553481D01*
X104764613Y-86442619D01*
X105104155Y-87264372D01*
X105732321Y-87893636D01*
X106553481Y-88234611D01*
X107442619Y-88235387D01*
X108264372Y-87895845D01*
X108893636Y-87267679D01*
X109234611Y-86446519D01*
X109235387Y-85557381D01*
X108895845Y-84735628D01*
X108267679Y-84106364D01*
X107446519Y-83765389D01*
X106557381Y-83764613D01*
X106015633Y-83988459D01*
X106294092Y-83710000D01*
X111705908Y-83710000D01*
X111790000Y-83794092D01*
X111790000Y-83794092D01*
G37*
X111790000Y-83794092D02*
X111790000Y-84449406D01*
X111346627Y-84265301D01*
X110656401Y-84264699D01*
X110018485Y-84528281D01*
X109529996Y-85015918D01*
X109265301Y-85653373D01*
X109264699Y-86343599D01*
X109528281Y-86981515D01*
X110015918Y-87470004D01*
X110653373Y-87734699D01*
X111343599Y-87735301D01*
X111981515Y-87471719D01*
X112470004Y-86984082D01*
X112734699Y-86346627D01*
X112734701Y-86343599D01*
X145264699Y-86343599D01*
X145528281Y-86981515D01*
X146015918Y-87470004D01*
X146653373Y-87734699D01*
X147343599Y-87735301D01*
X147981515Y-87471719D01*
X148470004Y-86984082D01*
X148734699Y-86346627D01*
X148735301Y-85656401D01*
X148471719Y-85018485D01*
X147984082Y-84529996D01*
X147346627Y-84265301D01*
X146656401Y-84264699D01*
X146018485Y-84528281D01*
X145529996Y-85015918D01*
X145265301Y-85653373D01*
X145264699Y-86343599D01*
X112734701Y-86343599D01*
X112734864Y-86157261D01*
X113000000Y-86210000D01*
X116000000Y-86210000D01*
X116271705Y-86155954D01*
X116502046Y-86002046D01*
X117002046Y-85502046D01*
X117155954Y-85271705D01*
X117210000Y-85000000D01*
X117210000Y-83794092D01*
X117294092Y-83710000D01*
X151705908Y-83710000D01*
X151984818Y-83988910D01*
X151446519Y-83765389D01*
X150557381Y-83764613D01*
X149735628Y-84104155D01*
X149106364Y-84732321D01*
X148765389Y-85553481D01*
X148764613Y-86442619D01*
X149104155Y-87264372D01*
X149732321Y-87893636D01*
X150553481Y-88234611D01*
X151442619Y-88235387D01*
X152264372Y-87895845D01*
X152893636Y-87267679D01*
X153234611Y-86446519D01*
X153235387Y-85557381D01*
X153011541Y-85015633D01*
X153290000Y-85294092D01*
X153290000Y-130705908D01*
X153011090Y-130984818D01*
X153234611Y-130446519D01*
X153235387Y-129557381D01*
X152895845Y-128735628D01*
X152267679Y-128106364D01*
X151446519Y-127765389D01*
X150557381Y-127764613D01*
X149735628Y-128104155D01*
X149106364Y-128732321D01*
X148765389Y-129553481D01*
X148764613Y-130442619D01*
X149104155Y-131264372D01*
X149732321Y-131893636D01*
X150553481Y-132234611D01*
X151442619Y-132235387D01*
X151984367Y-132011541D01*
X151705908Y-132290000D01*
X106294092Y-132290000D01*
X106015182Y-132011090D01*
X106553481Y-132234611D01*
X107442619Y-132235387D01*
X108264372Y-131895845D01*
X108893636Y-131267679D01*
X109234611Y-130446519D01*
X109234700Y-130343599D01*
X109264699Y-130343599D01*
X109528281Y-130981515D01*
X110015918Y-131470004D01*
X110653373Y-131734699D01*
X111343599Y-131735301D01*
X111981515Y-131471719D01*
X112470004Y-130984082D01*
X112539428Y-130816890D01*
X117798524Y-130816890D01*
X117968355Y-131226924D01*
X118358642Y-131655183D01*
X118883108Y-131901486D01*
X119113000Y-131780819D01*
X119113000Y-130587000D01*
X119367000Y-130587000D01*
X119367000Y-131780819D01*
X119596892Y-131901486D01*
X120121358Y-131655183D01*
X120511645Y-131226924D01*
X120681476Y-130816890D01*
X120560155Y-130587000D01*
X119367000Y-130587000D01*
X119113000Y-130587000D01*
X117919845Y-130587000D01*
X117798524Y-130816890D01*
X112539428Y-130816890D01*
X112734699Y-130346627D01*
X112734701Y-130343599D01*
X145264699Y-130343599D01*
X145528281Y-130981515D01*
X146015918Y-131470004D01*
X146653373Y-131734699D01*
X147343599Y-131735301D01*
X147981515Y-131471719D01*
X148470004Y-130984082D01*
X148734699Y-130346627D01*
X148735301Y-129656401D01*
X148471719Y-129018485D01*
X147984082Y-128529996D01*
X147346627Y-128265301D01*
X146656401Y-128264699D01*
X146018485Y-128528281D01*
X145529996Y-129015918D01*
X145265301Y-129653373D01*
X145264699Y-130343599D01*
X112734701Y-130343599D01*
X112735301Y-129656401D01*
X112471719Y-129018485D01*
X111984082Y-128529996D01*
X111346627Y-128265301D01*
X110656401Y-128264699D01*
X110018485Y-128528281D01*
X109529996Y-129015918D01*
X109265301Y-129653373D01*
X109264699Y-130343599D01*
X109234700Y-130343599D01*
X109235387Y-129557381D01*
X108895845Y-128735628D01*
X108267679Y-128106364D01*
X107446519Y-127765389D01*
X106557381Y-127764613D01*
X105735628Y-128104155D01*
X105106364Y-128732321D01*
X104765389Y-129553481D01*
X104764613Y-130442619D01*
X104988459Y-130984367D01*
X104710000Y-130705908D01*
X104710000Y-127070000D01*
X117742560Y-127070000D01*
X117742560Y-128770000D01*
X117786838Y-129005317D01*
X117925910Y-129221441D01*
X118138110Y-129366431D01*
X118246107Y-129388301D01*
X117968355Y-129693076D01*
X117798524Y-130103110D01*
X117919845Y-130333000D01*
X119113000Y-130333000D01*
X119113000Y-130313000D01*
X119367000Y-130313000D01*
X119367000Y-130333000D01*
X120560155Y-130333000D01*
X120681476Y-130103110D01*
X120511645Y-129693076D01*
X120235499Y-129390063D01*
X120325317Y-129373162D01*
X120541441Y-129234090D01*
X120686431Y-129021890D01*
X120737440Y-128770000D01*
X120737440Y-127070000D01*
X120693162Y-126834683D01*
X120554090Y-126618559D01*
X120341890Y-126473569D01*
X120090000Y-126422560D01*
X118390000Y-126422560D01*
X118154683Y-126466838D01*
X117938559Y-126605910D01*
X117793569Y-126818110D01*
X117742560Y-127070000D01*
X104710000Y-127070000D01*
X104710000Y-125280000D01*
X105252560Y-125280000D01*
X105252560Y-126280000D01*
X105296838Y-126515317D01*
X105435910Y-126731441D01*
X105648110Y-126876431D01*
X105900000Y-126927440D01*
X109050000Y-126927440D01*
X109285317Y-126883162D01*
X109501441Y-126744090D01*
X109646431Y-126531890D01*
X109697440Y-126280000D01*
X109697440Y-125280000D01*
X110332560Y-125280000D01*
X110332560Y-126280000D01*
X110376838Y-126515317D01*
X110515910Y-126731441D01*
X110728110Y-126876431D01*
X110980000Y-126927440D01*
X114130000Y-126927440D01*
X114365317Y-126883162D01*
X114581441Y-126744090D01*
X114726431Y-126531890D01*
X114777440Y-126280000D01*
X114777440Y-125280000D01*
X114733162Y-125044683D01*
X114594090Y-124828559D01*
X114381890Y-124683569D01*
X114130000Y-124632560D01*
X110980000Y-124632560D01*
X110744683Y-124676838D01*
X110528559Y-124815910D01*
X110383569Y-125028110D01*
X110332560Y-125280000D01*
X109697440Y-125280000D01*
X109653162Y-125044683D01*
X109514090Y-124828559D01*
X109301890Y-124683569D01*
X109050000Y-124632560D01*
X105900000Y-124632560D01*
X105664683Y-124676838D01*
X105448559Y-124815910D01*
X105303569Y-125028110D01*
X105252560Y-125280000D01*
X104710000Y-125280000D01*
X104710000Y-122740000D01*
X105252560Y-122740000D01*
X105252560Y-123740000D01*
X105296838Y-123975317D01*
X105435910Y-124191441D01*
X105648110Y-124336431D01*
X105900000Y-124387440D01*
X109050000Y-124387440D01*
X109285317Y-124343162D01*
X109501441Y-124204090D01*
X109646431Y-123991890D01*
X109697440Y-123740000D01*
X109697440Y-122740000D01*
X110332560Y-122740000D01*
X110332560Y-123740000D01*
X110376838Y-123975317D01*
X110515910Y-124191441D01*
X110728110Y-124336431D01*
X110980000Y-124387440D01*
X114130000Y-124387440D01*
X114365317Y-124343162D01*
X114581441Y-124204090D01*
X114726431Y-123991890D01*
X114777440Y-123740000D01*
X114777440Y-122740000D01*
X114733162Y-122504683D01*
X114594090Y-122288559D01*
X114381890Y-122143569D01*
X114130000Y-122092560D01*
X110980000Y-122092560D01*
X110744683Y-122136838D01*
X110528559Y-122275910D01*
X110383569Y-122488110D01*
X110332560Y-122740000D01*
X109697440Y-122740000D01*
X109653162Y-122504683D01*
X109514090Y-122288559D01*
X109301890Y-122143569D01*
X109050000Y-122092560D01*
X105900000Y-122092560D01*
X105664683Y-122136838D01*
X105448559Y-122275910D01*
X105303569Y-122488110D01*
X105252560Y-122740000D01*
X104710000Y-122740000D01*
X104710000Y-120200000D01*
X105252560Y-120200000D01*
X105252560Y-121200000D01*
X105296838Y-121435317D01*
X105435910Y-121651441D01*
X105648110Y-121796431D01*
X105900000Y-121847440D01*
X109050000Y-121847440D01*
X109285317Y-121803162D01*
X109501441Y-121664090D01*
X109646431Y-121451890D01*
X109697440Y-121200000D01*
X109697440Y-120200000D01*
X110332560Y-120200000D01*
X110332560Y-121200000D01*
X110376838Y-121435317D01*
X110515910Y-121651441D01*
X110728110Y-121796431D01*
X110980000Y-121847440D01*
X114130000Y-121847440D01*
X114365317Y-121803162D01*
X114581441Y-121664090D01*
X114726431Y-121451890D01*
X114777440Y-121200000D01*
X114777440Y-120200000D01*
X114733162Y-119964683D01*
X114594090Y-119748559D01*
X114381890Y-119603569D01*
X114130000Y-119552560D01*
X110980000Y-119552560D01*
X110744683Y-119596838D01*
X110528559Y-119735910D01*
X110383569Y-119948110D01*
X110332560Y-120200000D01*
X109697440Y-120200000D01*
X109653162Y-119964683D01*
X109514090Y-119748559D01*
X109301890Y-119603569D01*
X109050000Y-119552560D01*
X105900000Y-119552560D01*
X105664683Y-119596838D01*
X105448559Y-119735910D01*
X105303569Y-119948110D01*
X105252560Y-120200000D01*
X104710000Y-120200000D01*
X104710000Y-117660000D01*
X105252560Y-117660000D01*
X105252560Y-118660000D01*
X105296838Y-118895317D01*
X105435910Y-119111441D01*
X105648110Y-119256431D01*
X105900000Y-119307440D01*
X109050000Y-119307440D01*
X109285317Y-119263162D01*
X109501441Y-119124090D01*
X109646431Y-118911890D01*
X109697440Y-118660000D01*
X109697440Y-117660000D01*
X110332560Y-117660000D01*
X110332560Y-118660000D01*
X110376838Y-118895317D01*
X110515910Y-119111441D01*
X110728110Y-119256431D01*
X110980000Y-119307440D01*
X114130000Y-119307440D01*
X114365317Y-119263162D01*
X114581441Y-119124090D01*
X114726431Y-118911890D01*
X114777440Y-118660000D01*
X114777440Y-117660000D01*
X114733162Y-117424683D01*
X114594090Y-117208559D01*
X114381890Y-117063569D01*
X114130000Y-117012560D01*
X110980000Y-117012560D01*
X110744683Y-117056838D01*
X110528559Y-117195910D01*
X110383569Y-117408110D01*
X110332560Y-117660000D01*
X109697440Y-117660000D01*
X109653162Y-117424683D01*
X109514090Y-117208559D01*
X109301890Y-117063569D01*
X109050000Y-117012560D01*
X105900000Y-117012560D01*
X105664683Y-117056838D01*
X105448559Y-117195910D01*
X105303569Y-117408110D01*
X105252560Y-117660000D01*
X104710000Y-117660000D01*
X104710000Y-115120000D01*
X105252560Y-115120000D01*
X105252560Y-116120000D01*
X105296838Y-116355317D01*
X105435910Y-116571441D01*
X105648110Y-116716431D01*
X105900000Y-116767440D01*
X109050000Y-116767440D01*
X109285317Y-116723162D01*
X109501441Y-116584090D01*
X109646431Y-116371890D01*
X109697440Y-116120000D01*
X109697440Y-115120000D01*
X110332560Y-115120000D01*
X110332560Y-116120000D01*
X110376838Y-116355317D01*
X110515910Y-116571441D01*
X110728110Y-116716431D01*
X110980000Y-116767440D01*
X114130000Y-116767440D01*
X114365317Y-116723162D01*
X114500195Y-116636370D01*
X143435635Y-116636370D01*
X143595418Y-116955139D01*
X144386187Y-117265123D01*
X145235387Y-117248897D01*
X145944582Y-116955139D01*
X146104365Y-116636370D01*
X144770000Y-115302005D01*
X143435635Y-116636370D01*
X114500195Y-116636370D01*
X114581441Y-116584090D01*
X114726431Y-116371890D01*
X114777440Y-116120000D01*
X114777440Y-115120000D01*
X114733162Y-114884683D01*
X114594090Y-114668559D01*
X114381890Y-114523569D01*
X114130000Y-114472560D01*
X110980000Y-114472560D01*
X110744683Y-114516838D01*
X110528559Y-114655910D01*
X110383569Y-114868110D01*
X110332560Y-115120000D01*
X109697440Y-115120000D01*
X109653162Y-114884683D01*
X109514090Y-114668559D01*
X109301890Y-114523569D01*
X109050000Y-114472560D01*
X105900000Y-114472560D01*
X105664683Y-114516838D01*
X105448559Y-114655910D01*
X105303569Y-114868110D01*
X105252560Y-115120000D01*
X104710000Y-115120000D01*
X104710000Y-112580000D01*
X105252560Y-112580000D01*
X105252560Y-113580000D01*
X105296838Y-113815317D01*
X105435910Y-114031441D01*
X105648110Y-114176431D01*
X105900000Y-114227440D01*
X109050000Y-114227440D01*
X109285317Y-114183162D01*
X109501441Y-114044090D01*
X109646431Y-113831890D01*
X109697440Y-113580000D01*
X109697440Y-112580000D01*
X110332560Y-112580000D01*
X110332560Y-113580000D01*
X110376838Y-113815317D01*
X110515910Y-114031441D01*
X110728110Y-114176431D01*
X110980000Y-114227440D01*
X114130000Y-114227440D01*
X114365317Y-114183162D01*
X114581441Y-114044090D01*
X114726431Y-113831890D01*
X114777440Y-113580000D01*
X114777440Y-112580000D01*
X114733162Y-112344683D01*
X114594090Y-112128559D01*
X114381890Y-111983569D01*
X114130000Y-111932560D01*
X110980000Y-111932560D01*
X110744683Y-111976838D01*
X110528559Y-112115910D01*
X110383569Y-112328110D01*
X110332560Y-112580000D01*
X109697440Y-112580000D01*
X109653162Y-112344683D01*
X109514090Y-112128559D01*
X109301890Y-111983569D01*
X109050000Y-111932560D01*
X105900000Y-111932560D01*
X105664683Y-111976838D01*
X105448559Y-112115910D01*
X105303569Y-112328110D01*
X105252560Y-112580000D01*
X104710000Y-112580000D01*
X104710000Y-110040000D01*
X105252560Y-110040000D01*
X105252560Y-111040000D01*
X105296838Y-111275317D01*
X105435910Y-111491441D01*
X105648110Y-111636431D01*
X105900000Y-111687440D01*
X109050000Y-111687440D01*
X109285317Y-111643162D01*
X109501441Y-111504090D01*
X109646431Y-111291890D01*
X109697440Y-111040000D01*
X109697440Y-110040000D01*
X109653162Y-109804683D01*
X109514090Y-109588559D01*
X109301890Y-109443569D01*
X109050000Y-109392560D01*
X105900000Y-109392560D01*
X105664683Y-109436838D01*
X105448559Y-109575910D01*
X105303569Y-109788110D01*
X105252560Y-110040000D01*
X104710000Y-110040000D01*
X104710000Y-102420000D01*
X105252560Y-102420000D01*
X105252560Y-103420000D01*
X105296838Y-103655317D01*
X105435910Y-103871441D01*
X105648110Y-104016431D01*
X105900000Y-104067440D01*
X109040000Y-104067440D01*
X109040000Y-104312560D01*
X105900000Y-104312560D01*
X105664683Y-104356838D01*
X105448559Y-104495910D01*
X105303569Y-104708110D01*
X105252560Y-104960000D01*
X105252560Y-105960000D01*
X105296838Y-106195317D01*
X105435910Y-106411441D01*
X105648110Y-106556431D01*
X105900000Y-106607440D01*
X109040000Y-106607440D01*
X109040000Y-106852560D01*
X105900000Y-106852560D01*
X105664683Y-106896838D01*
X105448559Y-107035910D01*
X105303569Y-107248110D01*
X105252560Y-107500000D01*
X105252560Y-108500000D01*
X105296838Y-108735317D01*
X105435910Y-108951441D01*
X105648110Y-109096431D01*
X105900000Y-109147440D01*
X109050000Y-109147440D01*
X109285317Y-109103162D01*
X109311507Y-109086309D01*
X109962598Y-109737401D01*
X110068204Y-109807964D01*
X110209161Y-109902148D01*
X110354617Y-109931081D01*
X110332560Y-110040000D01*
X110332560Y-111040000D01*
X110376838Y-111275317D01*
X110515910Y-111491441D01*
X110728110Y-111636431D01*
X110980000Y-111687440D01*
X114130000Y-111687440D01*
X114365317Y-111643162D01*
X114581441Y-111504090D01*
X114726431Y-111291890D01*
X114777440Y-111040000D01*
X114777440Y-110040000D01*
X114762387Y-109960000D01*
X117784523Y-109960000D01*
X117671057Y-110006883D01*
X117407808Y-110269673D01*
X117265162Y-110613201D01*
X117264838Y-110985167D01*
X117406883Y-111328943D01*
X117440000Y-111362118D01*
X117440000Y-112237537D01*
X117407808Y-112269673D01*
X117265162Y-112613201D01*
X117264838Y-112985167D01*
X117406883Y-113328943D01*
X117669673Y-113592192D01*
X118013201Y-113734838D01*
X118385167Y-113735162D01*
X118728943Y-113593117D01*
X118992192Y-113330327D01*
X119134838Y-112986799D01*
X119135162Y-112614833D01*
X118993117Y-112271057D01*
X118960000Y-112237882D01*
X118960000Y-111362463D01*
X118992192Y-111330327D01*
X119134838Y-110986799D01*
X119135162Y-110614833D01*
X118993117Y-110271057D01*
X118730327Y-110007808D01*
X118615193Y-109960000D01*
X118985198Y-109960000D01*
X119564878Y-110539680D01*
X119564838Y-110585167D01*
X119706883Y-110928943D01*
X119969673Y-111192192D01*
X120313201Y-111334838D01*
X120685167Y-111335162D01*
X121028943Y-111193117D01*
X121292192Y-110930327D01*
X121434838Y-110586799D01*
X121435162Y-110214833D01*
X121293117Y-109871057D01*
X121030327Y-109607808D01*
X120686799Y-109465162D01*
X120639923Y-109465121D01*
X120459969Y-109285167D01*
X123264838Y-109285167D01*
X123406883Y-109628943D01*
X123440000Y-109662118D01*
X123440000Y-112237537D01*
X123407808Y-112269673D01*
X123265162Y-112613201D01*
X123264838Y-112985167D01*
X123406883Y-113328943D01*
X123669673Y-113592192D01*
X124013201Y-113734838D01*
X124385167Y-113735162D01*
X124728943Y-113593117D01*
X124992192Y-113330327D01*
X125134838Y-112986799D01*
X125135162Y-112614833D01*
X124993117Y-112271057D01*
X124960000Y-112237882D01*
X124960000Y-109662463D01*
X124992192Y-109630327D01*
X125134838Y-109286799D01*
X125135162Y-108914833D01*
X124993117Y-108571057D01*
X124730327Y-108307808D01*
X124386799Y-108165162D01*
X124014833Y-108164838D01*
X123671057Y-108306883D01*
X123407808Y-108569673D01*
X123265162Y-108913201D01*
X123264838Y-109285167D01*
X120459969Y-109285167D01*
X119837401Y-108662599D01*
X119590839Y-108497852D01*
X119300000Y-108440000D01*
X118329699Y-108440000D01*
X118434838Y-108186799D01*
X118435162Y-107814833D01*
X118293117Y-107471057D01*
X118030327Y-107207808D01*
X117686799Y-107065162D01*
X117314833Y-107064838D01*
X116971057Y-107206883D01*
X116937882Y-107240000D01*
X114717279Y-107240000D01*
X114594090Y-107048559D01*
X114381890Y-106903569D01*
X114130000Y-106852560D01*
X110980000Y-106852560D01*
X110744683Y-106896838D01*
X110560000Y-107015678D01*
X110560000Y-106441566D01*
X110728110Y-106556431D01*
X110980000Y-106607440D01*
X114130000Y-106607440D01*
X114365317Y-106563162D01*
X114581441Y-106424090D01*
X114726431Y-106211890D01*
X114777440Y-105960000D01*
X114777440Y-105300000D01*
X126365000Y-105300000D01*
X126365000Y-115400000D01*
X126451397Y-115834346D01*
X126642265Y-116120000D01*
X126697434Y-116202566D01*
X126797434Y-116302566D01*
X127165654Y-116548603D01*
X127600000Y-116634999D01*
X128034345Y-116548603D01*
X128402566Y-116302566D01*
X128648603Y-115934345D01*
X128734999Y-115500000D01*
X128648603Y-115065654D01*
X128635000Y-115045296D01*
X128635000Y-114738587D01*
X142627277Y-114738587D01*
X142643503Y-115587787D01*
X142937261Y-116296982D01*
X143256030Y-116456765D01*
X144590395Y-115122400D01*
X144949605Y-115122400D01*
X146283970Y-116456765D01*
X146602739Y-116296982D01*
X146912723Y-115506213D01*
X146896497Y-114657013D01*
X146602739Y-113947818D01*
X146283970Y-113788035D01*
X144949605Y-115122400D01*
X144590395Y-115122400D01*
X143256030Y-113788035D01*
X142937261Y-113947818D01*
X142627277Y-114738587D01*
X128635000Y-114738587D01*
X128635000Y-113608430D01*
X143435635Y-113608430D01*
X144770000Y-114942795D01*
X146104365Y-113608430D01*
X145944582Y-113289661D01*
X145153813Y-112979677D01*
X144304613Y-112995903D01*
X143595418Y-113289661D01*
X143435635Y-113608430D01*
X128635000Y-113608430D01*
X128635000Y-107266685D01*
X140714760Y-107266685D01*
X140925169Y-107775915D01*
X141156313Y-108007462D01*
X140926539Y-108236836D01*
X140715241Y-108745698D01*
X140714760Y-109296685D01*
X140925169Y-109805915D01*
X141314436Y-110195861D01*
X141546870Y-110292376D01*
X141316485Y-110387569D01*
X140926539Y-110776836D01*
X140715241Y-111285698D01*
X140714760Y-111836685D01*
X140925169Y-112345915D01*
X141314436Y-112735861D01*
X141823298Y-112947159D01*
X142374285Y-112947640D01*
X142883515Y-112737231D01*
X143273461Y-112347964D01*
X143484759Y-111839102D01*
X143485240Y-111288115D01*
X143274831Y-110778885D01*
X142885564Y-110388939D01*
X142653130Y-110292424D01*
X142883515Y-110197231D01*
X143273461Y-109807964D01*
X143484759Y-109299102D01*
X143485240Y-108748115D01*
X143274831Y-108238885D01*
X143043687Y-108007338D01*
X143273461Y-107777964D01*
X143484759Y-107269102D01*
X143485240Y-106718115D01*
X143274831Y-106208885D01*
X142885564Y-105818939D01*
X142669021Y-105729023D01*
X142823923Y-105664860D01*
X142891912Y-105423917D01*
X142100000Y-104632005D01*
X141308088Y-105423917D01*
X141376077Y-105664860D01*
X141542621Y-105724132D01*
X141316485Y-105817569D01*
X140926539Y-106206836D01*
X140715241Y-106715698D01*
X140714760Y-107266685D01*
X128635000Y-107266685D01*
X128635000Y-105300000D01*
X128548603Y-104865654D01*
X128302566Y-104497434D01*
X127934346Y-104251397D01*
X127915112Y-104247571D01*
X140702799Y-104247571D01*
X140730770Y-104797848D01*
X140887540Y-105176323D01*
X141128483Y-105244312D01*
X141920395Y-104452400D01*
X142279605Y-104452400D01*
X143071517Y-105244312D01*
X143312460Y-105176323D01*
X143497201Y-104657229D01*
X143469230Y-104106952D01*
X143312460Y-103728477D01*
X143071517Y-103660488D01*
X142279605Y-104452400D01*
X141920395Y-104452400D01*
X141128483Y-103660488D01*
X140887540Y-103728477D01*
X140702799Y-104247571D01*
X127915112Y-104247571D01*
X127500000Y-104165000D01*
X127065654Y-104251397D01*
X126697434Y-104497434D01*
X126451397Y-104865654D01*
X126365000Y-105300000D01*
X114777440Y-105300000D01*
X114777440Y-104960000D01*
X114733162Y-104724683D01*
X114594090Y-104508559D01*
X114381890Y-104363569D01*
X114130000Y-104312560D01*
X110980000Y-104312560D01*
X110744683Y-104356838D01*
X110560000Y-104475678D01*
X110560000Y-103901566D01*
X110728110Y-104016431D01*
X110980000Y-104067440D01*
X114130000Y-104067440D01*
X114365317Y-104023162D01*
X114581441Y-103884090D01*
X114726431Y-103671890D01*
X114765110Y-103480883D01*
X141308088Y-103480883D01*
X142100000Y-104272795D01*
X142891912Y-103480883D01*
X142823923Y-103239940D01*
X142304829Y-103055199D01*
X141754552Y-103083170D01*
X141376077Y-103239940D01*
X141308088Y-103480883D01*
X114765110Y-103480883D01*
X114777440Y-103420000D01*
X114777440Y-102916370D01*
X143435635Y-102916370D01*
X143595418Y-103235139D01*
X144386187Y-103545123D01*
X145235387Y-103528897D01*
X145944582Y-103235139D01*
X146104365Y-102916370D01*
X144770000Y-101582005D01*
X143435635Y-102916370D01*
X114777440Y-102916370D01*
X114777440Y-102420000D01*
X114733162Y-102184683D01*
X114594090Y-101968559D01*
X114381890Y-101823569D01*
X114130000Y-101772560D01*
X110980000Y-101772560D01*
X110744683Y-101816838D01*
X110528559Y-101955910D01*
X110383569Y-102168110D01*
X110332560Y-102420000D01*
X110332560Y-102857757D01*
X109857401Y-102382599D01*
X109666387Y-102254968D01*
X109653162Y-102184683D01*
X109514090Y-101968559D01*
X109301890Y-101823569D01*
X109050000Y-101772560D01*
X105900000Y-101772560D01*
X105664683Y-101816838D01*
X105448559Y-101955910D01*
X105303569Y-102168110D01*
X105252560Y-102420000D01*
X104710000Y-102420000D01*
X104710000Y-99880000D01*
X105252560Y-99880000D01*
X105252560Y-100880000D01*
X105296838Y-101115317D01*
X105435910Y-101331441D01*
X105648110Y-101476431D01*
X105900000Y-101527440D01*
X109050000Y-101527440D01*
X109285317Y-101483162D01*
X109501441Y-101344090D01*
X109646431Y-101131890D01*
X109697440Y-100880000D01*
X109697440Y-100777362D01*
X110332560Y-100142242D01*
X110332560Y-100880000D01*
X110376838Y-101115317D01*
X110515910Y-101331441D01*
X110728110Y-101476431D01*
X110980000Y-101527440D01*
X114130000Y-101527440D01*
X114365317Y-101483162D01*
X114581441Y-101344090D01*
X114726431Y-101131890D01*
X114749375Y-101018587D01*
X142627277Y-101018587D01*
X142643503Y-101867787D01*
X142937261Y-102576982D01*
X143256030Y-102736765D01*
X144590395Y-101402400D01*
X144949605Y-101402400D01*
X146283970Y-102736765D01*
X146602739Y-102576982D01*
X146912723Y-101786213D01*
X146896497Y-100937013D01*
X146602739Y-100227818D01*
X146283970Y-100068035D01*
X144949605Y-101402400D01*
X144590395Y-101402400D01*
X143256030Y-100068035D01*
X142937261Y-100227818D01*
X142627277Y-101018587D01*
X114749375Y-101018587D01*
X114777440Y-100880000D01*
X114777440Y-99960000D01*
X115437537Y-99960000D01*
X115469673Y-99992192D01*
X115813201Y-100134838D01*
X116185167Y-100135162D01*
X116528943Y-99993117D01*
X116633812Y-99888430D01*
X143435635Y-99888430D01*
X144770000Y-101222795D01*
X146104365Y-99888430D01*
X145944582Y-99569661D01*
X145153813Y-99259677D01*
X144304613Y-99275903D01*
X143595418Y-99569661D01*
X143435635Y-99888430D01*
X116633812Y-99888430D01*
X116792192Y-99730327D01*
X116934838Y-99386799D01*
X116935162Y-99014833D01*
X116793117Y-98671057D01*
X116530327Y-98407808D01*
X116186799Y-98265162D01*
X115814833Y-98264838D01*
X115471057Y-98406883D01*
X115437882Y-98440000D01*
X114757189Y-98440000D01*
X114777440Y-98340000D01*
X114777440Y-97340000D01*
X114733162Y-97104683D01*
X114594090Y-96888559D01*
X114381890Y-96743569D01*
X114130000Y-96692560D01*
X110980000Y-96692560D01*
X110744683Y-96736838D01*
X110528559Y-96875910D01*
X110383569Y-97088110D01*
X110332560Y-97340000D01*
X110332560Y-98340000D01*
X110351376Y-98440000D01*
X110200000Y-98440000D01*
X109909161Y-98497852D01*
X109662599Y-98662599D01*
X109085458Y-99239740D01*
X109050000Y-99232560D01*
X105900000Y-99232560D01*
X105664683Y-99276838D01*
X105448559Y-99415910D01*
X105303569Y-99628110D01*
X105252560Y-99880000D01*
X104710000Y-99880000D01*
X104710000Y-97340000D01*
X105252560Y-97340000D01*
X105252560Y-98340000D01*
X105296838Y-98575317D01*
X105435910Y-98791441D01*
X105648110Y-98936431D01*
X105900000Y-98987440D01*
X109050000Y-98987440D01*
X109285317Y-98943162D01*
X109501441Y-98804090D01*
X109646431Y-98591890D01*
X109697440Y-98340000D01*
X109697440Y-97340000D01*
X109653162Y-97104683D01*
X109514090Y-96888559D01*
X109301890Y-96743569D01*
X109050000Y-96692560D01*
X105900000Y-96692560D01*
X105664683Y-96736838D01*
X105448559Y-96875910D01*
X105303569Y-97088110D01*
X105252560Y-97340000D01*
X104710000Y-97340000D01*
X104710000Y-94673690D01*
X105265000Y-94673690D01*
X105265000Y-95014250D01*
X105423750Y-95173000D01*
X105778600Y-95173000D01*
X105776691Y-95178931D01*
X105796921Y-95427000D01*
X105423750Y-95427000D01*
X105265000Y-95585750D01*
X105265000Y-95926310D01*
X105361673Y-96159699D01*
X105540302Y-96338327D01*
X105773691Y-96435000D01*
X107189250Y-96435000D01*
X107348000Y-96276250D01*
X107348000Y-96139517D01*
X107358516Y-96052384D01*
X107440370Y-96134238D01*
X107460000Y-96114608D01*
X107479630Y-96134238D01*
X107561483Y-96052385D01*
X107581977Y-96222180D01*
X107602000Y-96228623D01*
X107602000Y-96276250D01*
X107760750Y-96435000D01*
X109176309Y-96435000D01*
X109409698Y-96338327D01*
X109588327Y-96159699D01*
X109685000Y-95926310D01*
X109685000Y-95585750D01*
X109526250Y-95427000D01*
X109141400Y-95427000D01*
X109143309Y-95421069D01*
X109123079Y-95173000D01*
X109526250Y-95173000D01*
X109685000Y-95014250D01*
X109685000Y-94800000D01*
X110332560Y-94800000D01*
X110332560Y-95800000D01*
X110376838Y-96035317D01*
X110515910Y-96251441D01*
X110728110Y-96396431D01*
X110980000Y-96447440D01*
X114130000Y-96447440D01*
X114365317Y-96403162D01*
X114581441Y-96264090D01*
X114726431Y-96051890D01*
X114777440Y-95800000D01*
X114777440Y-94800000D01*
X114733162Y-94564683D01*
X114594090Y-94348559D01*
X114381890Y-94203569D01*
X114130000Y-94152560D01*
X110980000Y-94152560D01*
X110744683Y-94196838D01*
X110528559Y-94335910D01*
X110383569Y-94548110D01*
X110332560Y-94800000D01*
X109685000Y-94800000D01*
X109685000Y-94673690D01*
X109588327Y-94440301D01*
X109409698Y-94261673D01*
X109176309Y-94165000D01*
X107760750Y-94165000D01*
X107602000Y-94323750D01*
X107602000Y-94369526D01*
X107581977Y-94377820D01*
X107561483Y-94547615D01*
X107479630Y-94465762D01*
X107460000Y-94485392D01*
X107440370Y-94465762D01*
X107358516Y-94547616D01*
X107348000Y-94460483D01*
X107348000Y-94323750D01*
X107189250Y-94165000D01*
X105773691Y-94165000D01*
X105540302Y-94261673D01*
X105361673Y-94440301D01*
X105265000Y-94673690D01*
X104710000Y-94673690D01*
X104710000Y-92133690D01*
X105265000Y-92133690D01*
X105265000Y-92474250D01*
X105423750Y-92633000D01*
X105778600Y-92633000D01*
X105776691Y-92638931D01*
X105796921Y-92887000D01*
X105423750Y-92887000D01*
X105265000Y-93045750D01*
X105265000Y-93386310D01*
X105361673Y-93619699D01*
X105540302Y-93798327D01*
X105773691Y-93895000D01*
X107189250Y-93895000D01*
X107348000Y-93736250D01*
X107348000Y-93599517D01*
X107358516Y-93512384D01*
X107440370Y-93594238D01*
X107460000Y-93574608D01*
X107479630Y-93594238D01*
X107561483Y-93512385D01*
X107581977Y-93682180D01*
X107602000Y-93688623D01*
X107602000Y-93736250D01*
X107760750Y-93895000D01*
X109176309Y-93895000D01*
X109409698Y-93798327D01*
X109588327Y-93619699D01*
X109685000Y-93386310D01*
X109685000Y-93045750D01*
X109526250Y-92887000D01*
X109141400Y-92887000D01*
X109143309Y-92881069D01*
X109123079Y-92633000D01*
X109526250Y-92633000D01*
X109685000Y-92474250D01*
X109685000Y-92260000D01*
X110332560Y-92260000D01*
X110332560Y-93260000D01*
X110376838Y-93495317D01*
X110515910Y-93711441D01*
X110728110Y-93856431D01*
X110980000Y-93907440D01*
X114130000Y-93907440D01*
X114365317Y-93863162D01*
X114581441Y-93724090D01*
X114726431Y-93511890D01*
X114777440Y-93260000D01*
X114777440Y-92260000D01*
X114733162Y-92024683D01*
X114594090Y-91808559D01*
X114381890Y-91663569D01*
X114130000Y-91612560D01*
X110980000Y-91612560D01*
X110744683Y-91656838D01*
X110528559Y-91795910D01*
X110383569Y-92008110D01*
X110332560Y-92260000D01*
X109685000Y-92260000D01*
X109685000Y-92133690D01*
X109588327Y-91900301D01*
X109409698Y-91721673D01*
X109176309Y-91625000D01*
X107760750Y-91625000D01*
X107602000Y-91783750D01*
X107602000Y-91829526D01*
X107581977Y-91837820D01*
X107561483Y-92007615D01*
X107479630Y-91925762D01*
X107460000Y-91945392D01*
X107440370Y-91925762D01*
X107358516Y-92007616D01*
X107348000Y-91920483D01*
X107348000Y-91783750D01*
X107189250Y-91625000D01*
X105773691Y-91625000D01*
X105540302Y-91721673D01*
X105361673Y-91900301D01*
X105265000Y-92133690D01*
X104710000Y-92133690D01*
X104710000Y-89593690D01*
X105265000Y-89593690D01*
X105265000Y-89934250D01*
X105423750Y-90093000D01*
X105778600Y-90093000D01*
X105776691Y-90098931D01*
X105796921Y-90347000D01*
X105423750Y-90347000D01*
X105265000Y-90505750D01*
X105265000Y-90846310D01*
X105361673Y-91079699D01*
X105540302Y-91258327D01*
X105773691Y-91355000D01*
X107189250Y-91355000D01*
X107348000Y-91196250D01*
X107348000Y-91059517D01*
X107358516Y-90972384D01*
X107440370Y-91054238D01*
X107460000Y-91034608D01*
X107479630Y-91054238D01*
X107561483Y-90972385D01*
X107581977Y-91142180D01*
X107602000Y-91148623D01*
X107602000Y-91196250D01*
X107760750Y-91355000D01*
X109176309Y-91355000D01*
X109409698Y-91258327D01*
X109588327Y-91079699D01*
X109685000Y-90846310D01*
X109685000Y-90505750D01*
X109526250Y-90347000D01*
X109141400Y-90347000D01*
X109143309Y-90341069D01*
X109123079Y-90093000D01*
X109526250Y-90093000D01*
X109685000Y-89934250D01*
X109685000Y-89720000D01*
X110332560Y-89720000D01*
X110332560Y-90720000D01*
X110376838Y-90955317D01*
X110515910Y-91171441D01*
X110728110Y-91316431D01*
X110980000Y-91367440D01*
X114130000Y-91367440D01*
X114365317Y-91323162D01*
X114581441Y-91184090D01*
X114726431Y-90971890D01*
X114777440Y-90720000D01*
X114777440Y-89720000D01*
X114733162Y-89484683D01*
X114594090Y-89268559D01*
X114381890Y-89123569D01*
X114130000Y-89072560D01*
X110980000Y-89072560D01*
X110744683Y-89116838D01*
X110528559Y-89255910D01*
X110383569Y-89468110D01*
X110332560Y-89720000D01*
X109685000Y-89720000D01*
X109685000Y-89593690D01*
X109588327Y-89360301D01*
X109409698Y-89181673D01*
X109176309Y-89085000D01*
X107760750Y-89085000D01*
X107602000Y-89243750D01*
X107602000Y-89289526D01*
X107581977Y-89297820D01*
X107561483Y-89467615D01*
X107479630Y-89385762D01*
X107460000Y-89405392D01*
X107440370Y-89385762D01*
X107358516Y-89467616D01*
X107348000Y-89380483D01*
X107348000Y-89243750D01*
X107189250Y-89085000D01*
X105773691Y-89085000D01*
X105540302Y-89181673D01*
X105361673Y-89360301D01*
X105265000Y-89593690D01*
X104710000Y-89593690D01*
X104710000Y-85294092D01*
X104988910Y-85015182D01*
X104765389Y-85553481D01*
X104764613Y-86442619D01*
X105104155Y-87264372D01*
X105732321Y-87893636D01*
X106553481Y-88234611D01*
X107442619Y-88235387D01*
X108264372Y-87895845D01*
X108893636Y-87267679D01*
X109234611Y-86446519D01*
X109235387Y-85557381D01*
X108895845Y-84735628D01*
X108267679Y-84106364D01*
X107446519Y-83765389D01*
X106557381Y-83764613D01*
X106015633Y-83988459D01*
X106294092Y-83710000D01*
X111705908Y-83710000D01*
X111790000Y-83794092D01*
G36*
X107018748Y-95285858D02*
X107004605Y-95300000D01*
X107018748Y-95314143D01*
X106905890Y-95427000D01*
X106744110Y-95427000D01*
X106631253Y-95314143D01*
X106645395Y-95300000D01*
X106631253Y-95285858D01*
X106744110Y-95173000D01*
X106905890Y-95173000D01*
X107018748Y-95285858D01*
X107018748Y-95285858D01*
G37*
X107018748Y-95285858D02*
X107004605Y-95300000D01*
X107018748Y-95314143D01*
X106905890Y-95427000D01*
X106744110Y-95427000D01*
X106631253Y-95314143D01*
X106645395Y-95300000D01*
X106631253Y-95285858D01*
X106744110Y-95173000D01*
X106905890Y-95173000D01*
X107018748Y-95285858D01*
G36*
X108288748Y-95285858D02*
X108274605Y-95300000D01*
X108288748Y-95314143D01*
X108175890Y-95427000D01*
X108014110Y-95427000D01*
X107901253Y-95314143D01*
X107915395Y-95300000D01*
X107901253Y-95285858D01*
X108014110Y-95173000D01*
X108175890Y-95173000D01*
X108288748Y-95285858D01*
X108288748Y-95285858D01*
G37*
X108288748Y-95285858D02*
X108274605Y-95300000D01*
X108288748Y-95314143D01*
X108175890Y-95427000D01*
X108014110Y-95427000D01*
X107901253Y-95314143D01*
X107915395Y-95300000D01*
X107901253Y-95285858D01*
X108014110Y-95173000D01*
X108175890Y-95173000D01*
X108288748Y-95285858D01*
G36*
X107018748Y-92745858D02*
X107004605Y-92760000D01*
X107018748Y-92774143D01*
X106905890Y-92887000D01*
X106744110Y-92887000D01*
X106631253Y-92774143D01*
X106645395Y-92760000D01*
X106631253Y-92745858D01*
X106744110Y-92633000D01*
X106905890Y-92633000D01*
X107018748Y-92745858D01*
X107018748Y-92745858D01*
G37*
X107018748Y-92745858D02*
X107004605Y-92760000D01*
X107018748Y-92774143D01*
X106905890Y-92887000D01*
X106744110Y-92887000D01*
X106631253Y-92774143D01*
X106645395Y-92760000D01*
X106631253Y-92745858D01*
X106744110Y-92633000D01*
X106905890Y-92633000D01*
X107018748Y-92745858D01*
G36*
X108288748Y-92745858D02*
X108274605Y-92760000D01*
X108288748Y-92774143D01*
X108175890Y-92887000D01*
X108014110Y-92887000D01*
X107901253Y-92774143D01*
X107915395Y-92760000D01*
X107901253Y-92745858D01*
X108014110Y-92633000D01*
X108175890Y-92633000D01*
X108288748Y-92745858D01*
X108288748Y-92745858D01*
G37*
X108288748Y-92745858D02*
X108274605Y-92760000D01*
X108288748Y-92774143D01*
X108175890Y-92887000D01*
X108014110Y-92887000D01*
X107901253Y-92774143D01*
X107915395Y-92760000D01*
X107901253Y-92745858D01*
X108014110Y-92633000D01*
X108175890Y-92633000D01*
X108288748Y-92745858D01*
G36*
X108288748Y-90205858D02*
X108274605Y-90220000D01*
X108288748Y-90234143D01*
X108175890Y-90347000D01*
X108014110Y-90347000D01*
X107901253Y-90234143D01*
X107915395Y-90220000D01*
X107901253Y-90205858D01*
X108014110Y-90093000D01*
X108175890Y-90093000D01*
X108288748Y-90205858D01*
X108288748Y-90205858D01*
G37*
X108288748Y-90205858D02*
X108274605Y-90220000D01*
X108288748Y-90234143D01*
X108175890Y-90347000D01*
X108014110Y-90347000D01*
X107901253Y-90234143D01*
X107915395Y-90220000D01*
X107901253Y-90205858D01*
X108014110Y-90093000D01*
X108175890Y-90093000D01*
X108288748Y-90205858D01*
G36*
X107018748Y-90205858D02*
X107004605Y-90220000D01*
X107018748Y-90234143D01*
X106905890Y-90347000D01*
X106744110Y-90347000D01*
X106631253Y-90234143D01*
X106645395Y-90220000D01*
X106631253Y-90205858D01*
X106744110Y-90093000D01*
X106905890Y-90093000D01*
X107018748Y-90205858D01*
X107018748Y-90205858D01*
G37*
X107018748Y-90205858D02*
X107004605Y-90220000D01*
X107018748Y-90234143D01*
X106905890Y-90347000D01*
X106744110Y-90347000D01*
X106631253Y-90234143D01*
X106645395Y-90220000D01*
X106631253Y-90205858D01*
X106744110Y-90093000D01*
X106905890Y-90093000D01*
X107018748Y-90205858D01*
M02*
